<mxfile host="Electron" agent="Mozilla/5.0 (Macintosh; Intel Mac OS X 10_15_7) AppleWebKit/537.36 (KHTML, like Gecko) draw.io/26.2.2 Chrome/134.0.6998.178 Electron/35.1.2 Safari/537.36" compressed="false" version="26.2.2">
  <diagram id="Dh1aQpo7ojsa_JQiMq18" name="Page-1">
    <mxGraphModel dx="1184" dy="883" grid="1" gridSize="10" guides="1" tooltips="1" connect="1" arrows="1" fold="1" page="1" pageScale="1" pageWidth="1169" pageHeight="827" math="0" shadow="0">
      <root>
        <mxCell id="0" />
        <mxCell id="1" parent="0" />
        <mxCell id="JCFZQsFWdCreCA8K99p6-2" value="" style="rounded=0;whiteSpace=wrap;html=1;fillColor=none;strokeColor=#6C8EBF;" parent="1" vertex="1">
          <mxGeometry x="240" y="155" width="160" height="132" as="geometry" />
        </mxCell>
        <mxCell id="JCFZQsFWdCreCA8K99p6-16" style="edgeStyle=orthogonalEdgeStyle;rounded=1;orthogonalLoop=1;jettySize=auto;html=1;exitX=1.004;exitY=0.35;exitDx=0;exitDy=0;entryX=0.5;entryY=1;entryDx=0;entryDy=0;endArrow=none;startFill=0;startArrow=none;strokeWidth=3;fillColor=#dae8fc;strokeColor=#6c8ebf;curved=0;exitPerimeter=0;" parent="1" source="meAqKPWt1AxIm8cC-9Gz-2" target="meAqKPWt1AxIm8cC-9Gz-4" edge="1">
          <mxGeometry relative="1" as="geometry">
            <Array as="points">
              <mxPoint x="520" y="427" />
            </Array>
          </mxGeometry>
        </mxCell>
        <mxCell id="meAqKPWt1AxIm8cC-9Gz-2" value="Integration &lt;br&gt;Principles" style="rounded=0;whiteSpace=wrap;html=1;fontFamily=Architects Daughter;fontSize=16;fillColor=#dae8fc;strokeColor=#6c8ebf;" parent="1" vertex="1">
          <mxGeometry x="240" y="381" width="160" height="132" as="geometry" />
        </mxCell>
        <mxCell id="meAqKPWt1AxIm8cC-9Gz-4" value="Integration&lt;br&gt;Technology &lt;br&gt;Mapping" style="rounded=0;whiteSpace=wrap;html=1;fontFamily=Architects Daughter;fontSize=16;fillColor=#dae8fc;strokeColor=#6c8ebf;" parent="1" vertex="1">
          <mxGeometry x="440" y="268" width="160" height="132" as="geometry" />
        </mxCell>
        <mxCell id="meAqKPWt1AxIm8cC-9Gz-5" value="Integration &lt;br&gt;Blueprint" style="rounded=0;whiteSpace=wrap;html=1;fontFamily=Architects Daughter;fontSize=16;fillColor=#dae8fc;strokeColor=#6c8ebf;" parent="1" vertex="1">
          <mxGeometry x="640" y="381" width="160" height="132" as="geometry" />
        </mxCell>
        <mxCell id="meAqKPWt1AxIm8cC-9Gz-6" value="Technology &lt;br&gt;Blueprint" style="rounded=0;whiteSpace=wrap;html=1;fontSize=16;fontFamily=Architects Daughter;fillColor=#dae8fc;strokeColor=#6c8ebf;" parent="1" vertex="1">
          <mxGeometry x="840" y="496" width="160" height="132" as="geometry" />
        </mxCell>
        <mxCell id="JCFZQsFWdCreCA8K99p6-7" value="Data Security" style="rounded=0;whiteSpace=wrap;html=1;fontFamily=Architects Daughter;fontSize=16;fillColor=#dae8fc;strokeColor=#6c8ebf;" parent="1" vertex="1">
          <mxGeometry x="640" y="590" width="160" height="132" as="geometry" />
        </mxCell>
        <mxCell id="JCFZQsFWdCreCA8K99p6-8" style="edgeStyle=orthogonalEdgeStyle;rounded=1;orthogonalLoop=1;jettySize=auto;html=1;entryX=0.5;entryY=0;entryDx=0;entryDy=0;strokeWidth=10;endArrow=block;endFill=1;fillColor=#dae8fc;strokeColor=#6c8ebf;curved=0;exitX=1;exitY=0.5;exitDx=0;exitDy=0;" parent="1" source="5GquR9uzr9U2BX6K7XrJ-3" target="JCFZQsFWdCreCA8K99p6-2" edge="1">
          <mxGeometry relative="1" as="geometry">
            <mxPoint x="200" y="106.29999999999995" as="sourcePoint" />
          </mxGeometry>
        </mxCell>
        <mxCell id="JCFZQsFWdCreCA8K99p6-9" style="edgeStyle=orthogonalEdgeStyle;rounded=1;orthogonalLoop=1;jettySize=auto;html=1;entryX=0.5;entryY=0;entryDx=0;entryDy=0;strokeWidth=10;endArrow=block;endFill=1;fillColor=#dae8fc;strokeColor=#6c8ebf;exitX=1;exitY=0.5;exitDx=0;exitDy=0;curved=0;" parent="1" source="JCFZQsFWdCreCA8K99p6-2" target="meAqKPWt1AxIm8cC-9Gz-4" edge="1">
          <mxGeometry relative="1" as="geometry">
            <mxPoint x="450" y="96.5" as="sourcePoint" />
            <mxPoint x="570" y="145.5" as="targetPoint" />
          </mxGeometry>
        </mxCell>
        <mxCell id="JCFZQsFWdCreCA8K99p6-10" style="edgeStyle=orthogonalEdgeStyle;rounded=1;orthogonalLoop=1;jettySize=auto;html=1;entryX=0.5;entryY=0;entryDx=0;entryDy=0;strokeWidth=10;endArrow=block;endFill=1;fillColor=#dae8fc;strokeColor=#6c8ebf;exitX=1;exitY=0.5;exitDx=0;exitDy=0;curved=0;" parent="1" source="meAqKPWt1AxIm8cC-9Gz-4" target="meAqKPWt1AxIm8cC-9Gz-5" edge="1">
          <mxGeometry relative="1" as="geometry">
            <mxPoint x="640" y="280" as="sourcePoint" />
            <mxPoint x="760" y="341" as="targetPoint" />
          </mxGeometry>
        </mxCell>
        <mxCell id="JCFZQsFWdCreCA8K99p6-11" style="edgeStyle=orthogonalEdgeStyle;rounded=1;orthogonalLoop=1;jettySize=auto;html=1;entryX=0.5;entryY=0;entryDx=0;entryDy=0;strokeWidth=10;endArrow=block;endFill=1;fillColor=#dae8fc;strokeColor=#6c8ebf;exitX=1;exitY=0.5;exitDx=0;exitDy=0;curved=0;" parent="1" source="meAqKPWt1AxIm8cC-9Gz-5" target="meAqKPWt1AxIm8cC-9Gz-6" edge="1">
          <mxGeometry relative="1" as="geometry">
            <mxPoint x="860" y="388" as="sourcePoint" />
            <mxPoint x="980" y="440" as="targetPoint" />
          </mxGeometry>
        </mxCell>
        <mxCell id="JCFZQsFWdCreCA8K99p6-14" style="edgeStyle=orthogonalEdgeStyle;rounded=1;orthogonalLoop=1;jettySize=auto;html=1;entryX=0;entryY=0.5;entryDx=0;entryDy=0;strokeWidth=10;endArrow=block;endFill=1;fillColor=#dae8fc;strokeColor=#6c8ebf;exitX=0.75;exitY=1;exitDx=0;exitDy=0;curved=0;" parent="1" source="meAqKPWt1AxIm8cC-9Gz-2" target="JCFZQsFWdCreCA8K99p6-6" edge="1">
          <mxGeometry relative="1" as="geometry">
            <mxPoint x="330" y="650" as="sourcePoint" />
            <mxPoint x="450" y="697" as="targetPoint" />
          </mxGeometry>
        </mxCell>
        <mxCell id="JCFZQsFWdCreCA8K99p6-15" style="edgeStyle=orthogonalEdgeStyle;rounded=1;orthogonalLoop=1;jettySize=auto;html=1;entryX=0;entryY=0.5;entryDx=0;entryDy=0;strokeWidth=10;endArrow=block;endFill=1;fillColor=#dae8fc;strokeColor=#6c8ebf;curved=0;exitX=0.5;exitY=1;exitDx=0;exitDy=0;" parent="1" source="meAqKPWt1AxIm8cC-9Gz-2" target="JCFZQsFWdCreCA8K99p6-7" edge="1">
          <mxGeometry relative="1" as="geometry">
            <mxPoint x="320" y="510" as="sourcePoint" />
            <mxPoint x="450" y="564" as="targetPoint" />
          </mxGeometry>
        </mxCell>
        <mxCell id="JCFZQsFWdCreCA8K99p6-17" style="edgeStyle=orthogonalEdgeStyle;rounded=0;orthogonalLoop=1;jettySize=auto;html=1;exitX=1;exitY=0.5;exitDx=0;exitDy=0;entryX=0;entryY=0.5;entryDx=0;entryDy=0;endArrow=none;startFill=0;startArrow=none;strokeWidth=3;fillColor=#dae8fc;strokeColor=#6c8ebf;" parent="1" source="meAqKPWt1AxIm8cC-9Gz-2" target="meAqKPWt1AxIm8cC-9Gz-5" edge="1">
          <mxGeometry relative="1" as="geometry">
            <mxPoint x="410" y="424" as="sourcePoint" />
            <mxPoint x="490" y="410" as="targetPoint" />
            <Array as="points">
              <mxPoint x="450" y="447" />
              <mxPoint x="450" y="447" />
            </Array>
          </mxGeometry>
        </mxCell>
        <mxCell id="JCFZQsFWdCreCA8K99p6-19" style="edgeStyle=orthogonalEdgeStyle;rounded=1;orthogonalLoop=1;jettySize=auto;html=1;exitX=1;exitY=0.5;exitDx=0;exitDy=0;entryX=0.5;entryY=1;entryDx=0;entryDy=0;endArrow=none;startFill=0;startArrow=none;strokeWidth=3;fillColor=#dae8fc;strokeColor=#6c8ebf;curved=0;" parent="1" source="JCFZQsFWdCreCA8K99p6-6" target="meAqKPWt1AxIm8cC-9Gz-5" edge="1">
          <mxGeometry relative="1" as="geometry">
            <mxPoint x="630" y="545.62" as="sourcePoint" />
            <mxPoint x="870" y="545.62" as="targetPoint" />
            <Array as="points" />
          </mxGeometry>
        </mxCell>
        <mxCell id="JCFZQsFWdCreCA8K99p6-20" style="rounded=1;orthogonalLoop=1;jettySize=auto;html=1;exitX=1.001;exitY=0.612;exitDx=0;exitDy=0;entryX=0;entryY=0.5;entryDx=0;entryDy=0;endArrow=none;startFill=0;startArrow=none;strokeWidth=3;fillColor=#dae8fc;strokeColor=#6c8ebf;exitPerimeter=0;" parent="1" source="JCFZQsFWdCreCA8K99p6-6" target="meAqKPWt1AxIm8cC-9Gz-6" edge="1">
          <mxGeometry relative="1" as="geometry">
            <mxPoint x="610" y="556" as="sourcePoint" />
            <mxPoint x="730" y="523" as="targetPoint" />
          </mxGeometry>
        </mxCell>
        <mxCell id="JCFZQsFWdCreCA8K99p6-21" style="rounded=1;orthogonalLoop=1;jettySize=auto;html=1;exitX=1;exitY=0.5;exitDx=0;exitDy=0;entryX=0.5;entryY=1;entryDx=0;entryDy=0;endArrow=none;startFill=0;startArrow=none;strokeWidth=3;fillColor=#dae8fc;strokeColor=#6c8ebf;edgeStyle=orthogonalEdgeStyle;" parent="1" source="JCFZQsFWdCreCA8K99p6-7" target="meAqKPWt1AxIm8cC-9Gz-6" edge="1">
          <mxGeometry relative="1" as="geometry">
            <mxPoint x="860" y="700" as="sourcePoint" />
            <mxPoint x="1100" y="701" as="targetPoint" />
          </mxGeometry>
        </mxCell>
        <mxCell id="JCFZQsFWdCreCA8K99p6-6" value="Integration Protocols, Data Formats &amp;amp; API specifications" style="rounded=0;whiteSpace=wrap;html=1;fontFamily=Architects Daughter;fontSize=16;fillColor=#dae8fc;strokeColor=#6c8ebf;" parent="1" vertex="1">
          <mxGeometry x="440" y="480" width="160" height="132" as="geometry" />
        </mxCell>
        <mxCell id="5GquR9uzr9U2BX6K7XrJ-2" value="" style="group" parent="1" vertex="1" connectable="0">
          <mxGeometry x="240" y="155" width="160" height="180" as="geometry" />
        </mxCell>
        <mxCell id="JCFZQsFWdCreCA8K99p6-3" value="" style="group;fillColor=default;container=0;" parent="5GquR9uzr9U2BX6K7XrJ-2" vertex="1" connectable="0">
          <mxGeometry width="160" height="132" as="geometry" />
        </mxCell>
        <mxCell id="JCFZQsFWdCreCA8K99p6-4" value="&lt;font face=&quot;Architects Daughter&quot;&gt;Integration Styles &amp;amp; Use Cases&lt;/font&gt;" style="text;html=1;align=center;verticalAlign=middle;whiteSpace=wrap;rounded=0;fontFamily=Architec;fontSize=16;" parent="5GquR9uzr9U2BX6K7XrJ-2" vertex="1">
          <mxGeometry y="132" width="160" height="48" as="geometry" />
        </mxCell>
        <mxCell id="5GquR9uzr9U2BX6K7XrJ-1" value="" style="shape=image;verticalLabelPosition=bottom;labelBackgroundColor=default;verticalAlign=top;aspect=fixed;imageAspect=0;image=data:image/jpeg,/9j/4AAQSkZJRgABAQAAAQABAAD/4gHYSUNDX1BST0ZJTEUAAQEAAAHIAAAAAAQwAABtbnRyUkdCIFhZWiAH4AABAAEAAAAAAABhY3NwAAAAAAAAAAAAAAAAAAAAAAAAAAAAAAAAAAAAAQAA9tYAAQAAAADTLQAAAAAAAAAAAAAAAAAAAAAAAAAAAAAAAAAAAAAAAAAAAAAAAAAAAAAAAAAAAAAAAAAAAAlkZXNjAAAA8AAAACRyWFlaAAABFAAAABRnWFlaAAABKAAAABRiWFlaAAABPAAAABR3dHB0AAABUAAAABRyVFJDAAABZAAAAChnVFJDAAABZAAAAChiVFJDAAABZAAAAChjcHJ0AAABjAAAADxtbHVjAAAAAAAAAAEAAAAMZW5VUwAAAAgAAAAcAHMAUgBHAEJYWVogAAAAAAAAb6IAADj1AAADkFhZWiAAAAAAAABimQAAt4UAABjaWFlaIAAAAAAAACSgAAAPhAAAts9YWVogAAAAAAAA9tYAAQAAAADTLXBhcmEAAAAAAAQAAAACZmYAAPKnAAANWQAAE9AAAApbAAAAAAAAAABtbHVjAAAAAAAAAAEAAAAMZW5VUwAAACAAAAAcAEcAbwBvAGcAbABlACAASQBuAGMALgAgADIAMAAxADb/2wBDAAMCAgICAgMCAgIDAwMDBAYEBAQEBAgGBgUGCQgKCgkICQkKDA8MCgsOCwkJDRENDg8QEBEQCgwSExIQEw8QEBD/2wBDAQMDAwQDBAgEBAgQCwkLEBAQEBAQEBAQEBAQEBAQEBAQEBAQEBAQEBAQEBAQEBAQEBAQEBAQEBAQEBAQEBAQEBD/wAARCAFBAtsDASIAAhEBAxEB/8QAHQABAAICAwEBAAAAAAAAAAAAAAYHBAUDCAkCAf/EAGMQAAECBAMBCAsKCAkKBAYDAAECAwAEBQYHERIhCBMxQVFWdpYUFRciNjdXYbTU1RYYMlRxlJW10tMjQlKBkaXR8Ak4U3WSobGzwRkkMzRVWGKEovE1coKyJUNzdMLhY2Rl/8QAHAEBAAIDAQEBAAAAAAAAAAAAAAIEAQMFBgcI/8QARREAAQMBBQMHBwwBBAIDAQAAAQACEQMEEiExUQVBkRMUMmFx0fAGFiJSU6GxBxUXNEJUcoGSwdLhMzVDovFicyMkgrL/2gAMAwEAAhEDEQA/APVOEIQRIRCrsVXqjfNBtml3ZUqFKzVJqk/MLkGZVbjrjL0khsEzDLoCQJhz4IBJI27I5vcRc3lhu/5rSPUYldwklRvY5KXwiIe4i5vLDd/zWkeow9xFzeWG7/mtI9RhdGqSdFL4REPcRc3lhu/5rSPUYe4i5vLDd/zWkeowujVJOil8IiHuIubyw3f81pHqMPcRc3lhu/5rSPUYXRqknRS+ERD3EXN5Ybv+a0j1GHuIubyw3f8ANaR6jC6NUk6KXwiIe4i5vLDd/wA1pHqMPcRc3lhu/wCa0j1GF0apJ0UvhEQ9xFzeWG7/AJrSPUYe4i5vLDd/zWkeowujVJOil8IiHuIubyw3f81pHqMPcRc3lhu/5rSPUYXRqknRS+ERD3EXN5Ybv+a0j1GHuIubyw3f81pHqMLo1STopfCIh7iLm8sN3/NaR6jD3EXN5Ybv+a0j1GF0apJ0UvhEQ9xFzeWG7/mtI9Rh7iLm8sN3/NaR6jC6NUk6KXwiIe4i5vLDd/zWkeow9xFzeWG7/mtI9RhdGqSdFL4REPcRc3lhu/5rSPUYe4i5vLDd/wA1pHqMLo1STopfCIh7iLm8sN3/ADWkeow9xFzeWG7/AJrSPUYXRqknRS+ERD3EXN5Ybv8AmtI9Rh7iLm8sN3/NaR6jC6NUk6KXwiCU5q46BiLS6FO3xV65I1Ki1KbW1UGJJO9usPySUKSqXl2j8GYcBBJHByRO4wRCyDKQhCMLKQhCCJCEIIkIQgiQhCCJCEIIkIQgiQhCCJCEIIkIQgiQhCCJCEIIkIQgiQis7Cot43TY1u3NUMXbpbmqvSZSffQzKUkNpcdZStQSDJEhOajlmScuMxvfcRc3lhu/5rSPUYmWgGJUQ6RMKXwiIe4i5vLDd/zWkeow9xFzeWG7/mtI9RjF0apJ0UvhEQ9xFzeWG7/mtI9Rh7iLm8sN3/NaR6jC6NUk6KXwiIe4i5vLDd/zWkeow9xFzeWG7/mtI9RhdGqSdFL4REPcRc3lhu/5rSPUYe4i5vLDd/zWkeowujVJOil8IiHuIubyw3f81pHqMPcRc3lhu/5rSPUYXRqknRS+ERD3EXN5Ybv+a0j1GHuIubyw3f8ANaR6jC6NUk6KXwiIe4i5vLDd/wA1pHqMPcRc3lhu/wCa0j1GF0apJ0UvhEQ9xFzeWG7/AJrSPUYe4i5vLDd/zWkeowujVJOil8IiHuIubyw3f81pHqMPcRc3lhu/5rSPUYXRqknRS+ERD3EXN5Ybv+a0j1GHuIubyw3f81pHqMLo1STopfCIh7iLm8sN3/NaR6jD3EXN5Ybv+a0j1GF0apJ0UvhEQ9xFzeWG7/mtI9Rh7iLm8sN3/NaR6jC6NUk6KXwiIe4i5vLDd/zWkeow9xFzeWG7/mtI9RhdGqSdFL4REPcRc3lhu/5rSPUYe4i5vLDd/wA1pHqMLo1STopfCI5htVqhX8OrWrtWmN/nqlRZGbmndCU7464whS1aUgAZqJOQAHJEjjBEGFkGRKRClXZfNRr1epds2jQpqVoU63ILmJ+uvSrjripViYJDaJR0BIEwlPw8yUnYImsRCyPCbEHpGz9UU+MtjElYdOC1E1J4tzN3U26fcnaCe11NnqfvHulmTvnZDsqvXq7A2aexcssjnr4Rlt2/bPFvmRaHWmZ9nxnXPftt2hOSVPrK6kuaqLbz0uxIUmbn3FNslsOLKZZtZSlJeaGashmsRqe7DZ/xC8OplY9VjN6dyXetZHbPFvmRaHWmZ9nw7Z4t8yLQ60zPs+Mfuw2f8QvDqZWPVYd2Gz/iF4dTKx6rGLw0SDqsjtni3zItDrTM+z4ds8W+ZFodaZn2fGP3YbP+IXh1MrHqsO7DZ/xC8OplY9VheGiQdVkds8W+ZFodaZn2fDtni3zItDrTM+z4x+7DZ/xC8OplY9Vh3YbP+IXh1MrHqsLw0SDqsjtni3zItDrTM+z4ds8W+ZFodaZn2fGP3YbP+IXh1MrHqsO7DZ/xC8OplY9VheGiQdVkds8W+ZFodaZn2fDtni3zItDrTM+z4x+7DZ/xC8OplY9Vh3YbP+IXh1MrHqsLw0SDqsjtni3zItDrTM+z4ds8W+ZFodaZn2fGP3YbP+IXh1MrHqsO7DZ/xC8OplY9VheGiQdVkds8W+ZFodaZn2fDtni3zItDrTM+z4x+7DZ/xC8OplY9Vh3YbP8AiF4dTKx6rC8NEg6rI7Z4t8yLQ60zPs+HbPFvmRaHWmZ9nxj92Gz/AIheHUyseqw7sNn/ABC8OplY9VheGiQdVkds8W+ZFodaZn2fDtni3zItDrTM+z4x+7DZ/wAQvDqZWPVYd2Gz/iF4dTKx6rC8NEg6rI7Z4t8yLQ60zPs+HbPFvmRaHWmZ9nxj92Gz/iF4dTKx6rDuw2f8QvDqZWPVYXhokHVZHbPFvmRaHWmZ9nw7Z4t8yLQ60zPs+Mfuw2f8QvDqZWPVYd2Gz/iF4dTKx6rC8NEg6rI7Z4t8yLQ60zPs+HbPFvmRaHWmZ9nxj92Gz/iF4dTKx6rDuw2f8QvDqZWPVYXhokHVZHbPFvmRaHWmZ9nw7Z4t8yLQ60zPs+Mfuw2f8QvDqZWPVYd2Gz/iF4dTKx6rC8NEg6rI7Z4t8yLQ60zPs+Myzblq9fXW5Ku0aTps9Q6kKe6iUnlTbTmqVYmErStTTR+DMAEFHCk7TG2olZptxUaQuCjTPZEhU5VqclXtCkb4y4gLQrSoBQzSoHIgEcYiO2R4TYg9I2fqinxnAg4JiCMUqfjctro5W/SaZEviIVPxuW10crfpNMiXxh2QQZlIQhEVJIQhBEhCEESEIQRIQhBEhCEESEIQRIQhBEhCEESEIQRIQhBEhCEEWivW4pu1qD20p9NZn5pydkZBiXemTLtqcmZpqXSVOBCylILoUckKOQ4I1vbPFvmRaHWmZ9nwxS8GZLpHb/1vKRL4ngGzCjiTmq5s6TxbtO0aJa3uTtCa7TU2Wp+/+6WZRvu8tJRr09gHTnpzyzOWfCY2/bPFvmRaHWmZ9nxgyeNth1GTYqFPauqalZptLzD7Nn1dbbrahmlaVCWyUkgggjYQY5u7DZ/xC8OplY9VgXSZhA2MJWR2zxb5kWh1pmfZ8O2eLfMi0OtMz7PjH7sNn/ELw6mVj1WHdhs/4heHUyseqxi8NEg6rI7Z4t8yLQ60zPs+HbPFvmRaHWmZ9nxj92Gz/iF4dTKx6rDuw2f8QvDqZWPVYXhokHVZHbPFvmRaHWmZ9nw7Z4t8yLQ60zPs+Mfuw2f8QvDqZWPVYd2Gz/iF4dTKx6rC8NEg6rI7Z4t8yLQ60zPs+HbPFvmRaHWmZ9nxj92Gz/iF4dTKx6rDuw2f8QvDqZWPVYXhokHVZHbPFvmRaHWmZ9nw7Z4t8yLQ60zPs+Mfuw2f8QvDqZWPVYd2Gz/iF4dTKx6rC8NEg6rI7Z4t8yLQ60zPs+HbPFvmRaHWmZ9nxj92Gz/iF4dTKx6rDuw2f8QvDqZWPVYXhokHVZHbPFvmRaHWmZ9nw7Z4t8yLQ60zPs+Mfuw2f8QvDqZWPVYd2Gz/AIheHUyseqwvDRIOqyO2eLfMi0OtMz7Ph2zxb5kWh1pmfZ8Y/dhs/wCIXh1MrHqsO7DZ/wAQvDqZWPVYXhokHVZHbPFvmRaHWmZ9nw7Z4t8yLQ60zPs+Mfuw2f8AELw6mVj1WHdhs/4heHUyseqwvDRIOqyO2eLfMi0OtMz7Ph2zxb5kWh1pmfZ8Y/dhs/4heHUyseqw7sNn/ELw6mVj1WF4aJB1WR2zxb5kWh1pmfZ8O2eLfMi0OtMz7PjH7sNn/ELw6mVj1WHdhs/4heHUyseqwvDRIOqyO2eLfMi0OtMz7Ph2zxb5kWh1pmfZ8Y/dhs/4heHUyseqw7sNn/ELw6mVj1WF4aJB1WR2zxb5kWh1pmfZ8O2eLfMi0OtMz7PjH7sNn/ELw6mVj1WM+38SbVuWsi36cawzPrlXZxDNQoc9Ib4y2ttC1IVMMoSrSp5sEAk9+NkLw0SDqtZU7uxFoCJOdrtl24iRfqUjT3VylxvvOt9kzTUulaUKkkBWlToJBWnYDtidxEMUvBmS6R2/9bykS+BiJQTMKIYPeKOyOjlN9GbiXxEMHvFHZHRym+jNxL4P6RRvRCRELI8JsQekbP1RT4l8RCyPCbEHpGz9UU+DcihzCwbm8btq9G676VSo3s1NSsjLOzs7MtS8uwhTjrrqwhDaAMypSjsAA2kmNFc3jdtXo3XfSqVEC3SM3PVW3aThfRqFN1ucvKoNtTchKPMtOrpMutDs6dTy0ICFICGVEqzHZAyBOQMVJW8lSVpC0KCkqGYIOYIj9jq5h7iVirY9npwsety3afWbUuOUtiXVVqs68kUt5h2Yl5h3QgZBEuhtsKC1hxbLoO95Zxu0444ouTiKXSpiw6zKTVysUSUudtqZlaW62ZCdmprJBdc1LYMq2kqS6ULLhTmhSVaSLsMp1pC0NLcSlbmehJORVlw5Djj6jp1itiveM5RVXLUU2nccjb8/XJelViRp7qabVwm2qhMrQWHXHQ4ht5hCFKS6pCykgEFJAt2VxjuS6Uz12UOtWNa1lUOrv02cnbjmFrmZnsZ8tTPepcaRJ7Ur0KcU4VAJUUJChBFdEfCXmVOqYS6guIAUpAUNSQc8iRxA5HL5DHXbFHdOz9EolevCxp61/c/bT7bKXp3fJyYuF0MofdakmmVoKG0MuajMKKx3q1aNCCs6K+rjxDtS/sZLhqdFtJ6RkbRotRdYcdemwphp2p9jqCFtpSVlaM1pOxICSlRMEXamEUlXMZb2RSbhvOjS9uy1Kt6tTVGlqNOBxyp116XfLBbZWlxCZZx11KkspLbxWC2o6deQ1dkYg4yVCi2nf9yXBQTRazXe06qVL0xRmHW3Zp1lDy5grAQpJDZCEt5ZA5qUTmCK/JialpRKVzUw0ylbiGklxYSFLUQlKRnwkkgAcZOUcsVbuh5mUlbVtp2dmGmGk3xbC1OOLCUpCarLrJJOwABJP5omNVvy16ZRKjW2qtK1BFOk351TEk+h551LTalqShIPfKISchywRSGEUbMY4XRactQLrvuZtdyj16Uen36TSEOuz9JlUSbkz2Qp7fFJmkAobZOllob4+2EqUSAqG3PulK4utKtStUC1nXCmQqqZdlxU8aU6ir09oy0y5lvK5pLc2l3Js5srSj4QUhZIu0kIpSgY11q5KZTcT5u5LBtLDyceVvfbmbWqoTTAUUhRc3xtqVdJH+iIeI4FFKswLqQtDiEuNqCkqAUlQOYIPHBF+whCCJCEIIkIQgiQhCCJCEIIkIQgi0+CvibsPozS/RW45LI8JsQekbP1RT448FfE3YfRml+itxyWR4TYg9I2fqinxJuRUTmEqfjctro5W/SaZEviIVPxuW10crfpNMiXwdkEGZSEIRFSSEIQRIR1f/hGpmZlNzZMTEnMvS7qa5TglxpwoWAVkHJQ2jMEj88eZ++1L/b9Z+kXvtR57a3lBT2TWFJ7CZE4FeV255U0th1xQqUy6RMgr3QhHhfvtS/2/WfpF77UN9qX+36z9IvfajleetD2R4hcb6Q7N7F3EL3QhHhfvtS/2/WfpF77UN9qX+36z9Ivfah560PZHiE+kOzexdxC90IR4X77Uv8Ab9Z+kXvtQ32pf7frP0i99qHnrQ9keIT6Q7N7F3EL3QhHhfvtS/2/WfpF77UN9qX+36z9Ivfah560PZHiE+kOzexdxC90IR4X77Uv9v1n6Re+1Dfal/t+s/SL32oeetD2R4hPpDs3sXcQvdCEeF++1L/b9Z+kXvtQ32pf7frP0i99qHnrQ9keIT6Q7N7F3EL3QhHhfvtS/wBv1n6Re+1Gdbk7VGLutsprlVWHK3ItrS5POrSpKn0AggqyIIjZS8saNV4pikZJjNbKPl9Z69RtJtEyTGY7l7hQhCPZL36QhCCKIYpeDMl0jt/63lIl8RDFLwZkukdv/W8pEviR6I8aKI6RVaYOeKKx+jdM9FbiVJnJRc2uQTNMmabbS6tgLG+JQokJUU8IBKVAHgOk8kRXBzxQ2P0bpnorcdZ5+5b8p2ID26koljKfo83Wu0pqM/V25eTftp3epVh1Ia311LQmUCbLi2gQlxeSdJ1RFSXciEde7hxsxRkVVmZpbtjKmJS4pijUS21tzL1UrqWnt7ISpLqRLq4SV706gBJUrQnPL5n8bsUtUxNU2YsVUybsnaDSbZ3mZeqlWlpeouSi3QtLoEuUobU4pRacbASVKKAdhF2EadaeQHWXEuIPApJzB/OI+o6k4Z4yTlmVqo2NT7fpM1V6pUnKXR1TDgk0LfNbuJJE1MhKjvTbMgnQgJUrUopSCV5i05zGWo2VT52j3ZctkXLezs5LS9ModBmDJrT2Q4202JkOuurbQlxZ1PZAaBmEau9JFcDzzMu0t991DbbYKlrWoBKQOEkngEfcdR8S8VMQ73wuxts1E7ZtZNr0NMzM1GmialWES7zM1vjbJUXhMutOSq0FYLaCrUkhCkqSJ45izeNvX1UrVmbbtpdx1Z+hSjT0upbUohc03UHC9MPKTvi0oYkSEoyBKyEAgK1AivyEdeKhipjLNYnU3Cq36xaE1MqeeRM15mQdEhn2K46WFS2/OL39jS2tSA+kKS+0SUbQbSwqrlx1alVem3XUpepVS36xMUp6eYlexkTQQELQvetSgg6XUggEjNOfHlBFMGZqWmVPIl5hp1Uu5vTwQsKLa8grSrLgOSknI8RB445YqLCa4bdp92YsMTtdp8s+5fC1709NIQsgUqnIzyJzyzQR+YxtrpxArs1d8tY1iz1Ak1qpK6zN1qrJVMyrTId3pLbTLbrReWVBZUd9QEAJz1FYEEVjwjrzNbpmrLt/KSl7dl6nItvuz1Qm3nTIPtiZfl5MyTKM3plycMupxppBJCFA6l5o3zVWBukqndtTFJte1KDK3DepkqnJIm3zLSzKFUaRmJhcw8hBXMOoLyUISEhS0oG1CUFQIuzcIh2Hl1uVlqdoNcva0K9clKc/+IN28S2iXQsneg4yp51bajpV8JW3LMAcETGCJCEIIkIQgiQhCCJCEIIkIQgiRGV+OS2+jNd9KpUSaIyvxyW30ZrvpVKgi2WKXgzJdI7f+t5SJfEQxS8GZLpHb/1vKRL4keiPGiiOkVEMHvFHZHRym+jNxL4iGD3ijsjo5TfRm4l8H9Io3ohIiFkeE2IPSNn6op8S+IhZHhNiD0jZ+qKfBuRQ5hYNzeN21ejdd9KpUbtUhIrnW6muTYVOMtLYbmC2C4htZSVoCuEJUUIJHASlOfAI0lzeN21ejdd9KpUSKIqSrjFnDSlXpMUGYXZ1Lqy+3tOcqpmJZle+yLG/lId1j8IhCnlKSg55FZIGZMfeKOHsnd/uEpHuVp9To1HuRqdnJJ9hpUu1LIkpttKi2vvSEuONZAAkHIgbNliQgi1tRti26xJMU2r29TJ6UlkqSxLzMo2620FNLZUEpUCEgtOONnLhQtSeAkRrH8MsNpmvG6ZnD22na0cs6kuky6po5cH4Uo17PliSwgi0ztl2c/Pz1UftOjOTtUYMrPTK5BouzTJTpLbqynNaCnYUqJGWyOabti2592cenqBTpldQlG5CbL0qhfZEs2pakMuZjvkJLrhCTmAVq2bTGzhBFoU2DYqblN5psugi4FDI1UU5nswjLLLftOvg88Z6aBQkSbFORRZBMpKvJmWGBLoDbTqV60uJTlklQX3wI257eGM+EEWDWaDQ7jkjTLho0jVJNSgsy87LofbKhwHSsEZjljUUvDPDehz7dUouH9tU+daCgiZlaSw06kKBBAWlAIzBIO3gMSWEEUXk8NsNaBI1VqlYeW7Jy1VaWKkzJ0dhInUEHUl1CEfhc9uwg55xXNIpFDvnFa2pmiYdT9MtO06BVZZxFTt5ynSy5qZmpBbKGWH20FWnsRxeoIySQjI5nZd0IIo3K4Z4cSVedumSw/tuXrT699dqTVKYRNOL4dSnQjWT5yYkkIQRIQhBEhCEESEIQRIQhBEhCEESEIQRafBXxN2H0ZpforcclkeE2IPSNn6op8ceCvibsPozS/RW45LI8JsQekbP1RT4k3IqJzCVPxuW10crfpNMiXxEKn43La6OVv0mmRL4OyCDMpCEIipJCEIIurf8JF/Fnmv59pv94Y8049LP4SL+LPNfz7Tf7wx5px808s/rjPw/uvkPygfX6f4f3SEIR49eCW+oFgX5dkuubtaya9WWG1aFO0+mvTCEq5CUJIB80aqpUypUaedplXp8zIzjCtLsvMtKadbPIpKgCD8ojt1iPUaDRrJwto81uh6xYcjLWFSZ80Ci0ybcdmX3kqccmNTSm2Stajl368wUk7NRJ/Je88HscLVv6+MRrcrc/SsN6Rb0lSpp+bBrVQQh6ZQeyXwCAX3HUBwjPSDmDqSFR3XbJpTyQqAPicSIwaXHIkiI356L0j9h0b3ItqgPicSIwaXO6JJbAH2s9F09hHYCz2sJ8cq5L2pK4XyVgUagsztwVapUyozE5POU2XYUtbCd/KgpZOXfEbOEJ2EK2Fo2HhjugLeuKn4fYWOWVU6ROUpmnVRVamZxp8zc23Lb1NB3NOohanAWkpPeHZkMjUZs11X/ABPBmYzxgSYkbuuJ3KlT2Q+tHI1GumbvSl10SYlu7/ygHdvXW+EXxcjOAlCmavhNY+ElzXrcrQmaezcMxUnmZg1BAKNbEiwClTSVpKgleaiNh5Ynts4P4H4WYY23Vsa5ykyl2XdvkwuWrknVHxJSaVlBaQxJFC0ukZZrcUClWwDYYlT2U+q4ta9sNGJkgDGIJIAmTukdanS2LUrPc1tRkNEuMkNaZAgkgAmTuJHWupUI7eyODm55k564azRm6ZVlGtGUkKHedyuW6mmSamUONPuIWEzL4cUo72NmbZGeagY+nMCsLbfum8Jq86FZkrWqdUZWUlrPmr6MhTpKVck2nDPKmnMph4KcXkGgElJUQcwUxt+ZK8A3m5xvI34yBG7ISerON3m5aYBvtzjeQM8ZDYMxkJPVgY6gQi090lYxw/xI7Ti06NbrcxTpacbk6RVnahLFKwRviXHQFjUUk6VDYMiMwQTVkcyvRdZ6rqTswY3/ALwVxrTZ3WWs6g/Npjf+8HiEjKoXhbbH8/U/0hEYsZVC8LbY/n6n+kIjZYvrNPtHxW3Z/wBbp/iHxXuNCEI+4r9HpCEIIohil4MyXSO3/reUiXxEMUvBmS6R2/8AW8pEviR6I8aKI6RVZ4PJSvCCyEqSCk23TQQRsI7FbiQv2/QZmhLtaYosi5RnJUyK6eqXQZZUsU6N5LWWnRp73TlllsyiP4OeKKx+jdM9FbiYRFSVe4WYfydq1K7a5M2tT5Gp1e4J2YROoYaExMyilJLWpxPfadmQSo7MuAR+YRYfytoJuWqTdryFPq9ZuWsTrs42w0Jibl3Z11xlTjiO+UN7UjIKOYAAyGUWHCCKPzmHlgVGUnJCoWNb81LVHPsxl6mMLbmc3XHjviSnJf4V51zbn37i1cKiT+S2HWH0nQnbXk7Ft5ijPlJdpzdMYTKrKTmnU0E6DkQCMxEhhBFqXbRtV6QmaW7bVLVJzsiKXMMGTb3t6TAWBLqTlkpoBxzvD3vfq2bTHzVrMs+vy85K121KPUmag20zONzci08mYbb1b2lwKSQsJ1q0g5gajlwmNxCCLVUu0rVocvIylFtmlU9ima+wmpWSbaRK6xkvegkAI1DYdOWfHGbK0+QkVzDklJMS6pt4zEwWmwkvOlISVry+ErJKRmduSRyRkQgijNSwww1rM69Uqxh5bM9NzCtb0xM0mXdccVyqUpBJPnMfk9hbhlU6fI0mpYdWxNyNMWpclLP0iXcalVKOZLSCghBJ2kpAiTwgigd51CyLKqstcDuHM/Va6JQsSczR7YdnZhLaM9LO/tNkMpzUcgtaU7T5402FmDNsSWClo2RiFYtBqM3K0anIqktPU9iZQqbalkNkr1JIWpGWgKOexIA2RasIIsGjUGh25IpplvUaRpcmg5pl5KXQw0n5EoAA/RGdCEESEIQRIQhBEhCEESEIQRIQhBEiMr8clt9Ga76VSok0RlfjktvozXfSqVBFssUvBmS6R2/9bykS+Ihil4MyXSO3/reUiXxI9EeNFEdIqIYPeKOyOjlN9GbiXxEMHvFHZHRym+jNxL4P6RRvRCRELI8JsQekbP1RT4l8RCyPCbEHpGz9UU+DcihzCwbm8btq9G676VSogtYx+Su6HLasay6pczlPW4mpFlJb3oJUE5tjIlWSioHUEjYMic8xOrm8btq9G676VSorrCJilKv/ABMq1OlktMds0SoWjYnvS5vgT/5l7TxcGWUXbFTpua99Rs3QIG7Ex2qvaXvBa1hiT8BK3KsXrncCzKYNXQoDII34Ia1KPFtz4+TOMd7F+/mNi8Da6TyImUrI/MlBixk94UOuJGsDJpvzcA/MI4l96ytTq8g6rIq41nk2cQ/rja00PZji7vWs8r654DuVVu464jspQtW5/rykr+CUPurz/oy5jnl8d7uWrTN4FXc2QkFQbl3VkH87SdnDt/qi0UrWjRpbzcIyYb4kp/KMfiloQjQpRUgH8IscLq/yR5okXWY4ciOLu/wVgCsP9z3DuVU3Lj1dVKoJq8rhFX5fSsFbs+ypLCGsiSpSkjMHPIZEAefiixrBvamYg2xK3NS0KaQ/mh1hZBUy6nYpBI4eUHjBByGeUbTW41pdeALznestDgR+/GYr3AeSlqfKXrJyiNDMveFRYbSCckoQGwkAfJGuq2i+g5zGXSCMZJmd2OmqlTdVbVAc6QeqIVoQhESnMVLGpt0uWdVaz2DU0b3pTMsrbbdK8tOhZGk8I48tvHkcqDKb6khgmNFbc9rOkYUtis6/jzb9BuGp0BNr3JUu1C22puZkJNLrSHVjNKSSsZcChmcsyk5ZgZxZTTrbzaHmXEuNuJCkLScwoHaCCOER1w3Pk7NTl8V2sOuBa7mknKuMwBvSuzXWznkMs/hHMZDbllF6w2enUZUqVBIaBhliT3AqraazmOYxhifHcpandV4a5ZOyNeZWCQpC5RvUkg8BycMfvvqsMfi9b+aI+3FkTFKptQSkTsiw+lACip9pKtI27TmDt2nIcWefHGpmLFsipvl9yx6CsjvUKcprKlKPHmSnb/htje1thObHfq/paibSMnDh/ahvvqsMfi9b+aI+3Hw9ursNG0hSJCvOnPLSiVaB+Xa4ImrmG+HcuyJZFi26t47VLNKYOnz/AAf0CMqVtC1JEJeZtGkNEgMsNokmk7PPknzCEWCJDHcf6SbVMFw4KBym6ftKqZootn3bPOjgQzJNK4OH4LhPB5ondgX/ACGIFPnJ2UpdQpztPm1SczKzzQbdQ4EhXACeJXHkcwdnATsiy3LsdjNqDTSs1LUhOQJ48hycQ5TEJwfO91/ECV3vSE3Et5PyLQkgZfIB+mNdWnZ30XPpMiI3zvhTpvqtqNa90z1QrMhCIyvEezmLofs+dq6ZOpsJQre5pBaS4FJKs0KVkFABJzI2cXDHOZTdUm6JhXHPazpGFJoq2+MYqxS69M2tYNkzty1CnhJnnWkrLMuVAEIzSDmrIjPaMs8tpBAtKKls9bdu4wXzajLq0SdRQxXm2s8zviwA+Qc8++WsbMsgBkMuO1YmMcXOe29AmPzA3dq0WlzmhoaYk5/kVlrxpqrKEKewdvjNez8HT98GfGMwf2R+NY2VJ53eUYO35q/4qYUgfKSchFhthYUlJ2PFOwfisp/bHE86Mw22SGjmVqz75ez+wxtBoEwKfvKgeVGN/wBwVfLxwqQTmjBu/SojvQaUoAni2xwd3K4s8u4je2z/APoufYiyStaXEr+E+4PwaPxW08uUfqClzUlK8mEHU64TtcP7IzNnH+37ysf/ACn7fuCgTWMdeUwXn8Gr1Rs1AIkwo5ZchIOfmyiZWfd9IveiN12jb+hpS1suMzCNDzDqTkptxOZyUOTPjEZ6HitQdAOa+9ZRxafyjFYYY1Oj2tcmJdNqM7KyUpIVlFRcm33ktMpTMoJyJVkE5FB48tuyNdSnSfSe9rbpbBzOUwc+1SbUcx7Q50gz8JVh4K+Juw+jNL9FbjksjwmxB6Rs/VFPjAwEq9JrGC9kO0iqSk8hi3qaw6qWfS6EOJlmwpCiknJQOwg7RGfZHhNiD0jZ+qKfFFpBBIVmQYISp+Ny2ujlb9JpkS+IhU/G5bXRyt+k0yJfGXZBBmUhCERUkhCEEXVv+Ei/izzX8+03+8Meaceln8JF/Fnmv59pv94Y804+aeWf1xn4f3XyH5QPr9P8P7pCEWG/gLiSbfpdx0ehuVmVqdMlaoUU9KnXWETM07LMNqRkFKWtxo5BAVsI88eUp0alaeTaTGi8RSs9WvPJNJjExjgorc943JeS6Y5clR7MVRqZLUaR/BIb3qTYTpab7xI1aQT3xzUeMmOSgXvcls0avW/Rp9LMhc0s3KVNlTKFh5tDgcRkVAlJChsIyO0xLqNgbdlOxas/DfE6gVS3hc1Qk2CVJSlwy7zqUKW2o6k6gCRtz0nhHFGgqOGd2i/6hh/b9u1arVGVnJhhhiXk3HHnm2nFI3wISM9PeklXANu2N5pWpp5Qg3pu75mMtcQVZdQtjDyrg68SW770xlriDHXktZaF43NYVwSt02hV3qZVJPVvMw0EkgKSUqSUqBSpJBIIIIIPBEmurHrFy8001uuXnMJao80mekWZCXZkGmJlJzQ+ESyG0lxJ+CsgqGZyIzMRe6LQuqyKoaJeFuVKiz4Tr7Hn5ZbC1IzIC0hQGpJIOShmDlsMZsphtiBPOtsS9mVjW9T3qqyHJNbe/SjSNbjyNQGtITtzTnnmAMyREWPtTAaLC4DeBOfWFGm+2U2mz0y4CcWic+sa5KbTe6ux/m2JpoYguSi50ZTEzIU6Tk5l3zqfZaS6T59WcY1rbp7HWzKO1QqDfz6ZRh52YZ7Kk5abcacdUVOKQ6+2taSpRUTkrhJPCTEdOD2KqbXfvV3Du4WaDLsJmV1B6nuNsFlWWTiVKACk7QdScxltjXe4C+vcwq9vcZXPc8nLOrdr3uwxmrQPw2nR8IhPDwkDhMbzadoNdeL3zE5uy7lYNr2o1weX1JiZl0xvPZ7lt7exkxAtq46peclWG5i46qnJysT8s3NzjKsxm4y46lRbWU97qTtCTkMshli2vifd9pXTN3vITrE5X5tC/wD4jU5ZuefadUtKi+gvhWT2acg5tUApXLEzGB0u/Q8LazKLuCZRfjM2JwSEgibcYfbm1stpaQpbSTqG9jJbg26jnwJivLcsa9rxfmJW0bPrdcelADMN02nuzSmgSQNQbSSnaDw8kRe22Ui0SZzEHeQHSOuCMe5Re230XMBLpzbBJxIDpHXBBnPgsKuV2tXLVpmu3DVZupVGcXvkxNTTynXXVZZZqUoknYAPMABGDE0omC2K9xpljQ7BrE6qanpinIbalyXETDAQXkuI+E2Eb6jNSwlOZyzzByj1z2xcFmV6cti6qTMUyq09ze5mVmE6VtkgEfKCCCCNhBBBIIMVqlKsBylRpg7yDnnn71Uq0K7RytVpgnMg4k45671rIyqF4W2x/P1P9IRGLGVQvC22P5+p/pCI2WL6zT7R8Vs2f9bp/iHxXuNCEI+4r9HpCEIIohil4MyXSO3/AK3lIl8RDFLwZkukdv8A1vKRJalVKZRpJ2pVioysjKMDU7MTLyWm0DlUpRAH54kcG+OpRmCSVTtn39bFg4LWBO3LOOMpmrfprUuhthbqnViVbOkBIOR+XKMVe6B7YS65i0sMLvrLaFhsuJkilGrLMjNOs7ARxcY5RnEp6boVxbmzDw0yek559pqgyrL0s+lxUvMb02lQGk/DA1Ap4f0RfjylNqUhtQ35z4a8tiE8X/bli9RbQFFtRzbxJO/DCNO3VVXvqPeQx0ARkJzVNI3Qd+uFwN4B19RaOTmTrx0HkP8Am2yNjI4237MpCpjAa5Wu+yIClk5bNoCmkk8PyeeLNWtKUoIT+DSTob4dauU/n/rjlbD2pTe+AvK2uucTY5BG5z7NEiiB+bu/xkoNbWnGoeA7lXszi7eDLKXEYKXOsrGaRmnLi4cgSn84jiZxkvNWfZGB90o/J0DVny8KRFjF1C9KWkam0K0tpz/0ixx/IOWPtIXqU2lebpH4V3iSOQRqvUQMaQ4u7/GSnFUnB54DuVRVHdBVunVh6WmsNJ+Rk5OXRNzAqD/Y80WCsJW622UkOBJPAFHgPBtyuZh9qZYbmWFhbTqAtChwKSRmD+iKX3RFIplak7VS+0lBduCXpocSdLxYdSsOgHhyOlP54ueWlmZOWalJZGhphCW205k5JAyAzO3gELYyiKVN9Nt0mZz3RqlndUNR7XmQIXJCNXc9yUy0aJM3BWC+JOUSFOlllTqgCQM8kjg28PAOOMa1r6tG9ZdUza9elp9KPhoQSlxPBtKFAKA2jaRFEUnlnKAGNdytF7Q64Tiv29rukLEteeuqqS8w/LSIb1tsBJWorcShOWogcKxnt4M+HgiGu4x18HKXwbvFen4euXSnT+gmObdFeJu4P+U9KZiZsTJdYaQpopCUJK0DMFbhGZTt28PDF2hTpigKjm3iSRmRgA3TtVaq95qljXQIG7We5V65i5iMW21y+BdYUpzalLk+lGYyz/kyfzZRq5jGjFhDrgRgVUkJbORCn3F5f+oNAGLbddVKhTzpC5hQ28iByfvwx+MJyZ7ImVEtg6kjjcUeMj9GQja19AC8aQ4u71AtqkwKh4DuVPO424uMZLcwLqZSvIICA8pRO0ngbOzLzf2x+M49YnhSi/gJXVpSNoQmYSQfOSwYuULcDg1JBmXR3o4Q0mOLXvxMs0fwLW1xw7dSv8YkKlnOdEcXd/DVRuVhlUPAdyrqn48vCdp0rc+GlyUJqpTjci3MTDOSA64ck/DCSRlmSQCcgcgcotiKc3QEy3KU20skf5z7p5N5IO0BKUufC85JH7iLjiva6dMMZUptiZ3zl2rdZ3vLnMeZiPekI1lyXFS7To0xX6yt5EnKgF1TTK3SkEgZ6UgnLbtPAI+6NcFDuKUTPUGryk+wpIVrl3krABzyzy4DsIyO3MEcUUrjrt+MNVYvNm7OK+63WqZbtKma3WZnseSk0b4+7oUvQnlySCT+YRXMrj1J11Thsyw7nrzCFb32QxKhDRVnl8JR2bNu0cYzyjO3Qin0YPXCZdS0q0S4JQSDpMy0FDZxac8/NnEpoj0m5RJByjMoZZmZVp1pITpSwypIKRlxZA/4xdo06Qocq9skkjOAIAOMduqr1HvNW40wAAcscZ7lApnGW+5UKLuBtwEIBUotvb5l/RbO3zcMaSf3TNTpes1PCOuSe9gle/uKb0gHLM6mhlti4nnAgNsIBDYIOn8Zzb/if07Y5StwKKFLAdUNTihwNI5I3NdZhi6iP1O7ytRbWOVT3BUO1uv6SVgPWRNpRxlM6lRH5tA/tjY03dV0aqzaZKSsWuTLqgSG5bQ64QBnmEjhi4HJKRcImZiSZUE/6NKmwVLI/GJIjklZdMs2pDSW2nXe/cKUhIbHyfm/fKJOqWKMKP8AyKw1lpnGp/xCr2i7omyJ+omjV2UqtvTyHt4W1UpUpCFnPSFFOekkflAcfFtiWL8clt9Ga76VSoq7G6kUCdvqw5fsJKZ+rVRmXmChWlb0ih1vMOjj2kFOf5J4eK0V+OS2+jNd9KpUV7bSosaypSBF6cDjkYwW6zVKjnOa8zC2WKXgzJdI7f8AreUiXxEMUvBmS6R2/wDW8pEvikeiPGisDpFRDB7xR2R0cpvozcS+Ihg94o7I6OU30ZuJfB/SKN6ISIhZHhNiD0jZ+qKfEviIWR4TYg9I2fqinwbkUOYWDc3jdtXo3XfSqVFV7n0liv4hKeUXnE1rSABlrXre25cX+EWpc3jdtXo3XfSqVEAwwkRT8VcUZWTTmt2dkngspACN9Dzij+lX54v2Jw5Gs06D/wDod6q2kHlKZ6z8CrOSEpUp+bX33ArLjP5Kf8f+8fjhU68lS2wpZGlLQ/FHJ+0/mj6OnNOglagrJGfGeUebk/SY5UtpkwG2yFPucZ/FHGfk/tiBdGO/xwUonsXG4AylaVOnWci+7yD8kR9toCEibeby0jJlr8kcX54+kIQUh91YLLffJJ/GP5R/wjGddmJpzvBsVsQk8OXKf3//AHhsvw4n9vGQWT6OPBcjZL7ynHM0nTkteeQQnkHn/wAPligLMxLu613bskrbwxqdwicuqfmOyZUOby0pRQC2dKFZEAA7SNihyRf2TSEhRzLKVE6QMy6vl+SILgY0GJe92QCA3edSSMzmdgaEWqb2MpPc5t4YYYjf1LQ9rnVGhroOOKw6Xiji1Nth2YwKnQgqIz7ZoaUP/Q4gHh44xK9dd0Xa23TK1udZ2oyx2nsucaSUK2HvSU7Noyz1DMDz5RccVnfdqYq3vWl0eSuOUt61UqQFuyjizOzSdIKuAAJGZKctQHLqEaqFai+pNxrY3y79jJPYp1adRrIvF3VDe5UKze9+2TcszQbOplUlpd1K21W/MzQqKmU6QDlpGpsgAZAjMADMqET7AZLbtzU/sQ/gm7PZDqtuSF9lrJBz8+Zy/wAIuW1cPrUsujGi27S0SzbjZbefyCn3sxtUtZ2qO0nkHAABsijdzgqZXXqtKOpLDtKp7VOmUqRl+ETMOkHI7cgMs88jmOCOpzmna6NU02xEY654nP4ntVHkH2eowPMzOGmWXgLsGrTMHTmpLKCCeVRP9qj/AFf2c5IlRq0guqGlCBwJHJ+/CY+QlLOghGa8jvaDxcqlR8tIMw6XSVaAO+Udmf7P8Bs4c44pII6l0xh2r8Zl0gl95XeDatSvxj+z9+CP1RLiluuHSRsIz2pTxJHnPHH666HikpADSdqSeD/zHzDi5THCtSHUgpaKm0nvE8a1H99v/eMgFxkrBIGAX42C86HHGwQT3jYOxZGwHzJEUAzXcV6fiFiBKYa27LT7qqi05OuvFGbQ0qS2EpUtIOffHjOQ2gbY7EoQ4ykJGSph3hPEkfsEVdhEUHFLFIIc1gT0knPVntAfB/PnFuz1gxlV90EADA5dIKvVplzmNkiScR2FQ9nEDdQUt1Bn7HM9pOkt9rtSVgcJKmlDI8GXEczyQxFvKi3PQ2GMWsILjpU4JdS2KhKNBZYO0EpUoo2ZkEtrOzPbtyJ7GRVt9YXXLifdG8XPXBI2jIBKpWTkXDvs04QNS3dQ0gg5gbFZDgyJUTmhbKL6oc9gZGMtkH8gM1irZqrWFrXF07jBH5qhbIxvvi0akKRQp2buOmqXol5WeYIeXnqI0hKllJKl5kBSs8gItCh3C9Ud0iZtdMmJF+Yt9tD0nMZb40tTaHQhWkkAjNPDwcYBi17Rw3smxUq9zFvy8o6sZLfJU48ocm+LJVl5gcvNFcWxSJua3Sd7VctJV2FISzKVgHJtTrLGhWfLobWMuPM5cEWTa7PaX1H02XYYcciZIGIGC0iz1qDWNe6fSGGmBVuLOaVJ3wKzzU4riUfP/wAI4PPwcsfDYG9CYcaKiVfg0HhWrl/f/AR9lDOkhR/zdojUf5RQ4vkEH3lIHAEPrT3g/k0eeOWDuHjxv0CvHUr5IJC0qUFOKP4VfFs4vkH9Zg6EqKUFOTaVbGxwrPn8/LyCPwqUynIklZOzIfBJ/wDy5Bxf2/qGRmWlAFWnvtuxPm/aeOM5YrGeC/UpW+vJJ0oVtcWNmaeQcg5P0/L5KbuG8q3XcbK3THJp5FKbmCplhKlBt0tqWyhwp4CQhOkZjZmrLhMetwCSzqUT2OnaTxun9kdYJLc0Ya4/yd5SOIlPmmpyn3PNtyk7IOhqalDn36UrIUlSScs0qSoZpB4Yp7Rsr7Zs+qykYPo/njkfceqAuXtayVLZTbRpHE48F5xYQ44Ym4F12YuHDO5XKXMzjBl5ltTSHmH0Z5jW0sFJIO0KyzGZyO052jIfwgO6gpk3Up2TvSnodq00mcmiaNKnW6GWmQQCjZ+DZbGQ5M+EmPQXcgbl3CjCGzqHiJbtPnJy5LjocnMzNRqLyXXGQ+yhxbTISlKW0ajyFRAAKjFwWR4TYg9I2fqinx5qy7HtbKccsW9QmPiFRsuw7bSphprlnUJIHvC8mnf4QHdQP1qVuBy9KeZ2SlZiTZX2mlcktPLaW4MtGRzLDW3iyPKYzf8AKM7q/nxTvoSU+7j1Yqfjctro5W/SaZEvjedlWqB/9l3v/krI2NbMf/tu4H+S8eP8ozur+fFO+hJT7uH+UZ3V/PinfQkp93HsPCMfNdq+8u9/8ln5mtn3t3A/yXjx/lGd1fz4p30JKfdw/wAozur+fFO+hJT7uPYeEPmu1feXe/8AknzNbPvbuB/kvE3ErdhY8Y0W2mx8QLnk56kOzbMyplqmS7Ci42rNJ1IQDw8WcaGPSz+Ei/izzX8+03+8MeaceH8qKD7PaGMqPLzGZ/7K+ceWVmqWW1MZVqF5jM/DMpHcR7GGjW3uc51izsQpSn3MbFtqnsIk6ghE4l1FUneymkBJ1pWlpzNQGSglYVsBBjp3COLY7c+xXywYuBHZIiQvP7P2jU2dfNMYuaWzpIIkdYldp8MscKtaNv4HyVKxDbkhM3PUJe6kLmW1KEkuflV5zJXmUIKXHlBRy2FZB2GJ3Y+McpVKljGxM3raU7eEzV106jvXjVlMU56hImXimXZeSpOaQVrO9hSQoKQcyBkOjsIu0dt16V0ZgYRJ9W7/AH2roUPKO00LoiQBESfUuYaHf2ruiKvaFw3xb0rd1+4OOvWDb1RmqJSKUpcrbzNQW4z2MhyaeWeyRmpTqm28siyAArUqLJw1xDoUtSbSrFfxgN3TErf81LVu4qiveaeh+Zok4oy0opzTolUrSyBsSlS8ykAEAee9uUqQrdZlqZUrikaHLPkhc/PIeWyzkkkagyha9pAAySdpGeQzIte+qth/aeBEphLbF+yt21abus3DOzEjJTDEtKNtyhYQ0FPoQXFKKyrNIyGRBy2Z37Jth7b1e6BGPSxJEQImTkBMYCYgSunYdvPZetJa0AY9LEkXboiZOQEwQBMQJWptfEut4hYr0l7GPECrP0Gs1aXTXd/nXEy65QvJUptSEqCUNbBsSAEDaAMhHYt7EqQpLuJFUuvHiiTtaqVvT7VpUKgVPfaPSGGBvssEqySz2RqZaQ2hAKzkScyvIdIYRy7NtWrZwZF4kzJJ0j88zGhJK4tk21WsrTIvEmZJM4iMccYkkTkSSu5lH3Q1frUruf5i68VELTN1aeXdqXZ1ppADNRQqWVNpGSUBKEoUkqA2DPlMaa53UXdZdrW9hDjfZtnW/TFTr9YYm7i7WTT1SM24pUy4gfhH0FtLRaKQogbABsEdTIRtO2qlRpbVEyAJkzgGjPruydZK3u8oK1VpZWF6QBN4zgGjPrLZOpJXbPdG7oGRubDOXp+G+Ic0pE9cD7FU3p3sWaqTTEhKsiZeaBCw06tLigFZBXGNSchS2O9Qo9UrVpztJqMpOqNk2+1OOS7yXCJpuRbbcQ4Uk5OJ0BKgdoyyMVrCK1s2lVtpcagzj8onLtlVLdtettAuNUdK7rAicp1lIwKxUpujNytYp7gRNSM2zMsKKQoJcQoKScjsO0DZGfGVQvC22P5+p/pCIr2MTaGAahVLAJtVMDUfFT//ACjO6v58U76ElPu4f5RndX8+Kd9CSn3cew8I+rfNdq+8u9/8l9t+ZrZ97dwP8l48f5RndX8+Kd9CSn3cP8ozur+fFO+hJT7uPYeEPmu1feXe/wDknzNbPvbuB/kvGur/AMIDuoK5KNyVSvSnuNNzUtOJAo0qnJ1h5DzRzCOJxtBy48sjsiA4x7pTGPHpuny+Jd2KqErSypUtKsy7csyFq4VqQ2AFLy2BRzIGYGWZz9o8UvBmS6R2/wDW8pEZx53NGFe6LpUpT8QabNJmqeVdhVOnuhmblgr4SUqKVJUk5A6VpUMxnlntjXaNkWp9Ijly7qMx8T8FXtOw7ZUpubzgu6jMH3n4LyY3JFbrElj3ZdEkpqY7Aq9bk2Z6VS4oNvIS5mFKSDkSnaQeEZnlMeyKwkuOZKKGkK75ee1SuPL+zzbY6eYf7mjDbBqwMPMV7al5yYrVQnaJUKlP1B3fSy06hLikNhCUpbbCyni1EZAqOQz7jTKjvgDiATq/AtflH8o+aO5six1rFY2squmS4xplh++mKt7HsdSw0nUqxxkHiuNjfFafwaQ6R3ictjaeIn/AR9PlJR2MznoXnqUNpUeP+v8AfIGPxX4BKkFeZUdTq/yj+SOQcsfiEutgOfCfd/0aOAJHLlxbI6OZvcF18hC/QlxCgw1lv5TkSOBpHIPPBYKspSUVklO1SuH5Sf32nzCP1wpbR2K0oqdWe/VntJ49vF/gI+XU60mVltgVtUvlHL8kBjB8dvch8d3eqh3Q84JCStOdk5dycXLXBLupYaSS48pIUQkbOE5ZAeeNO/ur5rfnmW7HYkjL/DTPVJSXDs4AkNZ5jI7NvCIlmNrechZrUsgrSbwpwzAzUtRDsWw4ww6pC3WULU2c0FSQSk8o5OCLz61CnRp8rTvZ7439SqtpVX1Hcm+7lulUZa+6Pue5XVNU/CSo1FOagHpB9a0ZjgzJaASM+MkZckRS/pxFLS9eLOF1bsSsJ2M1GSqDbLbiiQSFtDSF58YSM1ZnMx2Lut25maBNrs+UlJmraQJdE24UNZkgFRy4chmctmeXDFHN4DYoXrXm6/iVezDZRsSmV/CuNJzBAaGkIaOf4ycyCM9sbLJXs141YDG6XnEn8tO0KNopV4DJLj2AAfmoLO4yXddGFtxWfdki/OvNplVIqWgILYEw0pLboAAJIScjwnI555Ex2uppCKdKvrSkPKYSQCfgjIZk/wCPLFM4+Wpb9jYO9qbbprUs0/U5cPrOanXlBKzrWs7VKzHCeU5ZRcaGN5SJVbpzQhIUrPY2gDIfKf2xG1vpV6TXUm3WlzsPybwWbO2pSqFtQyQB+6+wyh5ZmHzkyg57eFxXn/sy/NHI66pKgtSQp47GmuJHIT54/M15JcCNPEy3l8EflEcsfqgJdJGv8MoEk8OkcZ+X9+ARzyZOPjxv4K1EDDx43LiXvjOTLZC33P8ASLJ4TyfIOOORCUNIbSwNe0lCT+Or8s+aPhttGkurGoLOSUjhV/wj/E//ALj6cVvSHVk6lcCyDlqI/FHIBxxI44Dx48dQYY+PHjtqHdOO7zZFI0oU6W7gllOKSM1LVvLxyA49n+Eb5vHmWJDT2F1/pf1aS2mjhW3PLL4YOf5o1e6Jl1u2LSllJUo1uV3pGWaiSF7cuXbl+eLlixWfSZZqYe29i7fGi002vdWeWujAbu1Vm5i9cswytVGwYu95zaUJnGUyqSM8tpOog+bIxUF5T9WU1N3ZRcKrpsKryml96dkVKTKOAav9KnS2k56tqgCdpzBzyPZi5HLjao0wu05aQfqmQDCJ5akM55jMq0jM5DM5DLPlEV8cFZy66mis4r3bMV4oIW1S5UKl5FhWW0BIUSr/AM3ek8ecZsdpoUpeWho7XEnqiYjtWLRRq1PRBJ/IAD88+CqV3Ga8L4wmuel3NRhMty8uwntswgNJKy+2AhxPwSs5595lsBOnZnHY+gy6JShyEo2lITKyrKFH8TUEAZ+cDgAirt06xK2/hRT6LRZBiTkVVRlgNMtpQ2hAbdXkAOAlSQeDlz4YuBtpcvKstTCQosoShDaTnrWBln8kTtNSnUotfSbdDnOw7Lo8bgo0WPZUc17pIAx4r5AcBS4U65hw/g0q/FH5Rj7QlCWytxX4FB1LWeF1X7M4/EoIUsOu9+Rm+4OBI4kiPtSkb2H3UlLKMt7b41Hi2f2CKBO7x+X7cVaA3+PH/S+RvinBOOJOpeSWWj/af7Y/WlJWFOLWN6Qc1ry/0iv2CONRdWvU7kFEd+eJCeQf4/ogNTiWyhr8Ek5Mtn8c/lHzRm7h48eJScfHjxCoDFOfnprHO3qi4stMUSbpLaWdOZUh59SlK8ytgGXJxjLbda/HJbfRmu+lUqKaxzpM7KYi23VpJvWxVlydPdmCTkiZbmg4lQOXekpJAy4grki5V+OS2+jNd9KpUWdowaNEt0P7fvK02OeUqA6rZYpeDMl0jt/63lIl8RDFLwZkukdv/W8pEvjlnojxoro6RUQwe8UdkdHKb6M3EviIYPeKOyOjlN9GbiXwf0ijeiEiIWR4TYg9I2fqinxL4iFkeE2IPSNn6op8G5FDmFg3N43bV6N130qlRUbE/iDYuKN4PN2BV6wzcsy0qVdlNjZbbzCSXCCE964AcyMjs+S3Lm8btq9G676VSokUb7Naeb3paHAiMe2fiFqrUeViDBH/AEqwbvzElpwuJwRqROnSjOqy+zl/OTHC7f2KwP4LA6cc1/6RS60wkq/4QAk5CLVhGznbM+SHF38lHm7vXPu7lUk1f+Mjy0FrAxxKEfiLrLSgTxHYkRwC+sbQlQ7ip1OKzWrts3mRyDki4oRIW1gECk3/AJfyWDZnEzyh93cqfmMRcYJaRefVghMiaSnKX0VBDzaTlxoSNRyA4jtPJElwXtSt2pZmm5s+3NVnX6nUM1alb86R8IgkFWlKScshnn8pncIhVtfKUzTawNnOJ3dpKlTs9x19zieH7BIQhFNWEiiJO2sR8PcQruqVo4dN1yUrky3Nyswuosy6G/hrUNKjme/dIy2fA2Zggi94RZs9pdZ7wABDhBBnt3ELTWoCtBJgjxvlUlNVDdPz2aWrRtyRD2WpW/pWpA2bCd9I2eYfpj4Wxuplthsi29A/FBQM/NF4Qix84kZU2cP7WnmY9d3H+lTEqd02yf8AOaXak0k/C1uKSeHi0qABA2DZs5M9sbVFdx2lHA47hnRJve2skpl6ulsA8eWvly4+UbeGLShEXW69nTbwI+BUhZbuTz7u5VQm/wDGFClJewPmA4pQDjrdbYOQHDpGnL+uM7Bq3Lgpbl0V646Gqkv16rKmmpVx5DriWgNhUpBy4VKGWw7CcsiIsmEQfbL1M02MDZiYnd2krLbPdeHucTGsfsEhCEU1ZSKhv2ycRqZf68RsNVyrqJqUbaqlOcfKFThbzHARp+AEJBzCgfMTFvQjfZ67rO680AzgQcitVWkKzYKpGq47XNR5lLNUwXr7G8gb2krJRmRmCFBshX5jxHjjUr3TT6XQw5hnVg+pY1gvd8o8QA3vZxZfmjsJCLjbbZwMaP8AyKrus1Y5VPcFRcluh5195R7klxFTac2kNJU5lyk94OPLbGzlcYbimUIQ1greSkr/AAji1Sqkhz85SBlti4YRE2yhupf8isiz1d9T3BU9XL/xkqkolNpYSTsk+taUsuz77WlAyzJU2SnI8QJOQ+XZEgwgw/rdlylXqdz1JqarFxThn5xLGYaaWcyQBwZ6lKzIA4htAEWDCNVS2XqfJMYGg5xMn8yStjLPdfyjnEnxotPgr4m7D6M0v0VuOSyPCbEHpGz9UU+OPBXxN2H0ZpforcclkeE2IPSNn6op8VW5FbjmEqfjctro5W/SaZEviIVPxuW10crfpNMiXwdkEGZSEIRFSSEIQRdfd3Lh3euKGA79qWBb71Zq66tJTCJVpxCFFttZUo6lqSkZDlMdA/el7qryG1P6Sk/vY9foRxdo7Cs21Kgq1yZAjArz21vJqx7ZrCtaCZAjAwvIH3pe6q8htT+kpP72HvS91V5Dan9JSf3sev0I5/mfs/V3H+ly/MPZeruP9LyB96XuqvIbU/pKT+9h70vdVeQ2p/SUn97Hr9CHmfs/V3H+k8w9l6u4/wBLyB96XuqvIbU/pKT+9h70vdVeQ2p/SUn97Hr9CHmfs/V3H+k8w9l6u4/0vG+k7m3dLVyaqMpTsD64pdKmTKTJceZaRvoGZCFrUEugZjMoKgDszzjZe9L3VXkNqf0lJ/ex3/3OEh2Jixjy/wBpKlJdlXe05v00vNua/wA2SNbI3tOSeLhXt4+KL/i9tHyF2bYrQaLHOIhpzH2mh27tWqj5DbMqMvG9v36GNF5A+9L3VXkNqf0lJ/ew96XuqvIbU/pKT+9j1+hFHzP2fq7j/S2+Yey9Xcf6XkD70vdVeQ2p/SUn97D3pe6q8htT+kpP72PX6EPM/Z+ruP8ASeYey9Xcf6XkD70vdVeQ2p/SUn97GbQNyZun27moU5P4MVKWlZKqyc0+72dKL0NtvJUo6UuZnIA7ACY9cYROn5J2Gk8PaXSOv+lOl5D7NovFRhdIxz/pIQhHp17JIQhBFEMUvBmS6R2/9bykS+Ihil4MyXSO3/reUiXxI9EeNFEdIrrdV7Pr96bmmxJC3da5iTpVHnXGG3NDj7SJMApRxFQKgoA8aeXKPm0cUsVHuzac3h/PXPMSG9siddR2rdR3u1DzawpO+g8IQcvl4TZGDniisfo3TPRW4mEXKNtFOjyL2Bw3T/WO7XtlV6lmv1OUa4jVU49c+6BWhtUhg/T2xkFHsirMuEn5A4nL5OXhjUzNa3WLzinGrKo0upWX+jdlzkAOAa3zs44vmETG0AP9pnAn91E2Sf8Acd7u5dcQjdcBOntVL5Zknv6ftz5e/wBsZMjcG6okXSies2VnmyrJ1KwwnWM9oCm3ABs2AjMeYx2FhGw7ULulSZwPeoCwgZVHcf6XX5+mYt4i4kWtMXBZa7eoVvTyJxKN/S4kFJDmalg/hFEthIyTs1HgzJjsDCEU7TaTaLougADIcd8qzRoijOMk6pCEIrLcq+x2tGrXph1OUmhSXZc+2+zMMM60pKtK8lZFWQz0lR4RnweYx2bxGxbadS1L4FzmlCytZXUkub4eI5pRkPkzP9UXHCLtG2cnTFNzA4AkiZ3xoRoq1Sz3332uIJ7N3aFRLmKOOcs6p5zBh1a3PglO+LCcvMnPKPtnFfFYK/zrAmrupVtXpecSVn5d6OQ80XnCN3P6fsRxd3rXzV/tDwHcqoZxbuxXfzGCl2NLIKRvbQWGxxacwM+L9xHA9jBWUuAnBi+XVNnLSaaoJHyEA5j+2LehGsWukP8AaHEqZs9Q/b9wVE3HUL9xVcpNJGF1YpUq3WJSccm551LQaYQe/wC8UAc8lZ7MyctgJ2Re0IRptFo5cNaGhoG4T+62UqPJEkmSUhCEVluUYxKspOINmz9rmdMouZCVtO6cwlxCgpOocacxkctuUVla97Yw2/NVSz6hYT10ztDLbDM+0+JVK2SO8JUsEKJSAcxt/K27YvSEW6Nr5KmaT2hwzx3HDTHdkq9Sz33h7SQfGqq4XdjLrAXgcFMpOpKPdLK5lXKo5bdvmEYE9fuN8qvfH8FNSyMmy1VW3QjPjyRnt2cfmi4IRMWxgMmk3/l/JRNmcftn3dyoRzGHFeX0suYE1lYOSlaUPr1ZcGZS0R+aMuRxnxRmlrZdwHrwcdISHM3mkoRmBkNbIGf/AKh/VF4QjabdROdEcXd6gLLUH+4eA7l18u2bxMxaap1r0bDyoW23IVRqYm6hPqTmy4jPStsqCSQAdWaNp2AbDtt1fjktvozXfSqVEmiMr8clt9Ga76VSorWi08uGtDQAJ9+eJW6jQ5IkkyT+y2WKXgzJdI7f+t5SJfEQxS8GZLpHb/1vKRL4rnojxoto6RUQwe8UdkdHKb6M3EviIYPeKOyOjlN9GbiXwf0ijeiEiIWR4TYg9I2fqinxL4iFkeE2IPSNn6op8G5FDmFg3N43bV6N130qlRIojtzeN21ejdd9KpUSKIqSQhCCJCEIIkIQgiQhCCJCEIIkIQgiQhCCJCEIIkIQgiQhCCJCEIIkIQgiQhCCLT4K+Juw+jNL9FbjksjwmxB6Rs/VFPjjwV8Tdh9GaX6K3HJZHhNiD0jZ+qKfEm5FROYSp+Ny2ujlb9JpkS+IhU/G5bXRyt+k0yJfB2QQZlIQhEVJIQhBF1Z/hI6jUKVuaX56lVCZkplFepyUPyzymnEhS1JVkpJBGYJGw8BMeZXbm7eft1/TUx9qPS3+Ey/ivzP8/wBM/vTHnTZ9g3pf867T7Mtqfq7sukOPmXaJQwgnIKdWe9bTnszUQI/SvyTMso8nn1rSGwKjsXRAwbvK+aeWVa007bTZZ3EEjITjwWo7c3bz9uv6amPtQ7c3bz9uv6amPtRm3Ra1wWVXpu2LqpT9NqkipKZiWeA1I1JCknZmCClSVAg5EEEcMaqPq1OyWKqwVKbGlpEggAgg5EHReLdtC2sJa6o4EdZWR25u3n7df01Mfah25u3n7df01MfajHhEuYWX2beAWPnK2e1dxKyO3N28/br+mpj7UO3N28/br+mpj7UY8Icwsvs28AnzlbPau4lfMo9WpB6ZmZG7bil3pxzfZlxqqvIU8vLLUshWajlszMZXbm7eft1/TUx9qJDL4VYoTdMFalcN7pep6m99E23R5hTJRlnq1hGnLLjzyiLcGwxrp0bBaCbjWOIziDHapOttupxee4T1lZHbm7eft1/TUx9qHbm7eft1/TUx9qM6k2rcFdpNZrtJpjkzI2+w3M1J5KkgS7TjqWkKIJzOa1pGQBPCeAEj9FpXEq0lX2KW52hRUU0lU7qToE2Wi6Gss9WehJVnll54iaGzwS0tZIIG7MgEDtIIIGcELIttvIkPdlOZy17Fgdubt5+3X9NTH2odubt5+3X9NTH2ox4Ru5hZfZt4BQ+crZ7V3ErI7c3bz9uv6amPtRmW/cF2MXZbaVXtcj7b9bkGHWn6s+4haFPoCkqSVZEEZgg7MjGrjIo3hba3SCm+kIitbbDZm2aoRTbN07hordgt9qfaqbXVCQSN51Xu3CEI/Da+6pCEIIohil4MyXSO3/reUiXxEMUvBmS6R2/9bykS+JHojxoojpFVpg54orH6N0z0VuJhEPwc8UVj9G6Z6K3EwiKkkIQgiQhCCJCEIIkIQgiQhCCJCEIIkIQgiQhCCJCEIIkIQgiQhCCJCEIIkRlfjktvozXfSqVEmiMr8clt9Ga76VSoItlil4MyXSO3/reUiXxEMUvBmS6R2/8AW8pEviR6I8aKI6RUQwe8UdkdHKb6M3EviIYPeKOyOjlN9GbiXwf0ijeiEiIWR4TYg9I2fqinxL4iFkeE2IPSNn6op8G5FDmFg3N43bV6N130qlRIo0V7UC8pi76FdVpU+iz3a6m1GnzDFRqTsn/rDsm4laFNsPasuxVAggfCG2MbXjJzJszrXNezoipKTQiM68ZOZNmda5r2dDXjJzJszrXNezoIpNCIzrxk5k2Z1rmvZ0NeMnMmzOtc17Ogik0IjOvGTmTZnWua9nQ14ycybM61zXs6CKTQiM68ZOZNmda5r2dDXjJzJszrXNezoIpNCIzrxk5k2Z1rmvZ0NeMnMmzOtc17Ogik0IjOvGTmTZnWua9nQ14ycybM61zXs6CKTQiM68ZOZNmda5r2dDXjJzJszrXNezoIpNCIzrxk5k2Z1rmvZ0NeMnMmzOtc17Ogik0IjOvGTmTZnWua9nQ14ycybM61zXs6CKTQiM68ZOZNmda5r2dDXjJzJszrXNezoIpNCIzrxk5k2Z1rmvZ0NeMnMmzOtc17Ogik0IjOvGTmTZnWua9nQ14ycybM61zXs6CKTQiM68ZOZNmda5r2dDXjJzJszrXNezoIs7BXxN2H0ZpforcclkeE2IPSNn6op8Z+Htvztp2BbNq1F1lybo1Hkqe+thRLanGWUIUUEgEpJScswDlxCMCyPCbEHpGz9UU+JNyKicwlT8bltdHK36TTIl8RCp+Ny2ujlb9JpkS+DsggzKQhCIqSQhCCLqj/AAmX8V+Z/n+mf3pjp3i2zULTwFwotuhgt2/cclN3BUZlgqCKhVDMKbUh3iUqXaS0gDi1KPCc47ifwmX8V+Z/n+mf3pjoZYmP2LmG1Dctm0buVL0lx8TPYU1JS06w27+W2iYbWGzntJTlmdpj9E/JjZLTaNhU6tmDXGnXc664loPoXcw10EEyPRIw3GCPnHlfWpU7XcqyA5kSACR6QORIwMQcR+xsTcvYLzN5X7QH8TrRmHbSu6XqNHkZybcDa1vIkHXEvS6FHWsNpayDiUqQlWkZhWQjWe6jBe7agMKsNcDZSSXcM1K0amXHWKxMvT7bq30ITNuIB3pBIOam0AJBPCoDIwlGO2LPdFksVpq9J2cuamlfYk5NhLyWEqSpKkIaUC2hGS1jQlISNRyEQeWmpmSmWp2TmHGJhhaXWnWlFK21pOaVJI2gggEER9Hbse2Wm1PtVrqR6DbrWPeGteHPJJAIDsCwSQA6D6IXkDbqFKi2jQbOJkua0ktIaMDBj7WWUjErtNQbE3PlYxkm9zjT8NapMdhLn6ZN3pMVl5M4zNSzay5NCWTlLJZQ42pISoHNGSirPZEnsHAXCGckrfodm27YmItUq9KbnnpyrX85IzLzymip5iXkZYFbYby+E4CoEKByyzjr5cm6Zxwuyhztu1q+nFSVTRvU92NIysq9NoyyKXnmW0uOpI2EKUQocOcaKjYu31bVlzVh2zVGqPTqgpfbB6Qlm2ZyebVl+CemUjfVtDvgEatOS1Agjg41Xyd23VowLQWu9EEcrUcCRN55d6DhMiKbYZhumW3mbU2ex8mlIxxuMBjCGx6QMR0jLsePZTC/AvCZ+h2pIUii2Lf9xV+SRMzyqzfhp65ecIUXafLycrqcWptIGbitWZOoZDICscPMI7XlcVrZRXsQbRRNKvKSkFWqyZucmCBUkMuMLcDG85BIVkouFK05bdsVzamLt9WLbU/bNm1RqjIqjilTk/JyzbdQdbKUjeeygN9S13mehKgM1KzzziOW/Xara9eptzUKa7GqVIm2Z+Te0JXvT7SwttWlQKVZKSDkQQctoMdCjsPajXWm/aTD+jiSftZh0tYMQIY0GBMg4CtU2hYyKV2kPRzwA0yiC44T6R35Lt3f+K1uWdjZWb6rm6Zva4XqRcEyti0qHKzco02GnlaJNx59aWUsjSltzQ2vWnURmTnGhpFp2TVa7RbqvrDJ6+MQMZqk/W6bbEtUHpCRpNOfmV6Zl1xka1aiHFD8VLaFKXkRt6v1irVCv1eertXmOyJ6pTLs3NO6Up3x1xRUtWSQAM1EnIADkibS26BxkkrKaw9kr9n5ahsy5k0MsobQ8mXKios9kBIe3vMkaNenLZllsis7yUr2az02WKp6cBrjPJ+iAYDTSY0wHEOI9FzgILwFtG2KdWo51dvoySBF7EkYm+TjGG8CZuldnKFbOBmGs3j3h77nrtmlUumvv1KXTUGUyq6eidbXLtS6yguocSh1kFThXnpUeOIo1V9z2rcp1VVOs++Jijs3rLvOSk1V5ZDzVQcp7qUqQ6hnJTKUgjSpOokg58Udf5jGDEKcrNzXBO17f5+8KaaTWHlSzQ7JlvwXe6QkJSfwLffJAOw7dpz08tedxStnTthMzwFEqE+xU35ctpOcw0haELCssx3rigQDkdnJGuj5JWoi/aKzi8vpOcQ98Eta0P0xwN05xAMKT9s0ejSpgNh4HojeSW/ET1yu49Qwa3JuGlbpeDt7VWRqFwtybYrpap9Zm6vMTrrWtsSZlf8AN2QCtJShSHCU6dYJ2xBL6pm57w1www5vafwmmbguG4qM5Jqp8zPvSMm09JvqbemphLRDi5hSyEFvUEZJOeRA1VsN1vuiU0VNCRiZOIaTKiSEyiUlkzu8gZBPZYb3/Mfla9XniAVu+7nuK2Lfs+r1AP0q1+y+1jW8oSpnsl3fXs1gal6l7e+Jy4so1bP8mNrtqMdtC0ucL0viq70hdfN2GMLJeWejePoiL2ABnadrWItcLNSAMejLBhi3OXOveiDjAxMxjI7HVe5sC6dg1RcXnNz5R3KlV7inpan0pM64JKXLUtLJUp9QydfQFo1pZJCQXnMzxmpMZqDR6RjDYtUoNGlKRJ3Mm1rhFPlAoMSjs22w4620FKUQjfCsgZ7AQBsAiCzN33HN2pJWRM1NS6JTpx6flZQtoybfdShLigrLUcw2nYTkMiQASc+ecu2v3deVjP3BPCaXS5+iUmVO9IRvcrLutoZR3oGelIA1HMnjJjpUth1tmtqVRUJEVQQXvd6JMsADiRLQMTnJOJla6O0GWqvTZdAMsya0YjpHDXcMuoL3EhCEfjhfa0hCEEUQxS8GZLpHb/1vKRL4iGKXgzJdI7f+t5SJfEj0R40UR0iq0wc8UVj9G6Z6K3EwiBWbQsZLStCh2r7lbMm+01Nlqfv/ALp5pvfd5aS3r09rzpz055ZnLPhMbfXjJzJszrXNezoipKTQiM68ZOZNmda5r2dDXjJzJszrXNezoIpNCIzrxk5k2Z1rmvZ0NeMnMmzOtc17Ogik0IjOvGTmTZnWua9nQ14ycybM61zXs6CKTQiM68ZOZNmda5r2dDXjJzJszrXNezoIpNCIzrxk5k2Z1rmvZ0NeMnMmzOtc17Ogik0IjOvGTmTZnWua9nQ14ycybM61zXs6CKTQiM68ZOZNmda5r2dDXjJzJszrXNezoIpNCIzrxk5k2Z1rmvZ0NeMnMmzOtc17Ogik0IjOvGTmTZnWua9nQ14ycybM61zXs6CKTQiM68ZOZNmda5r2dDXjJzJszrXNezoIpNCIzrxk5k2Z1rmvZ0NeMnMmzOtc17Ogik0IjOvGTmTZnWua9nQ14ycybM61zXs6CKTRGV+OS2+jNd9KpUNeMnMmzOtc17Oj9oFAv6av+Quq6qTb9OlKdR5+noRT6u9OuOuTD0msEhcqyEpSJVXGSSobIItjil4MyXSO3/reUiXxEMUvBmS6R2/9bykS+JHojxoojpFRDB7xR2R0cpvozcS+Ihg94o7I6OU30ZuJfB/SKN6ISIhZHhNiD0jZ+qKfEviIWR4TYg9I2fqinwbkUOYWdc9+23aE5JU+srqS5qotvPS7EhSZufcU2yWw4splm1lKUl5oZqyGaxGp7sNn/ELw6mVj1WOG5vG7avRuu+lUqJFEVJaPuw2f8QvDqZWPVYd2Gz/iF4dTKx6rG8j4deZYSFvuobSVJQCtQAKlEBI28ZJAA4yRBFpu7DZ/xC8OplY9Vh3YbP8AiF4dTKx6rG8hBFo+7DZ/xC8OplY9Vh3YbP8AiF4dTKx6rG7WtLaStaglKQSSTkAOWPxC0OIS42tK0LAUlSTmCDwEGCLS92Gz/iF4dTKx6rDuw2f8QvDqZWPVY3kIItH3YbP+IXh1MrHqsO7DZ/xC8OplY9VjeQgi0fdhs/4heHUyseqw7sNn/ELw6mVj1WN5CCLR92Gz/iF4dTKx6rDuw2f8QvDqZWPVY3kIItH3YbP+IXh1MrHqsO7DZ/xC8OplY9VjeQgi0fdhs/4heHUyseqw7sNn/ELw6mVj1WN5CCLR92Gz/iF4dTKx6rDuw2f8QvDqZWPVY3kIItH3YbP+IXh1MrHqsO7DZ/xC8OplY9VjeQgi0fdhs/4heHUyseqw7sNn/ELw6mVj1WN5CCLR92Gz/iF4dTKx6rDuw2f8QvDqZWPVY3kIIs6iVmm3FRpC4KNM9kSFTlWpyVe0KRvjLiAtCtKgFDNKgciARxiI7ZHhNiD0jZ+qKfHHgr4m7D6M0v0VuOSyPCbEHpGz9UU+JNyKicwlT8bltdHK36TTIl8RCp+Ny2ujlb9JpkS+DsggzKQhCIqSQhCCLqj/AAmX8V+Z/n+mf3pjzKj01/hMv4r8z/P9M/vTHmVH6g+Rz/QH/wDsd8Gr5X5d/XKf4f3SLHfwAxMNvUq5KLQnK3K1OlylVKKclTrrCJmadlmG1N5BSlrcZOQQFbCPPFcR3Mexlottbm6dl7MxFk6dc5sO2acwiSqCG51LyKpOiaaQEnWlaWnc1AZKCVhWwEGPa+UO0bds/kOYsDi97WmQYhxAkkYiJmepea2ZZbPaeU5w6A1pIiJkAnfnlCoKi4E3dTcXbNw0xRt+q24LnqMkwSpKUumXedShS21HUnUASNuek7COKI/UsMLvGINRw8t63KvV6lKzkxLy8vLyTjjz7bTikb6EJGenvSSrgG3bF/4X46Vaz7dwKkaTiK3IiZumoS92IXNNqUJJdQlHM5krzKEFLj6go5bCsg7DE9sXGeTqtTxnYmb2tGdvKarK6bRnrzq6mKc9QW5p4pl2X0rTmkFxZ3sLSFBSDmQMh520eUO2rG99V9FrgBdwLgJFY075BHoiPSIvn0Yxxw6dLZlgrtaxryCTOMTBYHXZnE7uiMdy6WXVZ12WNVTQ7ytup0SfCdfY8/KrYWpGZAWkKA1JJByUMwcthjNk8M8Q551tiXsqs636e/VWQ5Jrb36TZRrceb1Aa0BO3NOeeYAzJEdtRWLOuK+rdlbwv/Bh17D63ajN0Oj0la5S3Gait1nsZDk08tXZIzUp1TbeWRYAAVqVFmYZYjUGVpFoVm4MZDd8xKYgzUrXLkqK94pyH5mhzqjLSindOiVStLAGxKVLzKQAQBqtvlvbbLZhUZZrzw0k4PAJ9K7Ho5G6MziXAMLgC5SobAs9aqWuqw2RHRndM47pO7d6UYBdCzg1iwm1n73dw5uJmgS7CZpdRep7rbBZVlk4lSgApG0HUnMZbY1vc9v33LKvj3E173OIy1Vftc92GM1aB+G06PhEJ4eEgcJibWridXMRcW6Q9jPiHV36BWqtLpr+/wA86mWXKF5K1tKQlQShnYNiQEoG0AZCOyL2JtPpDuJVVu3H2hTtbqdu1Bq0KBb1U32jUdhgb7LBKsksdkamWUNoQCs5EnMryHX2htzamzXtpPpNe4wfRD4gkC6DBkjElxDQGgeiS4BU7Ns+yWtpe15aBIxu5wTMSMDgABJJnHBdehgTLv0LCmtSi7hmkX+zNidFPkETbku+3OLYbSyhS2knUN7GS3Bt1EHgTFdW1Yd8Xm/MStn2bXK69KAGYbplOemlMgkgaw2klO0Hh5I7cUbdF3BW5Xc9TN24roWmbq8+u7kvTzTSAGakhUsqbSMkoCUJQpJUBsGfKY0t0Ot3hZNq27g7jnZdmW9TFTr9ZYm7j7WTT1TVNuKVMuIT+EmEFtLRaKQogbABsEc+zeUO1LO407YwCXPAcbxa0CpWGJDATg1rWjCRdOBMKzV2ZY6oDqDjgAYwBMtZliQMyToZGOa690PBLFq5UyxoOH9ZnVTU9M01DbUuS4iYlw2XkOI+E2Eb6jNSwlIJyzzBAjl0WtcNlV+dta66RM0urU5ze5mUmEaVtqIBHygpIIIzBBBBIIMdp90luhpC58MJenYaYjTS0T1xPy9V3l3sWbqbTEhKsCZfaBCw08tLiwFZBXGNSchSWPlRo9VrdpTtIqMpOqNj281OuS7yXCmabkW23EOFJOTidASoHaMsjHX2Htfadvcx1tpCm19/0YdeBaR0iYzkiI3TImBR2hYrJZg5tB5cW3ccIIIOUd/V1qsYyKN4W2t0gpvpCIx4yKN4W2t0gpvpCI9Db/qtT8J+CqbN+uUvxD4r3bhCEfhJfoBIQhBFEMUvBmS6R2/9bykS+Ihil4MyXSO3/reUiXxI9EeNFEdIqBSeNth1GTYqFPauqalZptLzD7Nn1dbbrahmlaVCWyUkgggjYQY5u7DZ/wAQvDqZWPVY1eDniisfo3TPRW4mERUlo+7DZ/xC8OplY9Vh3YbP+IXh1MrHqsbyPhDzLqnENuoWppWhwJUCUKyByPIciDlyEQRabuw2f8QvDqZWPVYd2Gz/AIheHUyseqxvIQRaPuw2f8QvDqZWPVYd2Gz/AIheHUyseqxud+Z37sffUb7p16NQ1ac8s8uTPjj7gi0fdhs/4heHUyseqw7sNn/ELw6mVj1WN5CCLR92Gz/iF4dTKx6rDuw2f8QvDqZWPVY3kIItH3YbP+IXh1MrHqsO7DZ/xC8OplY9VjeQgi0fdhs/4heHUyseqw7sNn/ELw6mVj1WN5CCLR92Gz/iF4dTKx6rDuw2f8QvDqZWPVY3kIItH3YbP+IXh1MrHqsO7DZ/xC8OplY9VjeQgi0fdhs/4heHUyseqw7sNn/ELw6mVj1WN5CCLR92Gz/iF4dTKx6rDuw2f8QvDqZWPVY3kIItH3YbP+IXh1MrHqsO7DZ/xC8OplY9VjeQgi0fdhs/4heHUyseqxn2/iTaty1kW/TjWGZ9cq7OIZqFDnpDfGW1toWpCphlCVaVPNggEnvxsjNiMr8clt9Ga76VSoItlil4MyXSO3/reUiXxEMUvBmS6R2/9bykS+JHojxoojpFRDB7xR2R0cpvozcS+Ihg94o7I6OU30ZuJfB/SKN6ISIhZHhNiD0jZ+qKfEviIWR4TYg9I2fqinwbkUOYWDc3jdtXo3XfSqVFXYzSFi1PG2wJfEhFKXQWrbuSYeRVXEJlNaXqYEqc1kIOQUr4WzbFo3N43bV6N130qlRsKnbNuVqekqnWLfps/OU0qMlMTMo267LFWnUW1KBKM9Kc9JGekcgiKkqEotxIw1rNWqGG9tPs2vdU1TKHatNqEy5KSL9VCJp2anGkuAmWkxLtoJKUZOqYJQk6kqXFL3xSxJvyw7jkJaYsyss2telvtmsyQmpOXmU9sJBxksNqL2+pTMB5pbm+JBDeaQTmI7U1u36Dc0iaZclEkKrJlaXDLz0sh9rUOBWlYIzHEco43rXtqZYdln7fprjL4YS6hUqgpWGFamQRlt0KAKfyTwZQRUTifuhL3tSi3NO0cWlKTFlb3KTwnRMTK6xVTLomDISLCFNuABt1vN9WrLNX4MhClC67ouGp0myqjc9t26/X56XkFzcnTGXA25Nr0akthRzyJ2bcieQE7Dzu2haT9Vma69a9IcqU6wZaZnFSTRfeZKdJbW4U6lJ07NJOWWyNo000w0hhhpDbbaQhCEJASlIGQAA4ABBF10axPxJvSn31Z2/0Saq0tQDNOU+ZoE/R0SDLyXE9/MOOPqccIBKUKaZUdJOQHBscPb+xERZGGlkyzVtSVYr1roqyKnNF56TlqfLy8qnMtam1vTClzKM0JWhITqUVcAVdNEta2rapy6Rb9Ap9OknVrccl5aXQ2hxa9q1KAHfKUScycyeOMOq4eWDXqPIW9XbIoNSpdLShEjJTlOZfYlkoSEoDaFpKUZAADIDIAQRUnb+L+N144k+4C3U2amVXSpp8XA4w87JuKk5zeHpmXl0uhbqVl5pG9l8BCmnDvi9gO5unFO/LOTPWbN3ZaJrNBpqavWrkqFOdYkmmph55MnLsSCHy4++4GVpyDwAITlrUsIi42LeoMrOytRlaJIszUjKLkJV5uXQlbEspSFKZQQM0tkttkpGzNCdmwR8TdsW1P1iWuKet6mTFVkkb3LTzso2uYYTmTkhwjUkZk7AeMwRdd6tut6snDmWu+k0ihsz0jQpSfq0tPvOhcxVHZNEyaXJMNgurcCFpUtxXetJWgkK7/Rwt7prEq5arVa7att0SQtOj1hFGDlYnJNlMytC0pmHHH3J1txjLNW9pTLOahpVmvVpTPMXZO0bdt256DZ+FM7M3TcFAmpCVeolrrKXVuMraaQ5OIbDTYBIzC3BpTtyyyiZW/hPYVLcpVcm7Ht165KfJS8sawaYyZslttKcw+U6/xdm2CKZwjjmZmWkpdyanJhphhpJU446sJQgDjJOwCIhOYy4WyKkoevqlKKl6BvL2+jPzlGeQ852RsZSqVeg0nsCg6oxnSICmcIgr2OWEzGnXe0idWeWhLi/06UnKOWUxowrnVISzfNMSXDkN+cLQHylYGX542c0tAE3DwKjzilleHEKawjHkahIVNjsmmz0vNs55b4w6lxOeQPCCRwEfpjIjQQRgVtBnJIQhGESEIQRIQhBEhCEESEIQRafBXxN2H0ZpforcclkeE2IPSNn6op8ceCvibsPozS/RW45LI8JsQekbP1RT4k3IqJzCVPxuW10crfpNMiXxEKn43La6OVv0mmRL4OyCDMpCEIipJCEIIuqP8Jl/Ffmf5/pn96Y8yo9U937Yl5Yj7n1617DtuertWdrUg+iUk29SyhtZUtW3IAADhJAzyHCRHnh72XdQf7v90/0WvtR+j/kn2vYLBsN1O1V2McajjDnAGIbjBK+b+WWz7VbbWx1nplwA3Ku4RYnvZd1B/u/3T/Ra+1D3su6g/wB3+6f6LX2o+n+cmxvvVP8AW3vXj/mLaXsXcFXcIsT3su6g/wB3+6f6LX2oe9l3UH+7/dP9Fr7UPOTY33qn+tvenzFtL2LuCh1t0mQrlalqXU7jkKDLPkhdQnkPLYZySSNQZbcc2kADJJGZGeQzItq/Kth5aOAcphDa+IErd9XnLtNxz0zISMwxKyjbcmZdDQU+hBcUouFWaRkMiDlszi3vZd1B/u/3T/Ra+1D3su6g/wB3+6f6LX2o51r2psa2VqdR9uYGsIddD6cEiYJMXsJyBAwHXNqjsvaVBjmNs5lwicZAOmMe5V3CJlSsCN0PW52pU+mYF3U9MUl8S04jeUp3pwjPTmogK2cYzEbL3su6g/3f7p/otfajpO8otkMMOtVMH8be9VRsPaJyouVdwixPey7qD/d/un+i19qHvZd1B/u/3T/Ra+1GPOTY33qn+tvenzFtL2LuCruEWJ72XdQf7v8AdP8ARa+1D3su6g/3f7p/otfah5ybG+9U/wBbe9PmLaXsXcFXcZFG8LbW6QU30hETz3su6g/3f7p/otfajMoW5k3SybnoE3PYF3RKy0lV5KbfeU0hYQ228lSjklRJyAJ2AmK1s8otkPs1RrbVTJLT9tunardh2NtClaab30nAAjd1r2ThCEfipfbUhCEEUQxS8GZLpHb/ANbykS+Ihil4MyXSO3/reUiXxI9EeNFEdIqscI/E3ZfRmneitx1psi1cNqluc7Sl7IozM1izUrYk3KfN0Z4pqcpPLaTvc1MzCDqYYQvJSi6dCkpUgJWVBB7M4OgHCGxwRmDbdM9FbjfUG2rctaS7W2xQKbSJQHV2PISrcu3ny6UACIqSoq890Vc9IcFUorltN0qQuRu3FSs2h1+o1txqaTL1B2XbbWkSrTBD53xYdz3okhIKdWvtu/r8w8uvFyuXNQqDMKeuWkyzchT6g8pT1Tm6fTpeVaS640hKWlZtlbik5p74gKAGd/CyrNE1UJ0WlRhMVYZVB4SDWubGeeTqtObm0fjZxyTtqWxUmqixUbcpk21WChVQbflG3EzZQlKUF0KBC9ISkDVnkEjkgirnCLFO5buv677IuOpW3VDQJaRmmpugy76Jdt15T6XpQuOLUH1MlpvNxIRtcIKEFJEa7G3F2+rCqE+3T6e3Q6BTKc3Pu3FOUKYqzL6iVhbKW2XmUtFGlGZcc1K3wBCDlnFvU+g0Oklo0qjSMmWZdMq12PLob0MAkhtOkDJAJJCRszJjjqltW9W56n1Ks0SRnpqkuKekHZlhLipVxQAK2yoHSrIZahty+WCKkpas4jTG6HpFXcp1DFPnLHdmSNc0maclEzcupaux1NgtP5u5BoqVltBVnGPWMbMUXLCpl/UZVp5XfIOvUO322nHqjLpXLOPMzLj++727vaUpW80GUhI1AOnIar9VS6auptVpchLqqDLC5VuaLY31DK1JUtsK4QkqbQSOAlIPFGqpGH1g2/PTtToNkUCmzlSChOzEnTWWXZkHh3xSEgrz48yYIquoeIeKow6kcd76rNsUm1m6H7oJygU2lPTc4uVVKl1KROKfSjfCSg5BnSNqdSvhRpzukbjte93aLfTVvTLb1DXPpo9B3x+ap9QVMyrMrT3Ztawy88+ZngCGtGlJOaFBZvqWodFlKI1bUrSJNqkMyqZFuQQwkS6JcI0BkN5aQgJ73TlllsjSVSx8OZK2lyE5h/RpikSLbjiaezRG30AEhSg3LoQdRJQk6UpJJSnYSBBF1/ru66vCkVCftKRty3a7cEzMU2SpTtHm1OyDU3MrmA8w48+pluYUwmXOakuNJW4sNktkEi3cFr4vW7DX6ZfCKOmco0wy02ZOYluyChbeZMwxLzMylk6kq05u5qH4qcszoLatuhYkYjVqqz2HEw1ZjVryNDZk6/QTKszTomph5aUSkwgK0ISWtqkAZq2Z5GLZt+2rctOmoo1q0Cm0antElEpT5VuXZSTwkIQAkfogi2UI4ZqclJFhUzPTTMuygEqcdWEJAAzJJOzgBiNz2KmG9NUUTd8UVKkgEpROIWRn5kkxNlJ9ToAnsUXPazpGFKoRXL+6Gwfl1pQq8Eq1cbclMLAG3hIb83y7RG0pGMmF9cdbYp9607fHSAhD6iwVE5ZDJwJ27Rs5dkbTY7Q0Sabo7CtYtFFxgPHEKZQj8SpK0haFBSVDMEHMEcsfsV1uSEIQRIQhBEhCEESEIQRIjK/HJbfRmu+lUqJNEZX45Lb6M130qlQRbLFLwZkukdv/AFvKRL4iGKXgzJdI7f8AreUiXxI9EeNFEdIqIYPeKOyOjlN9GbiXxEMHvFHZHRym+jNxL4P6RRvRCRELI8JsQekbP1RT4l8RCyPCbEHpGz9UU+DcihzCwbm8btq9G676VSokUR25vG7avRuu+lUqJFEVJIQhBEhCEESEIQRIQhBFqrouiiWdRJi4LgnBLScsBqVkSpSicglIG0qJ4v8ADMxSkpiVjFi44oWDTJe2KKlwg1KZ/CLWE8KQopIJ4SQlOzgKhwne4xU+n3fiHZ9iXFVHJajPIfn3WUqCeynkDJDefCCRqGYOeSiBkSDFlycpLS0uxIyEg3LysuhLLTCEhKUIA2IAHABwmOtQbSs1JtRzbznY45AZZbz8FQqufWqFgdDRhhmT+wVeSuBVDqzLar5rtZuiZGS3Hp6ddQ22dIB3tCFd7nlxk8A/PI6fhZhnTUtvS1jUjSjPeEuyqXlrJOeZK8z8m3YIlJ3kIUFL/wA3Qc1q/lF8nyf9o+khxKxMOIzec71pviQP34Yg+1VnjFxjTL+u4KTaFNv2RPjx1rXJti3Jdnsdqg0po5al6ZRsJaHmGWX7kxq57DnDurfh52yKMvfVd5pkm0Oun8orSArL5TG+UptWYIKmgrbyvOcnyRz5LaIUogzLoyA4m0/sH9caw97MQTPjx1dqlda7MYePHWqoqW51oUk4J7DyvVO2aqyd9S41MKdY2bQhQUdWWz8o7CcwrgjX0jFHEHDCpydAxolETNMmlFqWrssAoHgyKtIGaQM880heW3JUXLrSG8yVFoHPbwvK/ZEZxJpEhcVi1yQrLbSj2C6/qWoBMqW0laV6vxSCM8/l4os07QaxFO0i8Dv+0OsH9jhuzWl9IUxfo+ifce0KZMPsTTDczLPIeZeQHG3G1BSVpIzBBGwgjjj7iD4Iqm14UW0Z11LjnYeQKU5ANhaggfKEaQTxkZxOI5danyVRzNCRwV6m/lGB2oSEIRrU0hCEESEIQRIQhBFp8FfE3YfRml+itxyWR4TYg9I2fqinxx4K+Juw+jNL9FbjksjwmxB6Rs/VFPiTcionMJU/G5bXRyt+k0yJfEQqfjctro5W/SaZEvg7IIMykIQiKkkIQgiR+ahyxTW6umpiVwtDkrMvMOGqyiQ404ULAKiDkoEEZgkfnjrd2ne5w176Sd/bHz3yq+UGh5K2wWOtRLyWh0gga9XUvU7G8mH7Ys5tDagbiRETp19a77ak8sNSeWOhPad3nDXfpJ39sO07vOGu/STv7Y8z9M9i+6u/UO5dbzDq+2H6f7XfbUnlhqTyx0J7Tu84a79JO/th2nd5w136Sd/bD6Z7F91d+odyeYdX2w/T/a77ak8sNSeWOhPad3nDXfpJ39sO07vOGu/STv7YfTPYvurv1DuTzDq+2H6f7V+bnekP0rFfHV+Zt6rUzs+7GJlt6ez3udQZZIDrALaPwezLhXtHDxRfWpPLHQCVtSTkXpmZkqjVJd2cXvsw41OrQp5eWWpZBzUcuMxk9p3ecNd+knf2xc2h8uVit1fluauGDR0h9lobp1LVS+T+rTbd5cb/ALOpnVd9tSeWGpPLHQntO7zhrv0k7+2Had3nDXfpJ39sU/pnsX3V36h3Lb5h1fbD9P8Aa77ak8sNSeWOhPad3nDXfpJ39sO07vOGu/STv7YfTPYvurv1DuTzDq+2H6f7XfbUnlhqHLHQntO7zhrv0k7+2MSoInKMuRnGK7WFns+XQpLs+6tKklwZggnI5jZtjbQ+WGx2iq2k2zOlxA6Q3/koP8harGlxrDD/AMf7XoFCNTb9SVUpNL6vxhG2j7GvBpCEIIohil4MyXSO3/reUiXxEMUvBmS6R2/9bykS+JHojxoojpFVpg54orH6N0z0VuJhEPwc8UVj9G6Z6K3EwiKkkIQgiQhCCJCEIIkIRwzk01Iyj86+SGpdtTq8hmdKRmf6hACcAii1/Yp2lh3LoNam1PTr2xiQlgFzDh4u9z70ec5Dkz4Ih8vUsbr7C5kJlrEpa1o3lLjImKg4M9o0q2JJ2ZhSUkbPz6rA2zmbhQ7jDdDrc9Waw+68h1QBRKJSsoyQOAL73LP8VOQGRzi6EoCdL4RmcsmW+Qcp8/KY6z20bEeTaLzhmTlOgGX5mVQaalpF8mGnIDTrOf5BV3L4DWe8vsm6pqr3LPODMKqdQcWls5kkgIKRl3x2HPzcsSKnWDYVGAaplpUllLWRW8JNsrWeAJCiMzx8fLyxv3lKQhTYdGo7XXDs/MPN+/CY+ZdtaUpeUgkjYy2eHP8AKP77BGt1eq9sveY03cPGqkKVNphrfHjuWJMW7QpxIRNW7TXlKSEobclW1JbQODMERDa/gHhXcCFqNvinKbzCpinrLBKiCMggZo2E5/B4QBwZiLCUTktkO98drzv5I5B++yPlCg4kPb2Qw3lvKBwqVxGIU61WnixxHYfHjEqT6dN+DgD48fBUExZmLmBby6pZ08Llt1KVOv0x1SkrabzzUres8grLZrQSSdpRkMou6ybzot+29L3HQnVKYezSttYyWy4PhIUOUZ/IdhGwxsgSpSkZ5KUAXl57EDL4I/fzxVlJlHLTx8cp9G0y9Juekrn35MHJImEKyLoQPgk6c8+PUr826q/nzHGoAHgTOo6+vQ8VrY3mrgGn0SYjTs/dW9CEI5SvpCEIIkIQgiQhCCJEZX45Lb6M130qlRJojK/HJbfRmu+lUqCLZYpeDMl0jt/63lIl8RDFLwZkukdv/W8pEviR6I8aKI6RUQwe8UdkdHKb6M3EviIYPeKOyOjlN9GbiXwf0ijeiEiIWR4TYg9I2fqinxL4iFkeE2IPSNn6op8G5FDmFg3N43bV6N130qlRIojtzeN21ejdd9KpUSKIqSQhCCJCEIIkIQgiQhCCKgcb7QqF8Yn02kUmfdlahK0Bc9IqQSBv6JjYMxtTn+UNoIB4so3OHWMfZEyLMxJk1W7cTCA2p2dO8tzSeDUkqyyWo+chXCk8CRsai+tO6SpzIXlrtNQQDmQD2S4ScvkT/UIlN4WHZt8ye8XLR2JhtnMImQNL6TyIcHfAZ7SOAnhBjuGuwUqdGsJF0EEZgmePYuYKTjUfUpnGcjkfGq32lCgl5aMmmzkygfjHiP7I45l1aElK15LP+kKfxRxJHn/7xUsvhdiTY4ZTYWJi1SaAtMvTay1vqGknIAagDl/6UpyPEdREZctc2OtNbamKzhjS6uhtJK3JOqty+tXErJZUfzAHPLZkMo1CytJvMeCN2MH3x8c1PlyMHNIPH4K0QhMulMw6jNz4LLY4vNHENS9W+KKipWThT+OeJCfNyxWc9ifiGpa1MYM1lx1AyVnOISEZnIgEJP6ePkjHZujdAVpZl6dYNEobOkI36pTRcLQI27EKCszs/EP9uUhY6gEuIH/6Hf44LBtDCYaDwKtGcnGmW3JiYfaZbYGpby1hCEAec7AByn5eSKBxMxJm8S2pywcNg65TpRpydrVUPepdZaGakpz26M8tpyK1ZAbMyqUT+CtwXq8maxGv6am5fYWqdTWQwwhWzMjVq1DhGZTqPLEmqdq23ZGGVxs0GkMyco3S5tYbQSVvrDC++Ws5lR2cJ4NuWyN9HkLO4EG86RGgP7n3BaqnK1gQRdHvj9visrAl1buEltqcVmRLLTwcQdWB/UBE9iAYCeKK3P8A6Dv98uJ/HItn1ip+I/FdCzf4Wdg+CQhCKy3JCEIIkIQgiRwzc5KSEuubnppmWYbGa3XVhCEjzk7BHNHTndkXBW377kLbfddbpcrINzLDIJCHHFqWFOEcBPe6RyZHlMcLyi20NgWF1sLLxkADLE6nHBdTY+zTtW1Czh10QST1BdqMDZyUm8HLIErNMvFi3aay6G1hW9uJlmwpCsuBQOwg7RGVZHhNiD0jZ+qKfHnlYWJN5YZ1N2q2dWFSTz7e9PIKEuNuJ4RqQoFJIPAcsxt5TEwkN1BjHTJupTsnX5VDtWmkzk0TIMnW6GWmQQCnZ+DZbGQ5M+EmPJWP5TrA6lNrpOa/RsOHEkH3Lv2nyJtYqf8AwPaW9cg8AD8V3dqfjctro5W/SaZEvjzzd3UGMb9albgcr8qZ2SlZiTZX2Azklp5bS3BlpyOZYa28WR5TGb77jHLnJKfRrH2Ysn5TNjkD0Kn6W/yWkeRW0RPpM4n+K7/wjoB77jHLnJKfRrH2Ye+4xy5ySn0ax9mMfSXsf1Kn6W/yWfMvaPrM4n+K7/wjoB77jHLnJKfRrH2Ye+4xy5ySn0ax9mH0l7H9Sp+lv8k8y9o+szif4rsputfFYn+dpL/3xQkQy6MfcTsRJWWty6qzLzMguaZeLaJNps6kqzB1JSDEzj4r8o22bPt3aVO1WYENuxiADIJ0J1XuvJvZtbZdkNCsQTeJw7B1BIQhHz5egSEIQRbuWsi8pxhE1KWpV3mXG0utuIknFJWggEFJAyIIIOyNTMy0zJPrlZyXdYeaOlbbqClSTyEHaIsW8Ja5qrUbPpNudnOzBtqnrbal3FDSrSQV8ICeLNRyHKY2Fek7eqb/AG9uaprqsta9OlpCddl3O+qU8pSyG0ucaUjYpz4RA/PHsq/k1SfyjLO5zSwgXnxcd6N50QJFwS4xew0JaDwqe1ni66qAQ6cGzIxgdXpHAZY9QJFX0ymT1ZqDFLpkuX5qZWG2mwQCpR4szsH54xiCklKgQQciDxRd9LoVp0C5bMrUzbNRo09WFf5vJMTW+NtOBeQU7voK9qHGzkCMsjsziMPUWyUPVW752lVA0uSnDTmaf2TmudniVKIK0pBQ2E5HYM+Q8RWjyPqWei2azb943ukAGXGvDjLA4YOkgi9i0Bt7BKW221HmGG7AjKS68WkYGDiMDlmSYxVbQiaYoW5J0CfpLklRTSRUKY1NPSZeW7vLpUsKTmvbwBOY4jnELjzW0bBU2Zan2SsZc3Sd4neAcjvAOoXVstpZa6LazMj2ftI4FIQhFJWEjTXT/qsl/OEt/eCNzEZxEmXpK21zkuoJdYebdQSM8lJOY2fKIubOcGWuk47nD4rXWF6m4DRd5rG/8Ja+SJNHnRbm6txrlZFDbNxygSP/APOYP/4xuPfcY5c5JT6NY+zH6hf8pOyGG6WVP0t/kvlDfI3aDhIczif4rv8AwjoB77jHLnJKfRrH2Ye+4xy5ySn0ax9mI/SXsf1Kn6W/yWfMvaPrM4n+K7oYpeDMl0jt/wCt5SJROTsnTpZc5UJtmWYbGa3XnAhCR51HYI8+qvuoMY65KNyVSr8q403NS04kCQZTk6w8h5o5hPE42g5ceWR2RG8QcYMQMUEyrV41wzTMkVKZZbaQy2FHhUUoAClZbMzwDPLhMabT8p2zm0Tzek9z9wMAfmQT8FsoeRNsNUcs9obviSeED4rvBgrNys1hHZglplp4sW/TmXQ2sK0OJlmwpKsuBQOwg7RE1johuYbgrdIxcpNOpbrplqqXJecYBOhxsNqVqI5UlOoHiyPKY73x6XyY2+PKKxm03LhBLSJkTAOBw1XF23sk7HtAo3rwIkHLUfskIQj0a46QhCCJCEIIkaS+JnsOyrgnNejeKXNuass8tLSjnl+aN3EbxL8XF1fzJPf3C42URNRo6woVMGHsXXrBzEerYd2rKzNx0+an7QmplwJmJVvWqRmtWRbXmQNJGS8s+PMZnMR2CoV6W7dUkmdtquydQU+kqO9Od8ygZZhSD3yCMxnqAO0eaKu3M8rKT2G9So9UlmJ9KqksCVeaC2i24wyrvgRkRtOeecclw7ma2p+dcqdpVqbt55tJzUjNxnWeHQMwpIyJByVlt2DZkfQWsWapaHir6JBziQe0Z8M1ybOazKTSz0hGW8fn4hXCygLSH3v9Cg5pGW1xXFs5OQRkpKwsgqG/rGZ4w2n9/wBMUdLWtukLUUyKVd1OuFnIhtmeUVODL8YlwAjk+Hx8XDG9kr8xhkwqTuHCFx86gHpimT7a9Zy25JJVkDl+VsGQinUsZdix7SO0D3GFYZaAMHNI/LuVn6UPtltBKZZs5rWT8Plgt4laS2k74oZNIy2Np/KP78EV1MYpXglpAYwZr+hJyQhTzYC1A8ZGewfIdscPulxorWtqmYf02iGYWUKmqlVEvlKRmM9DQBHybfgniyMRbZKmboA63Dv48Fk2hmQk/kfHiVPKrWqRQqc9P1SdalpCXzU466oJDiuPaeL+3YIpLDO7Z3ETHtd1zMu6zJdqphqm6kadTCHAkHIk57Vrzy2Z5jiMStGD1SuKal6rindDtwuyxSZWmy7Yl5NByA1KSMirM5/k5jh4wM5EtLyWPVJkpZCEIYtZ1GltISlOT4ySANgAGQA4gIsM5GnTqNabzi047h2fueC1O5R72l2ABGCtKEIRwV1UhCEESEIQRIQhBEiMr8clt9Ga76VSok0RlfjktvozXfSqVBFssUvBmS6R2/8AW8pEviIYpeDMl0jt/wCt5SJfEj0R40UR0iohg94o7I6OU30ZuJfEQwe8UdkdHKb6M3Evg/pFG9EJEQsjwmxB6Rs/VFPiXxELI8JsQekbP1RT4NyKHMLBubxu2r0brvpVKiRRHbm8btq9G676VSokURUkhCEESEIQRIQhBEhCEEVJ1h3Ruo6Ygr0IdoKkrPHpAdV/+Ii3nVpQlLy0ZJT/AKBngzPKf32RRtbc3vdZ0glKlAyKgUj8b/NHiB+kD9EXYG3pmb1Oq2tnvyD3qB+SPPyx2bSwBtInK4P3XOouxeB6x/ZJVszGuYmtoB74n+wfvx5R+LddmV6ko73PJsHYAOX9/wDv9OOh4kN5BlHetp/KPL8kFnscFpQLiljaM+H/AIf2mKwkmYx3DRbsIhfWoMnSgpBUNSSf61n/AAEcTbbYAfdB3kZ6En4Tp5T+/wD+/tDSVp7ImFfgxtUf5Q8QHmHFyx9t77MTBdWkoyGz/wDjT+0/1fojEwD7/HjikTHjx43L5aQSVvzZ2J2q5AfyR+/m5Y0mJBX3PLoU4ka1USeCEfkJ3heZP78giQa0qCXlJO9pVky2BtWeX9/liO4jlQw+utDagp00WdU8s7QkbwvvRGaZvVWzqPj4+CPwYY8eP7WvwE8UVuf/AEHf75cT+IBgJ4orc/8AoO/3y4n8aLZ9ZqfiPxW2zf4Wdg+CQhCKy3JCEIIkIQgiRDMScJLNxUkmZa55R4PSufY83LLDb7QPCASCCDyKBETOEaLTZaNspGhaGhzTmDiFto16lmqCrScWuG8KstzZhDZVo2VQL7p0m89W7goknOTE1MrCy1vzKHFttAABCc1edWQAJMTmyPCbEHpGz9UU+OPBXxN2H0ZpforcclkeE2IPSNn6op8LFYrPYKPIWVga0bh2pabTVtdTla7i5x3lKn43La6OVv0mmRL4iFT8bltdHK36TTIl8WXZBaBmUhCERUkhCEEVKbrXxWJ/naS/98UJF97rXxWJ/naS/wDfFCR+avlg/wBbp/8ArHxK+seRP+mn8R+ASEIkTlh3IafK1KTkVTrUzKtTWUuCpaEuOqbbSU8JUVIOxOfDHy+z2O0Wu9yDC66JMCYGq9XVr06Mco4CcBKjsIk0lY9Wl7so9t3NITVP7ZzDKNoAUW1rAJSdoz/sPCI18xbNWFfmLfp9Om5uZaecbbbbZUpa0pURqyA4NnDwRvfsu2U23n0yDeuRBvXoBiM94ha22yg4w1wymZwjKZy3LJm79u+epLNDfr0wJFhhEsllrS2C0lOlKFFABWAPys44bfvC47WS+ihVNUsmZKS6ne0LBKc9JyWDkRmdo2xhVSkVWiTRkqxTpmSfA1b2+0UKIzyzAPCNh2jZHMzbdwPqShujTmpcuuaQFMqTrZQM1LTnwgDkjfzraptIffqcqzAGXXm7o1GkfktfI2MUrt1tx2OQg750OqyFXjczs1ITsxVnn36ZMqm5Zx7JakuqUkkkkZqzKE7DmNnyxzUu/btoom00usLYTOvmZdAbQob6c81p1A6FbeFOR4OQRj+4+6hS11pVvVBEg2gOqmFy6ko0HgUCRtG3hEY3aCu9rDW+0092vGWc32OveeHL4eWXDs4eGJCvtig8VA6q10XplwMRdvTnECJygQscnYajbkMImIwiZmO2TMa4r8qNcq1Xal2qnPOTIlQ4GlOZFY1rK15q4VEqUTmSeGMGJf7h0LkbWnGjUHU15Du/BhhLqm1peUhIQklI297wq4cz5oj1OodarDjjVIo87PLa2uJlpdbpR8oSDlGq12C3Co3lgXOeBH2iRca4anBrm9mW5To2mzlp5MgAEzuA9Ig+8HwVgwjdSVl3XUg32DQZx4uvuSwSlvvg43p1hQ4U5ak5k5Db5jGvqdMqFGn3qZVJRyWmpdWlxpwZKScsx+Yggg8BBBirVsVpo0xVqU3BpwkggTExOWWPZitzK9Ko64xwJ0kTosWNNdP+qyX84S394I3Maa6f9Vkv5wlv7wRt2X9dpfiHxSv/AIndhXdmxv8Awlr5Ik0Rmxv/AAlr5Ik0ft9fnxIQhBFEMUvBmS6R2/8AW8pGNifg5ZOLcixK3XJvJflM+xpyVcDb7IPCAoggg8igRGTil4MyXSO3/reUiXxqtVlo2ygaFoaHNOYOI3KdCvUs1XlaTi1w3j81Qm52wos61bNoV7yEo69Wa9RpSbfmZhYWWi8yhxaGgAAlOZ85yAzJi4Ih+Dniisfo3TPRW4mEa7JYrPYKQoWVga0bgtlotNW11DVruLnHeUhCEWVoSEIQRIQhBEjQYhM9k2Dcsvq077R5xGeWeWbKxnG/jS3slS7MryEJKlKpk0AAMyTvStkbKOFRvaFCp0D2KpNzAUOWxWJZkkK7Kl1OOEZaUmVa2D84V+jPZFyOuJIb3tvNpJyaQP8A5iuX5BFLblXfTYlYef1Fg1Qpz1bVlLLWSBx8BH9kXUkPFzMgdkrTkkcTKOX5Y620BFqeTr+w8dXaqFk/wN8b/Hb2L7bS5mWwvN5e11wfiDkH7+eP1wtpT2KySltA/CFPD/5R5zH6rTLtiWZXkrLNazt0jjUfOeKMQfhHgls5NNnIDjJ/byni/toNF4zu8eB4m0Tdw8eNUClubFBKQM8gPxUjk/f+s7PptCUpRpTmoE5Jz4T5/MNmfyZR9ZjfEqQSdezvdmfJl/h+cx9K2FKWUpUo96AOAkcX/lH9ZjaTuCgBvX4pxwrAbUd9czyJ/FTxqI4vMOSK5nkBG6Ft9KR3ot6Y0k8KvwitpixdDbSSpxZWFHviOF1XIP8Ahitq4maRuirTddXkHqLNJISdgyDh0/1gxtoR6YHqu+C11fsk6j4q24QhHKV9IQhBEhCEESEIQRIjK/HJbfRmu+lUqJNEZX45Lb6M130qlQRbLFLwZkukdv8A1vKRL4iGKXgzJdI7f+t5SJfEj0R40UR0iohg94o7I6OU30ZuJfEQwe8UdkdHKb6M3Evg/pFG9EJEQsjwmxB6Rs/VFPiXxELI8JsQekbP1RT4NyKHMLBubxu2r0brvpVKiRRHbm8btq9G676VSokURUkhCEESEIQRIQhBEhCEEVB3Aw4jdY0FTSxqfpy1AkfB/wA2mE/n4M4up9SA2WkEiXb2LUDtcVyZ/wBpiq7jpgO6Zt+dKgG1UF1xaiRmjTvySRyZhQHLtMWuBsDriO8zyYZA2nkMdi0PBbSOjB8T46s1z6LYdUH/AJH4BfBKWAl0pAcWO8HEhIHD5v388cbDCXSpxS/wKfhqPJw6f2/94KS4+4WkrBK/9K5ycoHmH9sZJA0NsS6Bp/ESeMflnzf2mKxN0QMz48cVtAvHqXw4ozjyWAjvU5KyI2J+Ucvm/NyxyHQ6VIzylm9ris/hq5Pk5Y/EtJSkycuTyvOcfn28p/qj4dfQQlDTYUgbGkD8dQ4/kEQzwb46+7ip5YlfTrqwSEAb6oZNp4m08p5DGkvFpk2LcCVgFk0yaBKhnvqi0rh5R/bG3YaLqlZqzbzzdcP455B5o1t375PW3WJVACUuU+ZQgkZ5ZtqBVl8n9vKY2UxDw0dXjx25qDsWklajAtlTGEttoWQSZZS9nIpxah/UYncQnBXxVWz/APYp/tMTaK9rM2h/afittn/wt7B8EhCEV1uSEIQRIQhBEhCEEWnwV8Tdh9GaX6K3HJZHhNiD0jZ+qKfHHgr4m7D6M0v0VuOSyPCbEHpGz9UU+JNyKicwlT8bltdHK36TTIl8RCp+Ny2ujlb9JpkS+DsggzKQhCIqSQhCCKlN1r4rE/ztJf8AvihIvvda+KxP87SX/vihI/NXywf63T/9Y+JX1jyJ/wBNP4j8AkXCu8JOm4dPN0e4WZep9o6bLoDMwEvBYmnt9SMjmFBKszxgEHzxT0I8BsfbVbY3KmiMajHNmSCJBEiN4mR1r0VusDLdcFQ4NIPbBBg8Fads3vNUin2QzK3CljfKnMN1UF1JIZVMNK/CZ7UghSzmcvxvPG9od4szUzeKHK1SXqw7OGWk11mbKJdcil1ZDaFgjMZqJ0ggEEcIEUfCOzZPLW22W42Ja0AAEmP8Qp4ZgHC9MZk4KhW2DQrXjkTjMD17+Oo3diujsukVCuU9qr16zlroFPmHZKUlCWqeiYKkb2FOrJ3zhKilPBo48zEktq4ZBqUpM5ULwNWcar7rU9UZhWiXC3JJ4720VZZNBQQBsAJzIABAjr5TpVidnG5WZqLEi2skF99KyhGzjCEqVt4Ng49uQ2xK65N2/SbEatOmV5qrTb1V7YPuMMOIaaSlkthOawConUTmBxfp7myfK6rT5S2mmxobji/Fxbcutul0nBoE3SAJuhovLn23YjHXaAc4zh0cADMmYgZkxIkxMmFiUu5Z64brlF3jcE25ITk22J/W+oNlrWCUkA5BHmGwcXBFiruSXlF3HNVa+5J6dmafMIpMhITOuTlEIGpsA5BG+ZoQEpHfcOe07KRhHl9m+VNp2exwIvucSbxc6cQRjBxiSWzgCSYJiOvatkUrS4QboAiABrOGGEwAYzAAVyyeIc/OtWA5VrqSoOzb5qwW+lKRomQWy6BkE5AAgnLZtjDqak1ei0un2he9Go9Pli8ucbdqPYzq5kuqJcUkd84NIRpyzy4IqaEW3+WNpr0zTtLS8FrWk3nB2DaY6WcONO84by49q0t2HSpuD6RuwSYgRiXHLqDoGkBWziLiAxU7Zbl7buF0h+oLRNaF707MobYaQHFpHfBKyFEA7DxjMbIXfcxJzU7SXpSYaePaSnoeU2sKydSwlKgoj8YZZEHbsiNQjnbW8o7Ttl1R1oA9O7vMC7OQJMTJJVmxbLpWENFI5TpjMZ9kJGmun/VZL+cJb+8EbmNNdP8Aqsl/OEt/eCObsv67S/EPir1f/E7sK7s2N/4S18kSaIzY3/hLXyRJo/b6/PiQhCCKIYpeDMl0jt/63lIl8RDFLwZkukdv/W8pEviR6I8aKI6RVaYOeKKx+jdM9FbiYRD8HPFFY/RumeitxMIipJCEIIkIQgiQhCCJGtuXwcqv/wBk/wD3ZjZRrbl8HKr/APZP/wB2YnT6Y7VF3RKqfcxyfYWGaZoJKnJ2ozDrSCDlqAQgq8+xA/RFvobMqnQg633O+WtXAPOfNEAwAkhI4T0AJTqfebed2pyySp9wgnzZEbePZE3mHQolhCzpJ79z8s8g83/aOlbHGrangZSfj47VSswFOg3sC+F6Zj8CwtRQDm4vjWf28kcighj8GnIHLIgbch+SP8eXgj9SUyaENkfhV5lIz+COMnz/AL8Aj4QkoGpKVaidnKOT8525fnJjVM9nxWz4rkA3tISM1OHvfkJ4vl5Txfoj8WlEuhQ1ZnYlxSf6kJjkS3vKCNQS5l3yuENpPEPOf6zHydEslDrqe+JyZb5POeU8sQBk4f8Afj+1IiM18nWxoUpCTML71pscDYit64G04/WchLm+OCmT2+K5VaVRZDhCdWZzdI79WfwRyZ8XFn/VFfVJhKsdbVWtoDRRp1aDwHPMDPL5CQBFihk4n1XfA+7/ALWmr9kDUfEK0oQhHKV9IQhBEhCEESEIQRIjK/HJbfRmu+lUqJNEZX45Lb6M130qlQRbLFLwZkukdv8A1vKRL4iGKXgzJdI7f+t5SJfEj0R40UR0iohg94o7I6OU30ZuJfEQwe8UdkdHKb6M3Evg/pFG9EJEQsjwmxB6Rs/VFPiXxELI8JsQekbP1RT4NyKHMLBubxu2r0brvpVKiRRHbm8btq9G676VSokURUkhCEESEIQRIQhBEhCEEVF7ohy4bSuC18UaO2h1ikuKlH2znt1knSrL8VSQpOfEcuMiLDsi/aFiFRG61RptIcWkiZaWob5KEcKCPz7DwHh80SmoU+Rqsk9TqnKMzUrMIKHWXUBSFpPEQeGKBunc4V+3akq4sH64qUdGQEo68pDiE5ZKSh0khYUdpSsDg4TwR17PVs9ppNo1jdc3I7iNCufWZVo1DUpi805jf2hXoyEhAWUkNk5IQBtXyJ+Tl5TnxRkd8lRQjIvuZFauJA/fgEUPTsasUbMPa7E3DifmXmklKJ+VZ0gpT8I5JBaWeDahSRlls44k9O3RmFE8ylDtdm6eXMi4JmTdLiiRwZthSRlwE55cmzbCpYbRMht4ajEe7wUZaqORMHrw+Ksx1xGnsdgK3sHSpQO1avyR5+UxxobC1rbCgFaclqHAhP5I839p/PEEnsecKafKIcRdjK3FpAbSyw64W0nlyTsPLnEWmN0zQZtwSFn2XXay58JTehLZcORP4mtWWzk5eTap2K0OHosP54fHx+SPtNEHFw/L+lcy1gtJS0khkHS0nLa4rlPm44g2L1/yNlW09SkZzNerTC5WSlWU63FLcBSDp4SAVfnOwcMRRia3ROIrg3qlylk014aRMOpPZLaMzmEpUdYVkRt0o4NhEWBZGFVCs+cdrkzNzVbr0wPw1VqCt8e4CCG8/wDRggkZA55bCSIFtGykGq4OIxugzj1nLtzKA1K4IpgganDgFmYW0GoWzh7QqHVUlE5LSid+QVai2pRKijP/AIdWWzZs2E8MSmEI5dR5qPLzmTKvMaGNDRuSEIRBSSEIQRIQhBEhCEEWnwV8Tdh9GaX6K3HJZHhNiD0jZ+qKfHHgr4m7D6M0v0VuOSyPCbEHpGz9UU+JNyKicwlT8bltdHK36TTIl8RCp+Ny2ujlb9JpkS+DsggzKQhCIqSQhCCKot09Q6zcGGwkKFS5ifmhUZV7eWE6laEKJUeQbBxx1pWbybUULw/q4UOEHT+2O9szLomWy2sZgxoXbKpbiytTIJPmjw3lJ5BbP8p7WLXa3uBAAgREcOtej2V5S2jZFDkKTARM4z39S6Xb5d/MGrf9P7Yb5d/MGrf9P7Y7n+4ak/yA/RD3DUn+QH6I899D2xfaVOI7l0/Pm2+zb7+9dMN8u/mDVv8Ap/bDfLv5g1b/AKf2x3P9w1J/kB+iHuGpP8gP0Q+h7YvtKnEdyefNt9m33966Yb5d/MGrf9P7Yb5d/MGrf9P7Y7n+4ak/yA/RD3DUn+QH6IfQ9sX2lTiO5PPm2+zb7+9dMN8u/mDVv+n9sN8u/mDVv+n9sdz/AHDUn+QH6Ie4ak/yA/RD6Hti+0qcR3J58232bff3rphvl38wat/0/thvl38wat/0/tjuf7hqT/ID9EPcNSf5Afoh9D2xfaVOI7k8+bb7Nvv710w3y7+YNW/6f2w3y7+YNW/6f2x3P9w1J/kB+iHuGpP8gP0Q+h7YvtKnEdyefNt9m33966Yb5d/MGrf9P7YxahTrvq/Yst7iaowETbLylqSlQASsE7Ac+CO7PuGpP8gP0R+psilJUCGBmPNG2j8kex6FRtVlV8tIIxG78lF/lvbXtLTTbj296WQlSaU0FDLZEljGkpJuSaDTQyAjJj6qvFpCEIIohil4MyXSO3/reUiXxEMUvBmS6R2/9bykS+JHojxoojpFVpg54orH6N0z0VuJhEPwc8UVj9G6Z6K3EwiKkkIQgiQhCCJCEIIkcM5LpnJR+UXlpfbU2cxmMiMuDj4Y5oQBjFFUOAVdK7SfsWpr7Hq9rvvSs80o/hC3viigp5U7SjP/AIRygmzst40uuNBTqjky0B8EcURG9MKWK3VUXfaNUNuXQycxUGWgtL405aHmz3qhsG0g8HAcso0czd+MlrOKbuHDhFeYAUg1CiPZuLSCQCGDqUCRkSBkNv8A6R1nXLW41KRAJxIJgzvicx74whUG3rO248HDIjHDv929WKNRdU4pwLKdrqwNgPEkcv8AjsjKQFoTnpAdVmUhW3QOMnz8v6IqtvdFWVJFKa3Q7joyUnQhM5T9IK9me1KiTlt4s9h2cEbSTxywnqSdCb0l0b4NTxfZdaOzLvRqSOXi88YfZLRvYY7J+Hjcja9Lc4T2+PGKnrWjIvOKO8oVmnPhcV+V+yPxIdU7rcAMwsZoTxNJ5TELmcc8KZdBfevGSOgEtIbQ45wcZCUn80aJ7dBWfNOrkLQplcuSfe2kSMkpIWSSAkleSkjYNuk5A/LlhtktDpNwj8sOPx1yWXV6Q+0PHjBWhlLMsrmnVfgW81EqOW+K/KP+EVVQa2jETHBis0B4v0u16c8xMTjKwWHnXdgaScu+A2qzByOgkHIDVz1q0cVcVdEpc07L2hbihqXT5J3fpx8HMaHVjJI2Z7Bs77aFZbLIta1aFZlFZoFuyKZWUZzOQ2qWs8K1qO1SjynzDgAEYL6dnpuk3nkEYYgA547z2IGPrPGENGPWT2bh2rbQhCOYryQhCCJCEIIkIQgiRGV+OS2+jNd9KpUSaIyvxyW30ZrvpVKgi2WKXgzJdI7f+t5SJfEQxS8GZLpHb/1vKRL4keiPGiiOkVEMHvFHZHRym+jNxL4iGD3ijsjo5TfRm4l8H9Io3ohIiFkeE2IPSNn6op8S+KWcxwwuw0v2+6Fe1z9rZ5+tS82212FMPamlUqRSFam21Ad8hQyzz2fJGWNLpACw8hsEqY3tQLymLvoV1WlT6LPdrqbUafMMVGpOyf8ArDsm4laFNsPasuxVAggfCG2MbXjJzJszrXNezo0Xvs9z9z//AFVO/cw99nufuf8A+qp37mM8jU9U8E5VmoW914ycybM61zXs6GvGTmTZnWua9nRovfZ7n7n/APqqd+5h77Pc/c//ANVTv3MORqeqeCcqzULe68ZOZNmda5r2dDXjJzJszrXNezo0Xvs9z9z/AP1VO/cw99nufuf/AOqp37mHI1PVPBOVZqFvdeMnMmzOtc17Ohrxk5k2Z1rmvZ0aL32e5+5//qqd+5h77Pc/c/8A9VTv3MORqeqeCcqzULe68ZOZNmda5r2dDXjJzJszrXNezo0Xvs9z9z//AFVO/cw99nufuf8A+qp37mHI1PVPBOVZqFvdeMnMmzOtc17Ohrxk5k2Z1rmvZ0aL32e5+5//AKqnfuYe+z3P3P8A/VU79zDkanqngnKs1C3uvGTmTZnWua9nRgv0TEiZdU/M4YYfOurOalruJ9SlHlJNN2xge+z3P3P/APVU79zD32e5+5//AKqnfuYyKdVuQPvWDUpnMhZ7VExIl1FbGGGHzaiMiUXE+Dl+amxlst4uy6Shiw7JbSTmQi6ZoDPl2U6NL77Pc/c//wBVTv3MPfZ7n7n/APqqd+5gadU5g+9A+mMiFvdeMnMmzOtc17Ohrxk5k2Z1rmvZ0aL32e5+5/8A6qnfuYe+z3P3P/8AVU79zGORqeqeCzyrNQt7rxk5k2Z1rmvZ0NeMnMmzOtc17OjRe+z3P3P/APVU79zD32e5+5//AKqnfuYcjU9U8E5VmoW914ycybM61zXs6GvGTmTZnWua9nRovfZ7n7n/APqqd+5h77Pc/c//ANVTv3MORqeqeCcqzULe68ZOZNmda5r2dDXjJzJszrXNezo0Xvs9z9z/AP1VO/cw99nufuf/AOqp37mHI1PVPBOVZqFvdeMnMmzOtc17Ohrxk5k2Z1rmvZ0aL32e5+5//qqd+5h77Pc/c/8A9VTv3MORqeqeCcqzULe68ZOZNmda5r2dDXjJzJszrXNezo0Xvs9z9z//AFVO/cw99nufuf8A+qp37mHI1PVPBOVZqFPsPbfnbTsC2bVqLrLk3RqPJU99bCiW1OMsoQooJAJSSk5ZgHLiEYFkeE2IPSNn6op8RD32e5+5/wD6qnfuY3GDd22/fL17XTa1Q7Npc7caN4f3pbWvRS5BCu9WEqGSkKG0Dg5Izcc0EuELF9riACtvU/G5bXRyt+k0yJfEQqfjctro5W/SaZEviDsgpDMpCEIipJCEIIkIQgiQhCCJCEIIkIQgiQhCCJCEIIkIQgiQhCCJCEIIkIQgiiGKXgzJdI7f+t5SJfEExrq1PoFhGu1aY3iRptaoc3NO6FK3tpuqyqlq0pBJySCcgCeSI577Pc/c/wD9VTv3MbAxzm+iJ8Bay9rXYlc1m0LGS0rQodq+5WzJvtNTZan7/wC6eab33eWkt69Pa86c9OeWZyz4TG314ycybM61zXs6NF77Pc/c/wD9VTv3MPfZ7n7n/wDqqd+5hyNT1TwWeVZqFvdeMnMmzOtc17Ohrxk5k2Z1rmvZ0aL32e5+5/8A6qnfuYe+z3P3P/8AVU79zDkanqngnKs1C3uvGTmTZnWua9nQ14ycybM61zXs6NF77Pc/c/8A9VTv3MPfZ7n7n/8Aqqd+5hyNT1TwTlWahb3XjJzJszrXNezoa8ZOZNmda5r2dGi99nufuf8A+qp37mHvs9z9z/8A1VO/cw5Gp6p4JyrNQt7rxk5k2Z1rmvZ0NeMnMmzOtc17OjRe+z3P3P8A/VU79zD32e5+5/8A6qnfuYcjU9U8E5VmoW914ycybM61zXs6GvGTmTZnWua9nRovfZ7n7n/+qp37mHvs9z9z/wD1VO/cw5Gp6p4JyrNQt7rxk5k2Z1rmvZ0YT1GxKmMuyMMsP3dPBruOYVl+mmxr/fZ7n7n/APqqd+5h77Pc/c//ANVTv3MZFOqMgfesGpTOZCxO5fWt+3/uGYWauTt07p4Mvg9rMv6o38hT8UqUyJamYc2HJtDgbYuaZbTwk8CaaBwk/pjV++z3P3P/APVU79zD32e5+5//AKqnfuYk4V3iHSeKi00W9GBwW914ycybM61zXs6GvGTmTZnWua9nRovfZ7n7n/8Aqqd+5h77Pc/c/wD9VTv3MQ5Gp6p4KfKs1C3uvGTmTZnWua9nQ14ycybM61zXs6NF77Pc/c//ANVTv3MPfZ7n7n/+qp37mHI1PVPBOVZqFvdeMnMmzOtc17Ohrxk5k2Z1rmvZ0aL32e5+5/8A6qnfuYe+z3P3P/8AVU79zDkanqngnKs1C3uvGTmTZnWua9nQ14ycybM61zXs6NF77Pc/c/8A9VTv3MPfZ7n7n/8Aqqd+5hyNT1TwTlWahb3XjJzJszrXNezoa8ZOZNmda5r2dGi99nufuf8A+qp37mHvs9z9z/8A1VO/cw5Gp6p4JyrNQt7rxk5k2Z1rmvZ0ftAoF/TV/wAhdV1Um36dKU6jz9PQin1d6dcdcmHpNYJC5VkJSkSquMklQ2RoffZ7n7n/APqqd+5h77Pc/c//ANVTv3MORqeqeCcqzUKX4peDMl0jt/63lIl8UVc26HwevpmkWta139m1SeuOhbwx2vmmteiqSy1d8ttKRklCjtI4OWL1g5paAHCEa4OJIKiGD3ijsjo5TfRm4l8RDB7xR2R0cpvozcS+Iv6RWW9EJHnPus/4wN1f8j6ExHoxHnPus/4wN1f8j6ExFqxf5D2dyr2voDtVQwhCOouckIQgiQhCCJCEIIkInWC+HTOJ9+ydtT027J00NuTVQmmykFmXbTmpWagUjiGZGQzjgxcw7ewwvidtjsrsuUATMSM1sPZEssZoXmNhOWw5bMwYjfF65vUrpu3tyhkIQiSikImeGtgM3+u4GFVJyVeo9FmKqylLYWHlNZEoO3YMidsae7qFTLfqqJKkVtyqyy5dp9MwuRdlCStOZToc27DmNQ2HLMRG8JuqV0xK0kIR9IQtxWltClK4ckjMxJRXzCJzhthw1ftMu2fcqTkqu26MuptoS2FB5SVDvSSdgyzjRTtCpcvalOuCWrbj85NTDrExImQdQmXCctKg+e8c1D8UbRxxG8JhSumJWjhH1vbmjfdCtGenVlsz5M42Atq41TbUgm36kZl9pL7TIlHN8caUM0rSnLMpI4CNhiUhYWthH042tpamnUKQtBKVJUMiCOEER8wWEhCEESEIQRIQhBEjvVuFfFHV+kcx6NLR0VjvVuFfFHV+kcx6NLRVtn+JWbL/AJFbtT8bltdHK36TTIl8RCp+Ny2ujlb9JpkS+OW7ILoDMpCEIipJCEIIkIQgiQhCCJCEIIkIQgiQhCCJCEIIkIQgiQhCCJCEIIkIQgiqHdZ/xfrq/wCR9NYjznj0Y3Wf8X66v+R9NYjznjqWL/Ge3uXOtfTHYkIQi4qqQhCCJCEIIkIQgiQi7Jjc7acC2MTWKq6a7vRqT9LUpGQpxXoDqU5a8/xsycsj5ttJxFrw+Y3KTmluaQhCJKKQizrqwjo1t0eWqirsmCudt2VrkoyaY452QtxRS40VoJS0E5ZhS9h+WKxiLXB2IUi0tzSEI+i2tISpSFBK9qSRsPyRJRXzCLOu7COkWnedtW1P3S+xJV6lStQcnewFvqYU6kkpDLZ1LGoZDLbtiuJqW3idek2Vqd3t1TaVb2UleRyB0naM+Q7Yi14diFItLc1wQjKlaVU55MyqSp01MCTbL0yWmVLDLYORUvId6kEgZnZtj9mKTVZSUZn5umTbMrMEhl9xlSW3CPyVEZH80SkLCxIQhBYSEIQRIQhBEhCEEUvwe8blkdI6b6S3HqPHlxg943LI6R030luPUeObbukFfsfRKiGD3ijsjo5TfRm4l8RDB7xR2R0cpvozcS+Kb+kVab0Qkec+6z/jA3V/yPoTEejEec+6z/jA3V/yPoTEWrF/kPZ3Kva+gO1VDCEI6i5yQhCCJCEIIkIQgi7BYQu2lhrg5Xb3vqVqjibxdNDkW6ctCJhbCBqdIWv4KFHvSQCdmwROandlmYn4XW/dNAw+lOyrdq8jRJgzj6pmap8oHE724HAE60qyAOoEDUY6ozVZq87ISlKnKpNvyUhr7Fl3HlKbY1HNWhJOScztOXDG5sS5a7RqvL0ymVealZKpzkqmdYacKUTCUuggLA4QDFd1GfSnFb21Y9GMF24m63jfK4p1cyNPpNq4a0adIn5ibpjDErMSqT36tS0746pW0AoOWZHBEdlrluWcw+frmAdjy7k7V7vnm5V5qlNvOSctpSoKGtJQ0Cctqu9GeUVDun7nuapYt3DQ6nXZ+Yp0hOZSko4+osspKUnvUZ6Rw8OUbSQue47d3LMuu3a3O01UxdT8vMLlH1NKcbVLg6CUkHI5cEaRS9FrsMY8FbDU9IjSVedNuGfm6lJ2diBN0qo3+1btXXV5iSabBl2VNDe5dxTYCSvjIGwZDlzOFdtrSlHoUpi5KWS3eFcpluUiUkaY6wp9qXzbUTNONp2rAyyHJkTmOEdN6VX63Q5p6eo9VmpOZfacYdeZdKVrbWMlpJG3IjhjbSeJuItOnG6hI3zXWJlqXRJocbqDqSGEfBb+F8EcSeARPm5BwKjy4IxCt26W90pjVZ++XPaktL0GnvmdbmpmWYp+8J06dLe+FKlI+QEk5bTsEWfQbZvjDi66bYWF1st0ChUxLExct4VKTR/nwISp0JddGnQM9ISjaDxjaY6l3Df18XahLdz3hWaq2g6kNzk846hJ5QlRIH5hCpX7fNZkGqXWLzrs9JMFJalpmovOtI0/ByQpRAy4tmyJGi4iMIURVAM4yu3dFvVNGxExWtOnWPaTLVFpU/Pom0UwCZnCSHAiYXqydbzWRpyGwCNThvIUfGGwrbnbvolOalnrum3106nsCXl3VNyRKWkoB2BRbGYz27eWOrjOIF6MVSoVpFyTqp+qyq5KdmHF61vsKSElCirPMZADl2RjSV3XTTZKWp1OuOpSsrJzXZsuyzNLQhqYyy31IByC8vxhtjHNzGBxWeWE4jBdoLIu7Ga7Lqm6Tfdot0bDKUamDUKdOUNqUkpSVShWlKVrbC9QOWWSs89sYeOOM17WDWLWtqxKixSZN+gU9119mVbVMPpIySlTikkhIA2AZcJ5Y693NidiHeUsmSum86vU5ZJBDD80tTWY4Doz0k+fLONRVq/W687Lv1qrTU65KMIlmFvulZbaR8FCSeBI4hGRZ/Skgdiwa2ECVYO6ZlJeUxpuDsdtKA+WJhYSMgVrZQpR/OST+eKujOrVcrFx1BdVrtRfnpxxKULfeVqWoJSEpBPmAA/NGDG9gutAK1ON5xKQhCJKKQhCCJCEIIkd6twr4o6v0jmPRpaOisdzdxlOXzL4X1RFs27Qp+VNffK3Z+tPSjgc7Hl80hCJV0FOWk6tQOZIy2ZmtaxNNWLMYqK+qn43La6OVv0mmRL4hVLpd81G+afc1zUihU6Vp1Jn5BCJCrPTjjrkw9KLBIXLMhKUiWVxkkqGyJrHKduC6Ld5SEIRFSSEIQRIQhBEhCEESEIQRIQhBEhCEESEIQRIQhBEhCEESEIQRIQhBFUO6z/i/XV/yPprEec8ejG6z/i/XV/yPprEec8dSxf4z29y51r6Y7EhCEXFVSEIQRIQhBEiQ4f2nN31elHtOSSSupTaGVEfiozzWr5AkE/miPRmUqsVahTyKnRKnNSE20CEPyzymnEgjIgKSQdoJB8xjBmMFkROK7eMY54NyWMCaHLW9VZhh9hNpvzc5NoTIsSqDoyQwkELQVDaVEHaTlxRxiXuazqLiDK4dYY05quydySslIS0rTjN7wyprZMISvVlqSArM96NR2R091rK981HVnq1Z7c+WL+tPEO+14DX1cqLsqqauKtTWDOpmVB4M6FI0BYOYGQA2RUfRuRHV8VYbVvZ9as03BX+zbAtHGxdHql8zdyMTLbTcuwXpGRyy0vFoBAKydiRxbTwRy0S68Y5C6axXb5p9KtjCymzEw3MSc3S2GG5llJUlCGUFO+uLXsyOek7fkjrRgvNvvYy2lNzT7jrrlallLccUVKUSsZkk7SY/carmuavYiV+Wr9dn59uQqUyxLNzD6loZbS4oBKEk5JGXJDkPSu9XiFnlfRvePzXaulU6m3pbsoxLBFPkqxh++wjZsl2jNjT+ZIP9UQi4rjxXwxu8YY4HYU9rpOQWhCZ0UgzD9VAA1OuPKGnQrbtHB+UOAdbUX3ejUomQauqqtyyJI05LSJpaUCVKtRZyBy0E7SOONkzjFixLyKKaxiTczcs2kIQhFUeGlI4ACFZgeaJCzkHcQsGsD1K57RwbuWiVm68Q8S8PkVqt05Dc9JW3I73MIemZhxWlTjTBXk2nInQeLzRNLuruIVEwUdu3Fah2tVa1T6oxMSVAqFNZcYkJR1Cm0pcZQQRnmSnUSRpGZzBA6nUq9byoM5M1Gh3bWadNzn+sPyk+6y49tz79SVAq28scbt13PMMVCWmLgqDzdWWhyfS7MLX2UpBzSpzM98QeAmMmi5xlxURVDRAC7eXNiHPTeJeEtDNtW6y1W5Glzzj7VPAflzrz3tlwklDYyACduzONPeTd04WUcVnBu0Xp247hrdUVUa0xS+znpVLcwpKWEZpUEZjaQRty/R1imr4u6cm6TPv3BOGaoTCJamvoXoclm0ElAQpORGRJ28MbCj4tYnW+1Ns0a/K5KIn3VPzAbnF/hHVfCXnnmFHjUNpjHNyIhZ5YGZXbqiVet0ez6jdd9UqmrxCbtOem6k0/KtpU4wHkmX7JaQAnPYrYQDkMjFNN4i3jixgliJM35VxUl0l2mvyILDbaZdSnVJOhKEgDZsilGruull+ozTdxVEP1dpTE+6ZlZXNNq4UuKJzWD54x5Ku1mnU6epEjUn2JKppQmcYQvJD4QrUnUOPI7RGW0LuO/BYNacFgQhCLK0JCEIIkIQgiQhCCKX4PeNyyOkdN9Jbj1HjyywqVNoxQs9dPYZemk1+nlhp50tNrc7IRpSpYSopSTkCoJUQNuR4I9Hu2eLfMi0OtMz7PjnW0S4K9ZDDSmD3ijsjo5TfRm4l8aKwqFN2tY1u2zUHGXJqkUmUkH1skltTjTKUKKSQCU5pOWYBy4hG9ik4y4q43ABI6Fbp3DbEWv443LVqFYNx1KRf7D3qalKU+805pk2Uq0rSkg5KBByPCCI76widGqaLrwChVpiqIK8uO49i35Lbv+g5n7EO49i35Lbv+g5n7Eeo8Is8+doq/M26ry47j2Lfktu/6DmfsQ7j2Lfktu/6DmfsR6jwhz52iczbqvLjuPYt+S27/oOZ+xDuPYt+S27/AKDmfsR6jwhz52iczbqvLjuPYt+S27/oOZ+xDuPYt+S27/oOZ+xHqPCHPnaJzNuq8uO49i35Lbv+g5n7EfSMIcX21pcbwvvBC0EKSpNEmgQRwEHRHqLCHPnaJzNuq8vZvCnGafmXJyew2vSYmHlFbjrtHm1rWo8ZUUZkx9KwsxpVJppysOb2MohwupYNIm97SsjIqCdGQJAAz4Y9QIQ587RZ5oNV5cdx7FvyW3f9BzP2Idx7FvyW3f8AQcz9iPUeEOfO0WOZt1Xlx3HsW/Jbd/0HM/Yh3HsW/Jbd/wBBzP2I9R4Q587ROZt1Xlx3HsW/Jbd/0HM/Yh3HsW/Jbd/0HM/Yj1HhDnztE5m3VeXHcexb8lt3/Qcz9iHcexb8lt3/AEHM/Yj1HhDnztE5m3VeXHcexb8lt3/Qcz9iHcexb8lt3/Qcz9iPUeEOfO0TmbdV5cdx7FvyW3f9BzP2Idx7FvyW3f8AQcz9iPUeEOfO0TmbdV5cdx7FvyW3f9BzP2Idx7FvyW3f9BzP2I9R4Q587ROZt1Xlx3HsW/Jbd/0HM/Yh3HsW/Jbd/wBBzP2I9R4Q587ROZt1Xlx3HsW/Jbd/0HM/YjuZuMrbuK1sL6pT7moFSpE05X33kMT8q5LuKbMvLgLCVgEpzSoZ8GYPJF9wjXVtRqtukLZTs4puvApCEIqqwkIQgiQhCCJCEIIkIQgiQhCCJCEIIkIQgiQhCCJCEIIkIQgiQhCCJCEIIqt3TtHq9fwOuWk0KlTlSnn+w96lZRhTzrmmcZUrShIJOSQSchwAmOhXcexb8lt3/Qcz9iPUeEWaNpNFt0BaKtAVTJK8uO49i35Lbv8AoOZ+xDuPYt+S27/oOZ+xHqPCNvPnaLVzNuq8uO49i35Lbv8AoOZ+xDuPYt+S27/oOZ+xHqPCHPnaJzNuq8uO49i35Lbv+g5n7EO49i35Lbv+g5n7Eeo8Ic+donM26ry47j2Lfktu/wCg5n7EO49i35Lbv+g5n7Eeo8Ic+donM26ry47j2Lfktu/6DmfsRzowsxpbk3KejDm9kyrq0uOMCkTYbWscCinRkSMzkfPHqBCHPnaJzRuq8vZbCfGSSmG5uTw1vNh9lQW261RppK0KHAQQjMHzx8O4R4wPuLeewxvFxxxRUtaqLNEqJ4SSUbTHqLCHPnaJzRuq8uO49i35Lbv+g5n7EO49i35Lbv8AoOZ+xHqPCHPnaJzNuq8uO49i35Lbv+g5n7EO49i35Lbv+g5n7Eeo8Ic+donM26ry47j2Lfktu/6DmfsQ7j2Lfktu/wCg5n7Eeo8Ic+donM26ry47j2Lfktu/6DmfsQ7j2Lfktu/6DmfsR6jwhz52iczbqvLjuPYt+S27/oOZ+xDuPYt+S27/AKDmfsR6jwhz52iczbqvLjuPYt+S27/oOZ+xDuPYt+S27/oOZ+xHqPCHPnaJzNuq8uO49i35Lbv+g5n7EO49i35Lbv8AoOZ+xHqPCHPnaJzNuq8uO49i35Lbv+g5n7EO49i35Lbv+g5n7Eeo8Ic+donM26rzhwqwqxQp2KFn1CoYb3TKysrX6e8++9R5hDbTaZhBUtSijJKQASSdgAj0ehCK9asaxBIW+lSFIQEhCEaVtSEIQRIQhBEhCEESEIQRIQhBEhCEESEIQRIQhBEhCEESEIQRIQhBEhCEESEIQRIQhBEhCEESEIQRIQhBEhCEESEIQRIQhBEhCEESEIQRIQhBEhCEESEIQRIQhBEhCEESEIQRIQhBEhCEESEIQRIQhBEhCEESEIQRIQhBEhCEESEIQRIQhBEhCEESEIQRIQhBEhCEESEIQRIQhBEhCEESEIQRf//Z;" parent="5GquR9uzr9U2BX6K7XrJ-2" vertex="1">
          <mxGeometry x="1.5200000000000102" y="32.41999999999999" width="157.48" height="69.15" as="geometry" />
        </mxCell>
        <mxCell id="5GquR9uzr9U2BX6K7XrJ-4" value="" style="group" parent="1" vertex="1" connectable="0">
          <mxGeometry x="40" y="41.85" width="160" height="160.15" as="geometry" />
        </mxCell>
        <mxCell id="meAqKPWt1AxIm8cC-9Gz-10" value="&lt;font&gt;Integration Domains&lt;/font&gt;" style="text;html=1;align=center;verticalAlign=middle;whiteSpace=wrap;rounded=0;fontFamily=Architects Daughter;fontSize=16;" parent="5GquR9uzr9U2BX6K7XrJ-4" vertex="1">
          <mxGeometry y="130.15" width="160" height="30" as="geometry" />
        </mxCell>
        <mxCell id="5GquR9uzr9U2BX6K7XrJ-3" value="" style="shape=image;verticalLabelPosition=bottom;labelBackgroundColor=default;verticalAlign=top;aspect=fixed;imageAspect=0;image=data:image/jpeg,/9j/4AAQSkZJRgABAQAAAQABAAD/4gHYSUNDX1BST0ZJTEUAAQEAAAHIAAAAAAQwAABtbnRyUkdCIFhZWiAH4AABAAEAAAAAAABhY3NwAAAAAAAAAAAAAAAAAAAAAAAAAAAAAAAAAAAAAQAA9tYAAQAAAADTLQAAAAAAAAAAAAAAAAAAAAAAAAAAAAAAAAAAAAAAAAAAAAAAAAAAAAAAAAAAAAAAAAAAAAlkZXNjAAAA8AAAACRyWFlaAAABFAAAABRnWFlaAAABKAAAABRiWFlaAAABPAAAABR3dHB0AAABUAAAABRyVFJDAAABZAAAAChnVFJDAAABZAAAAChiVFJDAAABZAAAAChjcHJ0AAABjAAAADxtbHVjAAAAAAAAAAEAAAAMZW5VUwAAAAgAAAAcAHMAUgBHAEJYWVogAAAAAAAAb6IAADj1AAADkFhZWiAAAAAAAABimQAAt4UAABjaWFlaIAAAAAAAACSgAAAPhAAAts9YWVogAAAAAAAA9tYAAQAAAADTLXBhcmEAAAAAAAQAAAACZmYAAPKnAAANWQAAE9AAAApbAAAAAAAAAABtbHVjAAAAAAAAAAEAAAAMZW5VUwAAACAAAAAcAEcAbwBvAGcAbABlACAASQBuAGMALgAgADIAMAAxADb/2wBDAAMCAgICAgMCAgIDAwMDBAYEBAQEBAgGBgUGCQgKCgkICQkKDA8MCgsOCwkJDRENDg8QEBEQCgwSExIQEw8QEBD/2wBDAQMDAwQDBAgEBAgQCwkLEBAQEBAQEBAQEBAQEBAQEBAQEBAQEBAQEBAQEBAQEBAQEBAQEBAQEBAQEBAQEBAQEBD/wAARCAJFAr8DASIAAhEBAxEB/8QAHQABAAEEAwEAAAAAAAAAAAAAAAcEBQYIAgMJAf/EAGgQAAEDAwICBAUKDwoLBwIFBQECAwQABQYHERIhEyIxQQgUFVHSFhcjMlRVYXHR0xhCUlZXgZGSk5SWoqOy1DRYYnN0laGxw/AJMzU3OFN1drO0wiQ2Q3LB4fEZJSYngqW1REd3g4T/xAAcAQEAAgMBAQEAAAAAAAAAAAAAAQIDBAUGBwj/xABHEQACAQICBQcIBwcDBAMBAAAAAQIDEQQhBRIUMVFBYXGRodHwBhMVIjJSgbEWM1NUwdLhFyM0NXKSokJi8SRDgrIHNnOj/9oADAMBAAIRAxEAPwD1TpSsOu12vCLxNjx7o6y0y4hCEIbaIALSFHmpJPao99ZKVKVZ6sSlSoqauzMaVgvle/e/kj8Ez6FPK9+9/JH4Jn0K2NiqcUYdqhzmdUqL8o1AThlmdv8AkuWvQ4TKkIKzHbcUta1BKG0IQ2VuLUogJQkFSiQACaobhqVkMW62aBb7bk92i3hKFm5QocMxYaFEcKni4ULA2O/UQogDmBy3jY5rlRO0w4Ml6lRDD1BzuTLvsZ/EMsiN2hKjDkPKs5bvBHFsIoQ+pSSeEbeMJZHXTvt1tqN7U/URvEmMkRpvnDtwdfLK7Ah2wieyjdQ6VSzLEUo5A7JfKusOr27NjqcV29w2mBNVKiaZnebxsitlkZxrJ5cOe10ki8Mm0iJb1bK9jeSt5L6lcgPYmnE9Yc+3bqh6g53Jl32M/iGWRG7QlRhyHlWct3gji2EUIfUpJPCNvGEsjrp3262zY6nFdvcNpgS9SoVe1P1EbxJjJEab5w7cHXyyuwIdsInso3UOlUsyxFKOQOyXyrrDq9u1xmZ3m8bIrZZGcayeXDntdJIvDJtIiW9WyvY3kreS+pXID2JpxPWHPt2bHU4rt7htMCWaVEMPUHO5Mu+xn8QyyI3aEqMOQ8qzlu8EcWwihD6lJJ4Rt4wlkddO+3W2o3tT9RG8SYyRGm+cO3B18srsCHbCJ7KN1DpVLMsRSjkDsl8q6w6vbs2OpxXb3DaYE1UqJpmd5vGyK2WRnGsnlw57XSSLwybSIlvVsr2N5K3kvqVyA9iacT1hz7duqHqDncmXfYz+IZZEbtCVGHIeVZy3eCOLYRQh9Skk8I28YSyOunfbrbNjqcV29w2mBL1KhV7U/URvEmMkRpvnDtwdfLK7Ah2wieyjdQ6VSzLEUo5A7JfKusOr27XGZnebxsitlkZxrJ5cOe10ki8Mm0iJb1bK9jeSt5L6lcgPYmnE9Yc+3ZsdTiu3uG0wJZpUQw9Qc7ky77GfxDLIjdoSow5DyrOW7wRxbCKEPqUknhG3jCWR1077dbaje1P1EbxJjJEab5w7cHXyyuwIdsInso3UOlUsyxFKOQOyXyrrDq9uzY6nFdvcNpgTVSommZ3m8bIrZZGcayeXDntdJIvDJtIiW9WyvY3kreS+pXID2JpxPWHPt26oeoOdyZd9jP4hlkRu0JUYch5VnLd4I4thFCH1KSTwjbxhLI66d9uts2OpxXb3DaYEvUqFXtT9RG8SYyRGm+cO3B18srsCHbCJ7KN1DpVLMsRSjkDsl8q6w6vbtcZmd5vGyK2WRnGsnlw57XSSLwybSIlvVsr2N5K3kvqVyA9iacT1hz7dmx1OK7e4bTAlmlRDD1BzuTLvsZ/EMsiN2hKjDkPKs5bvBHFsIoQ+pSSeEbeMJZHXTvt1tqN7U/URvEmMkRpvnDtwdfLK7Ah2wieyjdQ6VSzLEUo5A7JfKusOr27NjqcV29w2mBNVKiaZnebxsitlkZxrJ5cOe10ki8Mm0iJb1bK9jeSt5L6lcgPYmnE9Yc+3bqh6g53Jl32M/iGWRG7QlRhyHlWct3gji2EUIfUpJPCNvGEsjrp3262zY6nFdvcNpgS9SoVe1P1EbxJjJEab5w7cHXyyuwIdsInso3UOlUsyxFKOQOyXyrrDq9u1xmZ3m8bIrZZGcayeXDntdJIvDJtIiW9WyvY3kreS+pXID2JpxPWHPt2bHU4rt7htMCWaVEMPUHO5Mu+xn8QyyI3aEqMOQ8qzlu8EcWwihD6lJJ4Rt4wlkddO+3W2o3tT9RG8SYyRGm+cO3B18srsCHbCJ7KN1DpVLMsRSjkDsl8q6w6vbs2OpxXb3DaYE1UqJpmd5vGyK2WRnGsnlw57XSSLwybSIlvVsr2N5K3kvqVyA9iacT1hz7duqHqDncmXfYz+IZZEbtCVGHIeVZy3eCOLYRQh9Skk8I28YSyOunfbrbNjqcV29w2mBL1KhV7U/URvEmMkRpvnDtwdfLK7Ah2wieyjdQ6VSzLEUo5A7JfKusOr27XGZnebxsitlkZxrJ5cOe10ki8Mm0iJb1bK9jeSt5L6lcgPYmnE9Yc+3ZsdTiu3uG0wJZpUQw9Qc7ky77GfxDLIjdoSow5DyrOW7wRxbCKEPqUknhG3jCWR1077dbaje1P1EbxJjJEab5w7cHXyyuwIdsInso3UOlUsyxFKOQOyXyrrDq9uzY6nFdvcNpgTVSommZ3m8bIrZZGcayeXDntdJIvDJtIiW9WyvY3kreS+pXID2JpxPWHPt26oeoOdyZd9jP4hlkRu0JUYch5VnLd4I4thFCH1KSTwjbxhLI66d9uts2OpxXb3DaYEvUqFXtT9RG8SYyRGm+cO3B18srsCHbCJ7KN1DpVLMsRSjkDsl8q6w6vbtcZmd5vGyK2WRnGsnlw57XSSLwybSIlvVsr2N5K3kvqVyA9iacT1hz7dmx1OK7e4bTAlmlRDD1BzuTLvsZ/EMsiN2hKjDkPKs5bvBHFsIoQ+pSSeEbeMJZHXTvt1tqN7U/URvEmMkRpvnDtwdfLK7Ah2wieyjdQ6VSzLEUo5A7JfKusOr27NjqcV29w2mBNVKiaZnebxsitlkZxrJ5cOe10ki8Mm0iJb1bK9jeSt5L6lcgPYmnE9Yc+3bqh6g53Jl32M/iGWRG7QlRhyHlWct3gji2EUIfUpJPCNvGEsjrp3262zY6nFdvcNpgS9SoVe1P1EbxJjJEab5w7cHXyyuwIdsInso3UOlUsyxFKOQOyXyrrDq9u1xmZ3m8bIrZZGcayeXDntdJIvDJtIiW9WyvY3kreS+pXID2JpxPWHPt2bHU4rt7htMCWaVEMPUHO5Mu+xn8QyyI3aEqMOQ8qzlu8EcWwihD6lJJ4Rt4wlkddO+3W2o3tT9RG8SYyRGm+cO3B18srsCHbCJ7KN1DpVLMsRSjkDsl8q6w6vbs2OpxXb3DaYE1UqJpmd5vGyK2WRnGsnlw57XSSLwybSIlvVsr2N5K3kvqVyA9iacT1hz7duqHqDncmXfYz+IZZEbtCVGHIeVZy3eCOLYRQh9Skk8I28YSyOunfbrbNjqcV29w2mBL1KhV7U/URvEmMkRpvnDtwdfLK7Ah2wieyjdQ6VSzLEUo5A7JfKusOr27XGZn2XxMitliTYsnkR7i10i7oy1bjEhqAUS29usOhQ2HtW1JPENiets2OpxXb3DaYEs0qJrDqg3kl7vGOWu/3kXCwuhmc3KsrkVKSfaqQt6OlLqFbHhcbKkK4VbE7Ha/8Ale/e/kj8Ez6FFgqj5UNpguRmdUrBfK9+9/JH4Jn0KeV797+SPwTPoVOxVOKI2qHOZ1SsF8r3738kfgmfQp5Xv3v5I/BM+hTYqnFDaoc5nVKwXyvfvfyR+CZ9Cnle/e/kj8Ez6FNiqcUNqhzmdUrBfK9+9/JH4Jn0KeV797+SPwTPoU2KpxQ2qHOZ1SsF8r3738kfgmfQp5Xv3v5I/BM+hTYqnFDaoc5nVKwXyvfvfyR+CZ9Cnle/e/kj8Ez6FNiqcUNqhzmdUrBfK9+9/JH4Jn0KeV797+SPwTPoU2KpxQ2qHOZ1SsF8r3738kfgmfQp5Xv3v5I/BM+hTYqnFDaoc5nVKwXyvfvfyR+CZ9Cnle/e/kj8Ez6FNiqcUNqhzmdUrBfK9+9/JH4Jn0KeV797+SPwTPoU2KpxQ2qHOZ1SsF8r3738kfgmfQp5Xv3v5I/BM+hTYqnFDaoc5nVKwXyvfvfyR+CZ9Cnle/e/kj8Ez6FNiqcUNqhzmdUrBfK9+9/JH4Jn0KeV797+SPwTPoU2KpxQ2qHOZ1SsF8r3738kfgmfQp5Xv3v5I/BM+hTYqnFDaoc5nVKwXyvfvfyR+CZ9Cnle/e/kj8Ez6FNiqcUNqhzmdUqyYrOmzYsozpSn1syS2lSkpSeHo0K26oA7VHuq91qzi4ScWZ4yUldCsFu/+Xrn/HN/8Fus6rBbv/l65/xzf/BbrawX1j6O4wYr2PiU1YtGyDIr5ktqdxiNZZuFSbeuY/fEXAPLkOqJDTMdtsFJTt11OlW22yUpJJUlfjcb/kKsGlYwqRjMy0PuXa4rlLY9kWtKGYzQRzcKkpkFzrJ4AGvbdJsMkixY0GMzChR2o8eO2lpllpAQhtCRslKUjkAAAAB2V095o7i1YliFlwq1G02QTFIcdVIffmzXpciQ8oAKcceeUpa1EJA5nkAANgAKvVWC959hmOS/EL3kkGJJ5bsrc3WncbgkDcgEDv8Ag84q1Z5l77Nkh2/DXWZ92yQri2xbL6SlI4CVyAobgpQNjv5yPhrLCjKTSta5SVSKu7lbkuo+JYrLRbbjcFO3Bz2kGK2p59RI3A4E9hPLbfbfeqexarYbfro3ZGZcmJPeG7MebGWwp0fwSobHsPLfc7HarhiGF2bDoSmYCFPS39lS5zx4n5S/qlrPPbt2HYN/hJNVkmLWHLbcu2X+2symlAhClJHG0SNuJCu1KvhFXvRXq2fT+n6lf3m/Lo/UutKwXT28XOBcbhpzkktUq4WVCXYktfJc2Eo9VZ7eskkJUfi7Tuazqsc4OErFoy1lcUpSqFhSlKAUpSgFKUoBSlKAUpSgFcOmaLpjh1HShIWUcQ4gknbfbzbg8651A2qmlOfZlrjjl/tT9zhYuhuDHvEq23cwXyw21d+lbCm1pdAK5MMEo2PW3SQU7iJNrcSlfeTZMvVqt9wt9pmzm2Zl1W43DZUes8ptBWsJ+JKSftVW1rsdD8yVm2GTjdsnRacbyu6qaR5dKwxanYUosOFa1KeXu+420QVFQQQOEJG4jqFpj4WE/D8oN5uWcNZo5j93JleqOI1apl2W2pUUQWUSHVJbS6ltLfSIi8KSSrfrJVRza5C6gnym51Kg7J9Bpz0rCHLJlWdvrRe0uZPOfzGal92B4hMSvZIeDTRVIcYBEZCCkE8HCBuMLyXTbwgZDl/wCwpyJnGENShi02PlyohYkvPOqDs2Sh7x9bbKC0WWWyUrJcQ7skIKZcmuQhRT5TZi1Xm13xh6TaZrcpuPKfhOqQfaPsuKbdQfhStCgfiqtqOdDMczDHMXuTecRPFrlcbxIuSm+mQ4fZktqWSUEpB6TpOQP9dQLhWL+ENmGlFuzTA7/lFnv/qXfKJl/wAoVPN9nPx+FCm4ZccixmkKUXWnFcDpUhtLiEpLm5zatkNVPlNwK6DOhCcLYZbPjami+GOMdIWwQkr4e3h3IG/Zua1Ssukeu1xh20G/apWKMjILQqS3csnhuTRDS3KZmuI6N+SlKVpkpKiX1KJbQpDaVoCzlmomjOo8fMsWgaTZFl9uxuQtasinHKpEqS3xSoHFwma84s8UZmQkcIISVFQHErcxru17DUV7XNiKob7fLTjNlnZFfp7UK22yO5LlyXTshllCSpa1fAACa1qyXSvwkLfid8u2D5nk8rLmMkuLWMR7lkIVDiWYsvtxunRx8ErrrQ7xPh14exjlwEVaFaKax5VoxqVi91k6jMS7viciBbYN/wAjhvOTrj4u+kDhafkpQ26txIWVSEbhKBwADcRrvgSoLibdUrVnJtOPCDXqfLbiXbPJePNKtycdl2/I40eNFYSlC5Xj6nXulW8p8ujcRZA6HgSD7ZNSBo/o/e7dFfvGpeRZjPvUPJLs9bWn8mkiI1b03CQYIDDDqWnEqjlpRD6Vr6xSrYJCE2Um3axDikr3JmpSlXKClKUApSlAKUpQClKUApSlAKUpQClKUApSlAUd4s1oyG1S7FkFqh3O2z2lR5UOYwl5iQ0obKQ42sFK0kciCCDWM+pXIMQjY1ZdLk2WHYYE1Sbrb7j061uQ3FFS1x3wpSkPIWSoBaVIWCpJKOS05lSoauTct1myGyZCmaqyXNiZ5OmvW6YltW6o8lo7LaWntSobg7HtSpKhulQJuNYtklsyKBcoF7wW32UPyrpFGQpfjBL86DsWiUvBQ2WyFh0cQXxJbLY4SvcZTRBilKVJApSlAKUpQClKUApSlAKUpQClKUApSlAKUpQClKUApSlAKUpQClKUApSlAZFhn7ln/wAs/sWqyGsewz9yz/5Z/YtVkNcXEfWyOpR+rQqOcwvFqx57IcgvtwYgW22IMyZKkLCGo7DcZC3HFqPJKUpBJJ7ADUjVC+tkvHY9kv0LLLG/ebRe59usEqAzvvITcHI0PgVzHUJkDj3IHBxb8t6y4N2m3zGPE5wXSVeIWmXaLQtudkj99elzZc8THTy6N99brbTYBIS002tDSAD7VtJO5JJotR8kk4tiUu4W9HHOdKIsRO24LziuFO/MbDnvvv3VcspyS3YlYZl/ubiUtRW1KSgqCS6vbqtp3+mUeQrDo+LZzm0i2XrNbnGtsKJMZuLNjjxwspUjmgOvEgk8zukAjn8Gw7dGCVpz9ldvMcupJv1Y7y/Ylp/Y8btDUWRCjzp7iAqdMfR0rkh4hPGoqXueElIIHdsO/nVkxTSqNi2ezcghurFrEbht8UukpjuOq3eCU9w6o2/8/wAG9XjLspvdvlt2DFrC9cbpJbSsKHCUMpWVJSeEqBWd0K5bgctye6sKMLJHk+UbrhN0uL7zKnlSZTrCyW0K5lI4tkIBVyCQE7nluTzpPEygneWb5Lr8WZIYdTtlu5iYKVEQtd6IJ9bCV1S0kjaPvxObcCduLtO45dvOu2137MrTOVFs2G3J4BQQ7BLja20pSTxlsJV1Fbb8xuk94351rwqqTs8viu8yypNK6z+DLxqK23Z8pw/MkITxNXEWqQQOsWpCSkHfzJVudtt+sdtudSBWBZvHuOfaftu45b1GaZTL7bDziUFDjL2ywSTw8ilQ7warbBqA7KvSMVyywvWC9Otl1lpx5DrElI/1TqfbK7ynbcDz7Gt1xc6aa3q/UaqahNp8pmFKUrXMopSlAKUpQClKUApSlAKUpQClKUApSlAKUpQCrXi+N2rD8et+L2RpbcC1x0Ro6FrK1JbSNgCo8zV0pQClKUApSlAKUpQClKUApSlAKUpQClKUApSlAKUpQClKUApSlAKUpQClKUArD8D9SWNyLhpXjHjTZxltqWqO7upDEeY6+4yhtXZ0aShxCUfSJbSns2JzCrE9MvrecRLexYGjZZFqkPSrpxDjTKbeZDEfbffYodkL3II6vLbnvD4kovtKUqSBSlKAUpSgFKUoBSlYJqtk11tkW1Yrjrwj3fJ5XiTEkq28WaG3SvDv3SFDbbz7jmADKWs7F6dN1ZKCMrfyLH4zz0eTfbe07H/xyFykJU3y36wJ3HLz1RPZ5g0fbp8zsTfF2cdxZG/3VVhWM6BYBY2kvXK3OXqao79LNWSFHvPRg8IHx7n4TWSN6a6dRiQMLsZO3si1wW1Ab9wBB51LcEbboUE7Jt/BePFjk7qxpqykKXm1pIJ26kgKP3BvVA9rlpSwFFeYMHgOx4GHl9/dwoO/2qvsfEcSY4HWcUtDJSOFpKYTSSBt8CfN9wVUs222pQWGYEZtpO6lqSylI+JI25VGtDgyFSocH1ruMMc8IbShCylOQPOAfTJgv7H7qQapfokNN1dVhd1fcPY23DJUfi3NSSlYbQhLbYTy4Wmxy2A7z5hX0qUR0RWTtzcXvtt8AqdeHDt/QlRoL/Q/7v08PcRi94SGFt7cFhyV3ft4IKBt91wV1fRKYf8AWxlP4k187Upl4jhVwndXJtHn+E18ClKSUlzqDm452bnzCmvDh2lkqFs4f5foRU74TeEsJC38eyZtJOwK4jIG/wBt2vjPhQ6dub8cC+tbdnHGaO/3HDUsKWeIK2JWfaI83wmijuko6Q7J5uL3/oFNeHu9pH/T/Zv+79CMWvCW0zcSVLcubR322XE5/HyUar4XhBaVTNgvIXIyj2JfiOjz94SR3efvrOX48WV1pENp4rSUIQ4gHdPw791UEjF8Xkno38ftbiWua1rhtnbzgbjlTXp8H1jUw73xa+K7iii6p6cTN+hzezJ2/wBbLQ1+uR56vkK+WW5KCLdd4UpSgSAxIQskDt7DVhd060+fA4sGsQKvaJTb2kcvOdkg1jGYaC4TfYKhY4bdlnMBa2pMYcKC4diApPeAR3bbb8qJwb5UVVGhJ2u11MlKlQTpRm2RWG6QcRyK6+PIky3bc9FkqV45bZSQSgAqUS5HUlJ4T3E7bjbrTtScXB2MOIoSw89V5ilKVUwGRYZ+5Z/8s/sWqyGsewz9yz/5Z/YtVkNcXEfWyOpR+rQqKNSfVb00v1FeK+UPLln6bxjbg8Q8YiePbb/T+KeMcP8AC4aleoa1jh2ic0+ze8kdscdOTY68iU2rYuSG58FbEb4n3UtsHzh41lwftvoMeJ9ldJY9Qf8A7rmOE4q71osqa/cJCO0K8Wb40BQ70lSu87bjmDWfVgGbqTbNRsFvj6gmMt+XbXFE9jjzYDQA+FQI3rP67dT2IdH4s5cPal0/gjDbrFyKbnxj45OYhurtSEvvPNdIENFT+6kjbcEJ4+ffuBX1q26hpgK4sotxaVb2XFteIgqDKVgMt7cuaySSO/ftO4qjyiJYpWa7ZHeXLbDTa21KU2/0JfAW8S2CAeIkhHLntvvtVvTDwNMfgVmsxUnoGlFQuRCDJUrqn4m0AAkb8/irn109fdw/035OJv0vYXfYyVq06mtXIkZZbDJ8pJ5KhbhUpbY4+3tS2knbzHsHMVYLLa9QHb+tmx5XCRIHSESHGggLAB3O/Pt+356+t27TZqZ0Xq6m9AZYaQsXFQ4WQkF5w8vpzyA+Pt5b2WDbtOpN0WmblE2HAJWUKEgrWkc+EHYcz2c6xJPh/gjJdcf8jP8AAQ6MXYS+ridEiWHFA8lL8Yc4iPgJ3NWfWO2OycNdvcFYauGPuoukR3bmlTZ3UPiKd+XYdhV30+ShGJxUtKKmw7JDaiOakdO5wq+HcbHfv33rp1QnM27TvIpD5ASu3PMDdQHWcSW09vwqHx11KLaqxtxObVScXcv1rmouVsiXFv2spht9PLbkpIPZ9uqqrTiMF614nZbZIBDsS3RmFgpIPElpKTyPMcxV2qkklJpFo5rMUpSqkilKUApSlAKUpQClKUApSlAKUpQClKUApSlAKUpQClKUApSlAKUpQClKUApSlAKUpQClKUApSlAKUpQClKUApSlAKUpQCsbnw5a9RrHcEZYmPFZsl1ZcsRXsqc4t+AUSwni5hgNuN78J28cHMb7KySsPuj2JJ1exlibFlKyheN3xdtfST0KIAlWsTELG+3GpxUEp5HkhfMcwYZKMwpSlSQKUpQClKUApVnzPIfUjh99yzxPxvyLbZVx8X6To+m6FpTnBxbHh34dt9jtv2GsB0r8JfS3VboYNtu/ku8ubJ8l3Ehp5avM0rfgd79gk8Ww3KRWpVx+GoV44erNKcs0nlfo7t5R1IRkoN5slaotyqaynXjEYkhAUBa5am+LnstSV+18x2b237wdqlKoVy3gkeExirSSCUWhYVuOw8EpX9RBregr36Gb+BSdR34P5EvB5R4lcWyztxK7QkeYec0QjfruI6ifaJ7d1f+poA2QeZCUjzdn/ALn+gUK1KUE8HwJT5vg+U/arX6TI+EcvHjo+fz2R5RUSDxfc2+T+uo1vHhMaH2O83LH7lm6G5VkkqiT9oMpbMZ9IBUl59LRaQQFJJ4lDkQezapNUtABSTugHrHs4j5h8FaQJY1OuOW60x7T4TmL6VY9EzyQJSZlraXMeK4MJal+MuSGiw2pCkoCkbLTwqIUDttScnHcEtbevHjq+W6Vqu1tvdsjXqw3SLc49zZQ/GlxXkusuMqG6VoWklKkkcwQdjVYgobRyHsYO/P6dXn+KtOtFNYb5YcpwTSyy2/Hce0ttjl0tzGQRi41AyVtiCy40mGqWelSUvPOFbgW4l3o1lLigFbXm7eEFqlm2WZ9YtEHY+VWSw5Ha7e7drGxEnP2mG7buN/xdtx5pqSsSmyniWshvpFkpUEcIhVFYlrju8eF37tnpV3tMC4QbfdLxEizLu8qNCaeeS25JcS0t1TTKSd1qDbbiyE7kJQonsNXBRSAlRT1E8m0D6Y+evP7Ufwjc+t2h18uWM59qE5Kt+S3KzP3O/wASztKLgxq6P9FGftRUw4luQww4rY8aHAEk8iKknNsy1Z0BsGIazZXqhec1mXmHPRcMdTEYjWtDbNhnXBsMNpQp5K+mhtgurdWSlS9x3AqqKtOTv48fI25CVDccXsqua1fUjzV1kpPCUglpJ6ie9xXn+KtMdKNWPCCuF/wa55dqNiTxy8LlTbK5lNtfRMSuOtbUe3RY0MPtkL4CXFynkpQFdJxnYprsa1l1qiak4ZbNTk6hW7KcjddQ3iMC02FNlbKW1laVK6d64GOggby9wjcA7Di4aedT5CVBx3+PHYuc3BKloVwAjpnOaldyR5q+ApKU8PNtB6o73FeetQsQ1j1eTqng9i1dlaiWe+ZNKW3Ixm3Wewm0MhKFlwEh924rYb2G8oKCCQk7Di4a2/4igDZASvbkD2Np85q0ZKYa1UvHj8Fzs+ndvi6/XI3cc+pHmFfAQUpeUkhAPsaB2k+c18QEuoJWSGknc79qj370Wp0qBSn2Q8kj6gfLV+crbO3L48cy5yNr3BtidesakOW+MuTJtslTq+AEhaAShXZzUANge3apUqJMje4PCDwuI0TwJgTCo891EtPb7+f2oqW6zy3R6CuMVtT+n8WKUpVDTMiwz9yz/wCWf2LVZDWPYZ+5Z/8ALP7Fqshri4j62R1KP1aFQ1rHMtEFp969427fI6smx1lEVtO5bkOT4KGJPxMOqbfPmDJqZaijUn1W9NL9RXivlDy5Z+m8Y24PEPGInj22/wBP4p4xw/wuGsuD9t9BjxPsrpKXN8WRmGOSbN4wY0glL0SSkkKYfQd0LBHMbHzc9iaxmFqhcLFFbt+oOL3aJc2xwqehxC/Gk7HbjbUjfbuJSezceflIlK7UaiUdWSujmSg29aLsyKE59YrxmXlKPhl8vQbgttNRxbOJaXgXiklCx7UlQPLt4T27bVWjK7S1DMdrSbIT/wBhLKFKsqB9OTJc7T2bEA7dXbu255lKtF2RfzkFlu0eI+qIIhD0MvcOxc2UkhxOx9kPn7K61WzKS2WhfLSkGO1F5Wpzk0hXFw83+xR9t5/tmtSvDXm5Rjl0vgbVKpqwSbz6DGDl1kalLdXo9kTbRltOLb8ioGzCUkMI33GxUobnz7dp252SFlNvYvT0i56T3WWtSneOKbYEcKzvvyHZsd+XdUkLYzByQJTt+tK3BK8c3VanD7IE8Kf/AB+xI24R3bfHVBbbDldpneUYWUQUyNlDjVbFK337d93qxeZfu/5Mv52PHsRiGK6q45ZrKi2yrVekOtPySUN21xSUcT61BO45bgEAjuIIrtuDVz1fuNvjG0TLdiUB9EyQuc10blxcSeq2lvfcN9u5Pbv5wKz+wWpdltbdvckiQtLjrq3AjgClOOKWdk7nYbqI7TVwrpKrGGcFnxuaMoOXtPIUpSsBkFKUoBSlKAUpSgFKUoBSlKAUpSgFKUoBSlKAUpSgFKUoBSlKAUpSgFKUoBSlKAUpSgFKUoBSlKAUpSgFKUoBSlKAUpSgFKUoBVgmzMiRntngRrGw7YXrRcnptyVt0saWh6EIzCee/C6hyUo8jzjp5jsN/rG58OWvUax3BGWJjxWbJdWXLEV7KnOLfgFEsJ4uYYDbje/CdvHBzG+yoZKMkpSlSQKUpQGKaj6n4dpTYDkOZXPxZhSujYZbTxvSHNt+BtHefOeQHeRWst8/wga+lU3jWmo6ME8Ls64dZQ35boQjly/hHmfg5x14YuV33Ltb5OHpfXIh2LoIdujJAADrzTS3SOQ6ylkJ3PchPdWzuEeCNo5jdggQ79ise93VplJmTJLzqkuvFICylHEEhG+/CNtwNtyTzrwNbSOmNN4+thdFTVOnSdm2s293B8qdrWy3vM5kqtfEVZQouyia9Zb4cGVZZit5xWRg1qjtXm3yLe46iS4VNpebUgqAPIkBW9a016L6p6AaNWbTHL7xa9PLTGmwbDcJMZ5CFcTbqI61IUOfaCAftVpRploRqZq08lWKWBYt/FwuXOYSzDRsdj1yN1kHtSgKUPNXkfKPRml3iqVHFT89Np21VuV+hGji6NfXUZvWfMZdpX4XGqWnHQ265TPVPZm9k+KXF0l5tPmakc1p7gArjSAOSRWwOn+pFm1n1osma2O3zYUdq2OtuNzEpSptxCHUrKSkkLT19gfugEEC5aV+BbpzhfQ3PM1eqy6o2VwSG+CC0rzBnc9J3j2QqB5HhSazB23MRvCDjBDCUMMYsFsttDhShIeLYTsOQHcB2cxX0DyU0dpjA036Qq3hbKDza/8ALk6E2ug7+haeIouXnJZary3kllQ6oAIUr/Fjv/8AMfhNclHg3bQetsONQ+lHmHw//NOs1u4ojpl7nn2ITXFlsLJeUo9Enc9b6Y95Nen5joZWu9y7fH6n1DaUjpneSE+1SOz4Kwy4aO6SXbKH8zuml2IyshkFJeur9kjOS+QATu8UFZVsAN9+wCr1muWRMPxW9ZfcUrMOxW2TdHkp7eiYaU4o8+W/Ck7Vr3etcPCExnR2Nrbfsd01gx5sJm5Q8WVcphuEtLyUraiNSQngXMWFJSlCWVArUEg896pOUVkXinvlvfjx4vsHk+F4dm9tbsWX4nZr/AQ6lxuJc4LUtlC09ighxJSCNz1tt+4V1ytPMBl2i4449iFmNtukZES5MiC2luSwjfgacAACkgKVsk8gFHbtrEcz8IvSnS8Rbfn+Rm1XqRb0XKXbmIUie/bYxG6npKYzbhYZTsoF1zhR1Tz5VbJfhW6IszLjYY2QXC53a0XCVbZNmtNnl3K4F6OsJW4Y8VtxaWSSCl1QCFbjZXdU60VvK2cnlu8Z93WSHNwzC7jaIVgnYfZZNphAogW123tLjsAtraJS2U8KAW3HEcgOqtQ7Caq51hsEsQmZlngynLY708RTsZCvFHOiWzxNbj2NXROut7p26i1jsJFQDknhh6bWrVzT2xM6jWOBZr/ZrvJvkS4qSxNt8kJhOQESGl7OxlqQ7I2bWElX/wCmsis/hc6MXmRHbt0nIJjblzXap8mNZZD8W1yPGjGQJkhtKmo4W4EkBS+LhcQpQSk71GvG9rlkla/J48c7JExLSjTHApsi84Zp1i9gmy9y8/a7RHiuPEncla20Aq58+faefmqutOGYvYrtdr9ZMetsG7Xx0PXOcxGQh+SoADd1wDiVsAAATyHZWG3rwjtJ7Ffbjarnf5u1ofES53Fi0TH7Xa3yoJDcqc20Y7KwVAELcHAfb8PKrXM8KnRaHPumOM3y5XK+Wm4y7ZLs1qs0u43Hpo6+BxRjxm3HEtE7cLqgEK35HflUa0ESk27vf48c/QSNZcPxKw3a5X+xYxbYVyvLoemy2YyEPzXAAAt5wDiUAANgTsO6r0lPSnh33G/EtfZv/fu+7UWXLwldJbRDgGRdbs9PuUBm4m1QrBPmXKPHdSVIU/EYZW9HTsD/AI1Kd9j8NSbBuEW7W2NcoKlqhymkPslaFNqcSoAglKgFJ5EbggHuI7qtFp7iJc3jx+vRUOK5p4R1R7RO353yChJa3TxeyL5k9vCPlod2gHnOss8kg8ufnrrQ2QS64oq4ldg+mPmqxWKVub5siq/uOueEfh7PQkJatL6wRz2SUSRz+2P6amOogu6lK8JTHio8/ILnxdsjsqX62Jbo9BXG74f0r5sUpSqGkZFhn7ln/wAs/sWqyGsewz9yz/5Z/YtVkNcXEfWyOpR+rQqGtY4donNPs3vJHbHHTk2OvIlNq2LkhufBWxG+J91LbB84eNTLUNaxzLRBafeveNu3yOrJsdZRFbTuW5Dk+ChiT8TDqm3z5gyay4P230GPEeyukyKlKV1TnilKUApSlAKUpQClKUApSlAKUpQClKUApSlAKUpQClKUApSlAKUpQClKUApSlAKUpQClKUApSlAKUpQClKUApSlAKUpQClKUApSlAKUpQClKUApSlAKw+6PYknV7GWJsWUrKF43fF219JPQogCVaxMQsb7canFQSnkeSF8xzBzCrBNmZEjPbPAjWNh2wvWi5PTbkrbpY0tD0IRmE89+F1DkpR5HnHTzHYYZKL/SlKkgUpSgPNnV7/Sku3+8sf9duvSavNnV7/Sku3+8sf9duvSavCeRv8Vjv/wBPxkc3Ae3U6e86ZsKHcob9uuMRmVFlNKZfYebC23W1AhSFJPJSSCQQeRBrmyyzGZbjx2kNNNJCG20JCUoSBsAAOQAHdXOle6sr35TpCo4mdIzr9FdShKw/iqmgD2gplFW/wdo/pqR6ifNLxCs+umIl9zo1TYDsIr2J2LiyG/g5r5fbrJBXuuY2sIrza5mSahvpVK41cSB7dX1R8w+AVxdfDyg02OrvsB9V/wC1H1laejbTs0DwgDlxnzD4KJaPF0YIC9h0ih2ITt2Ctd8EZkkvXl8Obn8dBh+sOJXHUHSTOcDsUiKxcMix25WmNIlLUllD8iM402VqSlSgkKWCSEk7bnY8gbTphoNpbpfb7RMsunGNQ7/CgswxPi29vxglDYSrheKekCSdz2jt7KkYFO3SqTsyg9RPetXnrmgqClOOkBwjf4G0/LVdVXuS3lbx0d/Uax5B4NmrF8tGp2EjNsctdq1HutxuN0vkaO65eZ0Z5JTHtyysdGw000EMFaek9iSoJQhSyoZ14PGjF30glZ3cb6izuv5Xd4tzZfhqUp1YRb4zLiHSpCTsH25CkDn1XCTsVECYWglSelUg8A3CEntVXzZx5ZBUOXtj9T8H9+/4qKCTUkVfKuTl8eOBH2V6b3W+awYDqNFfhtxMYZvDNxCyUvLTLYaS3wbAg7Ka625GwI23NYXb9B8jtng1ydHGrlbFXZ6bMlRnklaWFdLdnJiSo8HEDwLSknhPWHeOdTsooWlI4T0STslPe4fkr4sqQrc7F1Q6x7m00cETGTbz8eOXq3mmGP8AgXZfjK5mOuYno/e4797kXRWXX2LNuN2dDshToLkFQSwXkcXCFB7gPCklB6wqf9INJ52muY6n3+W1bVrzrJEXqG/H3MjofEmG1If3SAnZ5D6kgFQ2cJ5EkVKLSQhIedBJJ2bT3n4fjoErJUjj9kVzcX9SPMKiNNRzRLmt3j/hfoa96w+Djd8ryK63HS+/XTEpeXJSvI7/ABMsucQMPtNIZaeagRVoRIf6MBIK3ENjowVJcJIM6Y1ZPU7j9rtD90n3IWuExDTLnvdLKkltAT0rq/p3FbcSj3qJNXBCUFIUU8LLZ6ifqj56+q3dUekO2w57fSD5TVoxSd0Vbvl4/wCfluOBSX3Cpz2oOx2/VFfXFKJ6NoDpNuHl2IHm+OuKlLKQGxw78k7doHwfL/7muQaUygNII6RztP1Ke80LbrX+C7/H6xnNjNjwiLI4BxBvHnAFb/ThboP9CqliokvF2iteEDi9viNhx1VqkMPEHmlJS4tJ7e3dBO3bsd/NUt1sP2Y9Bjx19aDfD8WKUpVTSMiwz9yz/wCWf2LVZDWPYZ+5Z/8ALP7Fqshri4j62R1KP1aFRRqT6reml+orxXyh5cs/TeMbcHiHjETx7bf6fxTxjh/hcNSvUNaxw7ROafZveSO2OOnJsdeRKbVsXJDc+CtiN8T7qW2D5w8ay4P230GPE+yukyKlKV1TnlFe7rHsVmnXqUR0MCM5JXudtwhJVt2HzeY1FtyznVOFjLWczJmGWiBIjpksQpokKdKVDiQklJ3UspIOyQOfaBzqQc9gpuWEX+Cp0NB62yE8Z7Eno1bE/B56jzSfDVX+3WrUDNH0XCQiK2za4xTuxEYQAlPCgj254dyfP92skbRjrM38LCn5tznyPwl0lytWX60Xa2xbozgVmZbmIDjbb89SHOE8wSnbluOfOqpGVayJSoOaaWtwtkhTiLyhKT8QI3rOT0jzykJOyuxSvqB5h8NfFnpvYGuTSery+nPmHy1jdXgkW9RvOC7cu3xvMHGXawKUlA0wt5Uob7eWkcvj6vKuD2YaytAlGk8N0DfiKL4zy+7t/RWe9VolptQCtt3F9yRX1KhwJcIPRpOzaO9R85p5zmXb3hunvVNW+Pf43kdPZnrf1UM6RRELUfp70wrl8QUNqo5Oaa/obU61pZbEpb5L3ntuH7QS6D/XUo8aiooCgHCN3FDsQPMKJUkpSvY9Gk7No71Hz/3+Op86uC7e8KUFvprt7/G8iJ7OvCKPChnTK1oWefXXxcviDwqmezbwlVoPDp/aWuFXNSUc/i5vmpoWSgkA9c7cah3DzCuG6AlMhzfgTybQO8/+tT55L/Si8akLX83Ht7/G8hU5f4TQUEHCbdursHAj56uLmXeE240rhw6A3sduNLbe4+Ld0iptbCllRWdlKHsh39qO4CvpcShAdI2Qn/FoHafhp55e6ifPQvZU436P18byDE5N4UCXEhWMRVHt4S0zzHw7OVcmMq8JoMlZwKxOjffiW6gEfBsJA/q3qXxvupKljjPN1f1I8wr6XOFKXAjq9jTY7z56Ot/tQdWLy83Hq/XxvI8iZDrypZRKwOwJ3G6T4/w7fHspVdU3WW94stIz7Tm422Kl0MruEN5MqPvsOtuANgSRsCSdt+0gipJG6NwVdYjd1fckeYVQ5A3DcsE7x63sy44jOK8VeSChwBJOygfi+1UKom80Yr05O0oK3Ndfj43lwgTodzhMXG3yEPxpLaXWnUHdK0Ebgiu+sA0IhyoWltlRKkB0upceb236iFOKKU7n4PiHPbu3OIaqeFxpbpx01utsz1T3lvdPiludBZbV5nZHNCee4ITxqB7UitTHY7DaNg6mJmox5+XoW9/A5+JlTw0pKUsk2TdStLNHPCQ1M1d8IXGLbebki32RapyhaYALbKuGE+U9ISSp0ghJ6x4QpIISmt061NEaXoaapSr4dPVjJxz5bJO/RmYKFeOIi5Q3XsKUpXVM4rVnIfCW1UgZNfbXbo+KJi227zoDAetslxwtsSXGklShJSCohAJ2SBueytpq0Iyn/vplf+8t4/59+vnn/wAh6WxuicJRqYKo4NyaduFjn4+rOnGLg7EhfRP6wf6rDv5plftdPon9YP8AVYd/NMr9rqLKV8m+menvvMuzuOZtVb3mSn9E/rB/qsO/mmV+10+if1g/1WHfzTK/a6iyvoSpR2Skk7E8h3Dtp9M9PfeZdncNqre8yUvon9YP9Vh380yv2un0T+sH+qw7+aZX7XUWUp9M9PfeZdncNqre8yU/on9YP9Vh380yv2un0T+sH+qw7+aZX7XUWVcVY/dUY63lSo4Ftdmrt6HeNO6n0oStSeHffklaTvttz+OrR8sPKCd9XESds3u3dRKxNd7pMkL6J/WD/VYd/NMr9rp9E/rB/qsO/mmV+11FlKr9M9PfeZdncRtVb3mSn9E/rB/qsO/mmV+10+if1g/1WHfzTK/a6iylPpnp77zLs7htVb3mSn9E/rB/qsO/mmV+10+if1g/1WHfzTK/a6iylPpnp77zLs7htVb3mbp6NZneNQNOrbld/ahtz5T0xp1MNtTbPsMp1lJSlalKG6WwTuo8yazWot8GT/MtZv5Zdf8A+Rk1KVforQ1aeI0dh6tV3lKEG3xbim2d6i3KlFvghSlK6RlFKUoBSlKAUpSgFKUoBSlKAVjc+HLXqNY7gjLEx4rNkurLliK9lTnFvwCiWE8XMMBtxvfhO3jg5jfZWSVh90exJOr2MsTYspWULxu+Ltr6SehRAEq1iYhY3241OKglPI8kL5jmDDJRmFKUqSBSldMybDt0V2dcJbMWMwkrdeecCENpHaVKPID4TUNpK7B5v6vf6Ul2/wB5Y/67dek1eaCbpH1X8J2NdbYytUK+ZYwtocJCvFQ+nrkbgg9GniI35c69L68J5FNVKuNrQzjKpk+t/ijm6PzdSS3XFKUr3h0hUVax4Oq83a1ZP5Dn3SLEYdizmrapImtoJ4mnmAo81oXudhzO+x3G9SrSrRk4u6MtGrKjPXiQti1713L7zbWOG4QWUhph6+NIgyE943CFHj5bAq257A8udXqReddUoUyxgFjUdwS55SBCvjBUD/VUn0qXJN31UZ3jLu+ou3vIhdybwiULU4dM7OsNg8PDNbI5d4HTbn+uqJ7NvCAaaHSaWw1Aq3VwrKio/Ds4TtU10prR91ErGpf9uPb3kDPakeEWwQpemUM7jZPBAfXt9x07fbqhOrOvjSSy7pilCEnrrNlmlPwkkL5j4q2HpU68fdRdY6C/7S7TXr15tYEbvSsatEYDZKS7aLiBz8229cBrbqE2AiUrFY6t+IpetlzCl+YnZJ5b/wBVbEUqdeHukrG0/s11/oa9K14ylDm7+T4C07wjdC7fdwpG47P8XXA68ZGUBBy3T7bfc/8AYbv1vj9jrYilNeHu+OoLGUl/2+1flNfUa/X4DdWQ4NIdJ4UJaiXVJ58tgCz2/brqVrtqDJQE27HLVcFpUCWYsScpau3md0gefvrYelNaHuhYyjHNU+39EQbZ9UNbbg4pxGkhWVjdCnGnY6QAPO4dj3VkiJ2u1wiObYrjtueX2mTOU4ezkNm9xyPw1J1Kq3F7oopLG53jBLr7yP8AANLnsbvs7NMnvXlnIrinhW+G+BphBA3Qgf8A6QAdhskAAAb7yBSlVcnJ3Zq1KsqstaYpSlQYzIsM/cs/+Wf2LVZDWPYZ+5Z/8s/sWqyGuLiPrZHUo/VoVDWscy0QWn3r3jbt8jqybHWURW07luQ5PgoYk/Ew6pt8+YMmplqKNSfVb00v1FeK+UPLln6bxjbg8Q8YiePbb/T+KeMcP8LhrLg/bfQY8T7K6S6UpSuqc8xrUuV4np5kj/FwnyXJQDxcOxU2UjY+fc1juhzyn9LcfKR7JwPoSN+SQl9xJV8Z2q6ayuIa0vyJSzsDE4ftlSQP6SKsegcketRaUNI4VoXIQpe/bu+sj7fP/wBavL6q/OdLDx/6Vte9+Hj5EhLVsTGYO3e4odpPmHw1yHsADSAOlUNgO5A/v92tc4/hXZHadNEa0ZHow7CwpwKWmW3ksRc0oDpb3TGWGwtRKTwtpcK1cgkEnY7Cw5CJzLctvpEtPNpeUpxstr2I3AKVbFJHmPMd9aqknuKtLdyfN+OT4HYEtqClKJ6FB3UT2uKrmVLWQsD2RQ2Qn6gHv+OuLit+uUgNtjdAI5fGask3Krfb7uzbZykRYkmOlzyo9MjoYLq3m2kRwC4HFOrW6gAhBSSQni4ilJm9ibXzfjxy9RemwgoIJ9iTzWrvcVXa44UAKKQHFckjuQPPVNFu9nmPSI0K4RZD8FYadjsvJWthZG4C0g7pUR3Hur7FdamKWpqQh0tuFLq0KBCVD6Xl2Eeb7fmqd2SK+16z3ePD6kdiGxupbu/AncqJPb/7+f7lAHZDoO3DsOqPqB5/jNcS8mQ/0DakdUcSW9+e31RHm83nrn0jRdVEbeHEgcbx4utzoS21m9/y8fpxOQ4FJ4QdmUHb/wA5rgVOKc4twVr5I8yE+eqe5z4dtt8m6XB9EeHCZW86tZ2Q20gFSlH4AASfi289Rn4OevMDwgsOm5AjGZ+NzoEpLU22zlhTyWXmUSIjwIA3Q9HeacHIbFSk8+Hcw5K+qElFXfjxy8dxKmzaWSTv0KTufO4r5K5pC+IOnYuKT1QexCfPXFKlKO5bG3Y23/6/FXMICwSte6B7dX1Z83xCpREnbf48cvVuR8SlAT0iyejB3G/atXn+SrXlshxnG7y60AXkW6QvnzCAG1HarlIfS0tBWtKVrPC0lRACd+/46xzUR5TGn+SOMFQSm1yt3AdipRbUNwfgJ3q0c5JImnHWkm/HjtfMjVTUvBfCSyPTO0PYtdV3XD1QE72e0AsyQnnxB5sdaSCe5Klc+fRp7a1UeZejPOR5DS2nWlFDja0lKkKB2IIPMEHur1L0wudts2kdjul4uEaDCjQAt6TJdS000niPNS1EBI+EmtWvCh1t0FzlmRbMdw5GQX5KS23kSAYiWCBsNlABckJ2I4VgI57pJr5r5aaCw0ZyxssTqzd/Vm2780d7S5rNc6R5zS+Ggq06jnnd5Pp5DW/ELPlN+yKJacKjzH7y/wBJ4s3DWUvHhbUpfCQRt1Arfn2b1JPrQ+FJ9b2Y/ja/Trp8E6bDt+v+LTJ8tmMw349xuvOBCE7wnwNyeQ5kD7deinqzw/667P8AjzXpVyfJjydw2lsJKvWrSg1JqyaXJF3z6TUweFhXg5Sk1n3Hnj60PhSfW9mP42v06etD4Un1vZj+Nr9OvQ71Z4f9ddn/AB5r0qerPD/rrs/4816Vej+hOB+8z/uXcbXo+n77PPH1ofCk+t7Mfxtfp1VY3DutvtfiF9bebuUaTKZmIeO7iX0vrDgUe9XEDv8ADXoJ6s8P+uuz/jzXpVo7kTzMnLsokR3UOtO5Fd1tuIUFJWkzniCCORBHfXiPLjQOH0RhaU6NWU3KVs2nbLmNXFYaFBJxlcoaUpXzM0iV71cZOkGLYzb8VCIt/wAitbV8uF3DaVPpYeUroI7KlblpISniWU7FStuew2r7o1eLnm+uEGZkckS5F3izY0tZbSnpk+T3W+sEgAkhI3O3M8zzJqgiaq43dMetVk1F06ayN+xMCHAnM3JyC+mKDullzgSoOJT2Ds2Hwkk1Vl12k4/klom2XErfbcfsrzr7NlhOFsPuLZcaDj76gpbrgS5txK7hsAN969TTxWFjiaNV17UouD1EpZWte6so8btOTd92Z0Y1KaqQk5+qmsrPk335OOauW6JphY7ZYrXfNRM6ax03xlMq3w2LeudJXHJ2DziUqSG0HtT1iVDfYciK7dRtGJWnWPs36XkkKcmXcTFiNx21Dp45YS6mQCTy3CwCnbkSOZ3rtOquH3a22ZvM9L271cbHbWbVHkpvD0ZpbDW/RBxpKTxEb89lDf4KqHdbLZksd9nU7T+NkhE5c2D4vcHLemGlbbbZZSGweJsJZbABO427TvWNw0RKjKmpRUmlqy/eZO3ra+TW/wBlQi1xfKVthXFxur8j9b43/CyKVnQy/TBbpkS829q1ybDGvs25zlGPGgoeUtIbWrrFSuJsgbDdXmHOrhqLZrdjejuH2+0ZBHvUS43a5zUy2GXGkKKEstEcLiQobEEcxz7RVwuHhE2i/wBpZxvJtLIEqxsRmGUQItyeiJQplbhaUlSQVcIQ5wlJJ3KeIEb7VimoGqzWc41aMaYw+22ONZJMhyKmAohtLLgTsgpI3Kt0kqXv1id9h35K8tE4fD1VhJ3lKKW6d760W1mrKNk97bb4LJ2m8NCEvNvNrn33XwtYt+nWQ2i0XBVtuuD2nIhc3mGUeOlxKmDxEdQoUNt+Ib8vpRWd6u3XTTCsvv8Ahtg0ktKlxR4sic9PlLKVKaSSoN8fCCkqO3xVEdhuabLfLdeFxvGEwJbMks8fD0gQsK4d9jtvttvsar86yhWa5fdsrVD8UN0kqkdB0vSdGD9LxbDfbz7CufR0gqOAdFauvrK14RbUbSvm4ve2uW/AwRr6tHVyvfgt2d87GZ+s9j1lmQLDnupEex3+4BpQtzNuXL8UDoBbElwKSltR3G6RxEAgnkd6wHJLDOxbILjjdyLZlWyU5FdLZ3QpSFFJKSdiQdtxyHKpHuOtWK3e9+ra56URJeV+wuGa7dXjEMhtKUocMUAbjqJ6vHtyqMLtdJ17uky83N8vTJ77kmQ4QBxuLUVKOw5Dck8hTSXo+MdXCWeeTWvfV/3a1lrf0q2/mGI8ylalx593Pfl6MilpSlcY1TGYOnGvd+RIu2FWbJX7M/MleLOQ5KksnhfWlfCAobdcK35du9VHrQ+FJ9b2Y/ja/TrcLwcMmxu36P2iHPyC2xn25l042npbaFp3uEgjcE7jkQft1Jnqzw/667P+PNelX3XRnkhgsTgaNeeIknKEW1dZXSdtx1KeBpzgpObzR54+tD4Un1vZj+Nr9OnrQ+FJ9b2Y/ja/Tr0O9WeH/XXZ/wAea9Knqzw/667P+PNelW99CcD95n/cu4v6Pp++zzx9aHwpPrezH8bX6dPWh8KT63sx/G1+nXod6s8P+uuz/jzXpU9WeH/XXZ/x5r0qfQnA/eZ/3LuHo+n77PPH1ofCk+t7Mfxtfp09aHwpPrezH8bX6deh3qzw/wCuuz/jzXpU9WeH/XXZ/wAea9Kn0JwP3mf9y7h6Pp++zzx9aHwpPrezH8bX6dPWh8KT63sx/G1+nXod6s8P+uuz/jzXpU9WeH/XXZ/x5r0qfQnA/eZ/3LuHo+n77PPH1ofCk+t7Mfxtfp09aHwpPrezH8bX6deh3qzw/wCuuz/jzXpU9WeH/XXZ/wAea9Kn0JwP3mf9y7h6Pp++zzx9aHwpPrezH8bX6dPWh8KT63sx/G1+nXod6s8P+uuz/jzXpU9WeH/XXZ/x5r0qfQnA/eZ/3LuHo+n77PPH1ofCk+t7Mfxtfp1xOjnhQF1L5xrLy4hJQlZlK4gkkEgHj7Dwjf4h5q9EPVnh/wBddn/HmvSqwTb7ZHs9s99Z1PtLFtiWi5RJFoE9vhlvvPQlNST19t2UsPI7D+6jzHMF9CsD95n/AHR7iVo6n77NEPWh8KT63sx/G1+nT1ofCk+t7Mfxtfp16HerPD/rrs/4816VPVnh/wBddn/HmvSp9CcD95n/AHLuI9H0/fZ54+tD4Un1vZj+Nr9Ou2P4OPhL5UstTcXu6kbcKlXG4toTsOYGzjm55nlsDz+I16E+rPD/AK67P+PNelVZAvNnuvF5LusOZw77+Lvpc27O3hJ84+6KtHyH0fN2liJvm1o9xK0dSf8AqZBng1+DANHJL+WZNco9wyKVHMZCI6SWIbaiCoJUoAqWeEAq2Gw3A7STP9KV7HR+j8PoygsNho2ivF3zm/SpRox1IbhSlK3TIKUpQClKUApSlAKUpQClKUApSlAKUpQClKUApSlAKUpQGRYZ+5Z/8s/sWqyGsewz9yz/AOWf2LVZDXFxH1sjqUfq0KhrWOHaJzT7N7yR2xx05NjryJTati5IbnwVsRvifdS2wfOHjUy1DWscy0QWn3r3jbt8jqybHWURW07luQ5PgoYk/Ew6pt8+YMmsuD9t9BjxHsrpMipSldU55husaUr0wyIKSCPEydiO8KBFWPwfmFN6WWh93YpLklTaR2k9Msc/h3BrKtSo6pOnuSso34japSgANySGlHbb4dtqxvQcOtaUWFOx6RYk8AI9qkyXTxf0/wBVXb/dfE6NFvZGl734GmekWj+BQ7HaxkmgeuF31Pss+alDzDtzt0WAoS3gwuPIkPsw0NqZ6NW6SoAK7N+VSlgbWsmj+pfqq1pteaZxJvOKs2y2+pyAu5tQ1ouM18xJLraW0dKlh6GnxpxDaVlK9zuN1bakAAMtElKea1d6j5qEr2CUgEq5Adx/9h/Sa0VSSLKXA0YkaeapXrCk5Jntsmxbd6qMkS3p/fsdnXtta51zckxXzHgyEIkFDalNp6VZjpClK409tWPL9D9XrjbdJ7Ne9JY2PxUNuM3SFhUV6LGtkZ7KLNJ5qadc8Xf6Fp55XROqCC2tSVbI3HoM20ACpat0jmtR+nPyVwWtT6gsJ3H/AIST3n6o/BR0VbMrrXdlu8eOZGl3hGaL5ThkiVaPBmwKZjkK9YouNfZWLW0eOKYTdYRdUlQKenmeLOyilK19ItJdCTv2dOlWidzu0rI4ulErUrCDPxN6xsX2fhsDGITT63W1BzxNltiVJfHAsB5Y9jStzhc4lDfdrYJBbSTtv11d61eYVyJW0kAAF5fJIHYkfIKt5lXuVdR5W8ePGZpLpro9qXer3lETT7HsQwaHcccl2sagQsTuFsvBmuOo3S0uZMXJlNexbqfcQ1v1FNKURxVkng1YJk9q1WlZLbdL8KtuMM2l+FIydjGJ9putwlKdRu0h2bKdkS2t2uNbzzSAdkcBVzNbZN9ZJAJUnfrK71q+CviCXOqkAk9nmA8/xf1moVNKzLXtdkU+Elj2V5zpwNLcRbmtO53OZx+5XKOzxptVrdClzZC9+Q3jtuNJBI67zY7TUP3nQvKdJtZrLncHMs4yu1ZbZpmPX4tdDGZjSo8RxduedjwWmmvFktpkMjjSeBTjR4t1cttn1pKehbJ4Qeue9R/9a6pURUmFIh8g7JZW2N+xtKgRz+7VnBSYu0tZ+PHjM0d0N0msup2GaUTcG0syKzT7SmyX6+alZA68xMfDaG3no8AuOF+Qh8pLe5SiMlpwqRx9RNW3GtK7Rq7h19xPGNJb/ccvuOTX1lzUC+OPNQcfKLtJbS9Aecc6RbjTaUhDUVIbLiCHVp2VW5+jmIztO9IMKwO9yoz8rGMet1okvRiotPPR46GlLRxAKKSUEjcAnvAqk0dwe6ae4dIx27SI0l5d+vtzbVHKihLM66SpjaCVAHiSiQkL5bcQIBI5mipLJEJu7fjx8jVnUrRfUxOpE2322yYnqtks+7IusS4Zdi1wfRZ7a4+OBCp6paI0VLKG1BKYzanXC3xFsFSlVtRrNJbjaX31bmyUqjJbbQTtuVLSniP3azMlKiOW6SdwP9YfP8QrAdehw6VX4kcbivFeJXckeMtcqzUYKM1blaM1HOpBPivHjoNftQfBp1O1FwXH8ixfOpF6YbtzLrOPz3EsIYJRz8XKeFoqO+26wlWw6zijWquRY1kOJXV2yZPZZlrns81x5TKm17dygD2pO3JQ5HuJr0ux7PcO090jxu85pkUO0xPJjIQp9fXdIQN0toG63FbfSpBPwVqx4Q3hYY9qZan8QxjBIciB1kout4YSuQ2TyK4yAfYVcuSyokg7FKa+a+WWh9FUZzxLralZ56rblrfDeulu3MeV0rQoxqznrWld5byBcEwm+6jZXBw3Gm2V3K4dL0CXnA2g9G2pxW6j2dVCqlz6CbXT3BZv5xT8lYp4M2SWLEdbsbyHJbmzb7bE8c6eS8SEI4ojyE77edSkj7db3/RI6F/ZMs34RXyVyPJrQuidI4SVXH1dWak0lrKOVk9z52zUwmHoVYOVV2d+Jp39BNrp7gs384p+Sn0E2unuCzfzin5K3E+iR0L+yZZvwivkp9EjoX9kyzfhFfJXofor5N/b/wD9I9xtbFhPe7Uad/QTa6e4LN/OKfkqjsNkn4zBcxu6JQmbapkuDJCFcSQ61IcQvY943SedbofRI6F/ZMs34RXyVqRdblAvORZBeLXKRJhTr9dJMZ5HtXWlzXlIUPgIIP268V5baI0Xo3C0p6Pqazcs/WUsrcxq4qhRopOk7/Ep6UpXzY0xSlXLGoES65HarXPkBiNMmsR3nSdg22twJUrfu2BJq8IOpJQW9kpXdkXnHNLc8yuGzcLLYFLjSnC1GdfkMxkyFjkUtdKtPSEHlsnfnyqzxcbvM2zXO/xoRVCszjDc1wqALKnipLe6SdzuUKHIcuW/bWX66P3l/VO72mbDXFatTwttrhpSQhmE31Y6W09yVI4V8u0rJ76yzCNP8phYBm+MXyB5NnX9uxKjNSVpDiEruKW0rcbBK2xuo8lgEjcgV246Mp1cTPDUoyeop3fI3GLayt6t5Lc221wZtrDqVR04p5Xu+dJ25Ms0QjSpyhY9pONS2dHYWn9xvK0zVWqVe13F5uUHgeF19DKPYkobIWdlBW6U7k1j2fYLjNnzvEMZxWG/cGbha7Y9KKFLUZzzxJWtHMkBSCnYJOw57Vhq6FrUqTqqcZJS1Xa/tZZZpXtferrn3FZYSUY61087cu/q+RF1ZLm2Hpw82FAnmUq82SJeFex8HRF8KIb7TvsAOfLfzCpSzXSXANObs+9eoV5vb94uclrH7BbHejPi7bnDu88UrWTueFISCo7Aknc7Y94SMBu05zbLQxFejx4GP26Mw08ricQ2hvYJUdhuRsQTsOYNZsRoeeAw1WWItrxcVZN5Xu8+TNK6zvbelcvPCujTk571b4XIppSlcE0hSlKAtdl8FzVfUaI7mWNRLYu23CZL6BT00NrPRyHG1bpI5dZCqr/oJtdPcFm/nFPyVsJoPrbpRiOmFux3Jc5tlvuUSZcunjPLIWjinvrTvsO9Kkn7dSB9EjoX9kyzfhFfJX3HRnk3oCvgqNWtXtOUItrXirNpN5WyzOnTwmFlBSlLNrijTv6CbXT3BZv5xT8lPoJtdPcFm/nFPyVuJ9EjoX9kyzfhFfJV7x7V3S7LHmouPagWCbJfVwNxkT2w+s77bBokLPMjuroQ8kvJ6rLVhWbfNOL/AAMiwOFbspdqNIPoJtdPcFm/nFPyU+gm109wWb+cU/JXobStz6A6K4z613F/RlDnPPL6CbXT3BZv5xT8lPoJtdPcFm/nFPyV6G0p9AdFcZ9a7h6Moc555fQTa6e4LN/OKfkp9BNrp7gs384p+SvQ2lPoDorjPrXcPRlDnPPL6CbXT3BZv5xT8lPoJtdPcFm/nFPyV6G0p9AdFcZ9a7h6Moc555fQTa6e4LN/OKfkp9BNrp7gs384p+SvQ2lPoDorjPrXcPRlDnPPL6CbXT3BZv5xT8lWeV4KGrsPL7Zg70O1i6Xa2zrrGSJySgx4jsVp4lW3IhU1jYd+6vNXpLVgmzMiRntngRrGw7YXrRcnptyVt0saWh6EIzCee/C6hyUo8jzjp5jsMPyB0Vxn1ruJWjKHP1miP0E2unuCzfzin5KfQTa6e4LN/OKfkr0NpU/QHRXGfWu4j0ZQ5zzy+gm109wWb+cU/JVsv/gja8YzBVeEYyi4Jj9dSbZLS8+nbsKWxstR37kAn4K9IKVWXkBotxajKafG67g9GUbZNmmHgn+EllDuUQtKdQbmqZElI8UtcmQkJejvIHVZWrYFYUAUgq3UFcI32Ow3PrzbzhZxbwrpkq3BLZiZe1KQltIQBxPoWU7dn0xB8/Plz2r0krN5G4yvVo1sJiJOTpS1U3vt4T+RbAVJSjKEnfVYpSleyN8UpSgFKUoBSlKAUpSgFKUoBSlKAUpSgFKUoBSlKAUpSgMiwz9yz/5Z/YtVkNY9hn7ln/yz+xarIa4uI+tkdSj9WhUUak+q3ppfqK8V8oeXLP03jG3B4h4xE8e23+n8U8Y4f4XDUr1DWscO0Tmn2b3kjtjjpybHXkSm1bFyQ3PgrYjfE+6ltg+cPGsuD9t9BjxPsrpMipSldU55bMpaS/jN3YWSEuQJCCR27FtQrE9GW0N6X2Ftl0K4oylOOfUgrUeH4xvtWZ3m1Rb7aJtlmlwR58dyM6W1cKuBaSk7Hz7GoQsmWP6F3P1t8vZkTbIpxcuBcmUndLSuZSW+8BQUVbHcEk7EEVdRc4NLedDCR85TlTjvunbmXz6Cb08KQFJB4B1UJHao/wB+01ybZUVkqPM+3UO4fUirS3mGJuMsSxk1rQmU0FsqVLbSA2QCCAT27EV0yNQMBYSpl3NbGhLQ3Wk3FrjV37bcW/y1hUHwIam8kn48fFl8cWl4cweiB2SB/wCIfkrlySpQ4gDtu4vuSPMKxZzVXThpIcOaWjfbYcMhKuAfEO3+/dVOvWHS9CSpzMIJbbO+w4lKUfPsBuatqS4BUqlrKLt0ePHMjMdwgB1SfgaQP79tdYSs8YWvb/Wr838EVhZ1s0uUeM5hHC1ct+hd6g+97a4L1q0sV7GMtYDTfPbond1n72odOfBl40avuvq8fq82ZuTuQlCeXtW0f1/+/wByi1dAnoUK655uL839+6sKGtml6OuMujFxfLfoXdkD72uKdadK+MqVl0cpRzA6F3dau8nq083PgW8zU5Yu3R4/XezNmUdGErKN1K5NI8w85rsQlJSpKlbpB3cV9UfN8VYY1rHpo+C4nM4IWo8JKgtPCPMApIrmdWdNpJLTeY21LbY32LvDxH4N9qakorcVdKrN5p9T8eLmWLKnXgTsEI7B/fvr6dggrc9oDtsn6Y/Uj4P66xuNqRp8+rgOb2NKlJ4lEzm0BI7NgSQNz/VVUjPcFeJLGY2JakDZtCLiyrYdnFsFVGpLe0HCSail48cvxL0kKCitf+MUduX0v8EfD8NYzqhZn71p3kFviLCVGGp4ct+NTZC+AfHw7fGauqMnxdxO7WR2tSACVrTMbKUJ7Tz37aibWXU/y1jFys2Cv9NAjbNXS5I26AoVskMNr+nUoqHtfpQo9m5F6UJOSsXownOpHVyzX6foiO714I8TVXCLNmeOZVLg3563tpUxcXnJMRwJ3CUpUSXGR38uJI7EoSK1f1C0n1A0uniFmuNyYKVqKWZQHSRn+/qOp3STtz4d+IDtAr1Jxu1psePWyzJQECDDZj7A780IAPPv7O2qi5Wy23mC9a7xb406FJTwPRpLSXWnU+ZSFAhQ+AivHaa8i8FpOcq1B+bqPPLNPpXdboZ57GYGliKkpwybbPKvSzT+ZqlndswSBcGYL9z6bgkPJKkI6Nlbp3A58w2R9utgf/p/5h9kGz/irtTvYvBa0/w/VK0anYU5JtCreqQp62A9LGd6VhxrqFR4miC5xdqk7DYJT21Mtc3Q3kPh4UZx0nC81J2ak7ONlbdblvvVzWw+joqLVZZ348hpH/8AT/zD7INn/FXaf/T/AMw+yDZ/xV2t3KV1/oTob7N/3S7zP6Ow/DtNI/8A6f8AmH2QbP8AirtYRbsfexNMvFZEhEh2zXCbb3HUAhLimZLiCoA8wCU716J15+ZhebPEznLY8q6w2XUZLd+JDj6UqG854jcE79leA/8AkDyfwWicJRng4NOUrPNvk5zSxuGp0IpwW86qVb/VDYPfy3/jKPlp6obB7+W/8ZR8tfKtSXA55cKVb/VDYPfy3/jKPlp6obB7+W/8ZR8tNSXAEoRde9XIcBm3M5k8W47RYadcjMOPoR5g8pBcHx8W9YzHzTKozd2Q3fJRVfOjNwdcV0jr5bcDiCXFbrBCwDuCDy51ivqhsHv5b/xlHy09UNg9/Lf+Mo+WtupjMbVt5ypN23Xbdrqzt8MujIyuvUlvk+sku565aq3e2P2mdlzxYlN9E+pqMyy88js4VuoQHFAjkd1cx271wga26p2uwMYzbsxlRoEVnxdgNttpeab7kpe4elAHcArkNgOyo39UNg9/Lf8AjKPlp6obB7+W/wDGUfLV/SGkNbX87O9rX1pXtw37uYnaat76762SiPCA1hSzMjoziWhM5a3HShllKkqUBxdGoI3a3232QU89z2kmsTyPKsgy2XHnZHc3J8iLFahtuuBPF0TY2SCQBxHmd1HdR33JNY16obB7+W/8ZR8tPVDYPfy3/jKPlrHWxmNxMdStUlJcG212lZ16lRWlJtdJcKVb/VDYPfy3/jKPlp6obB7+W/8AGUfLWrqS4GMuFKt/qhsHv5b/AMZR8tPVDYPfy3/jKPlpqS4AyHDvA/yTVKxjO4GY22Cxc5k3gjvMOKWjo5LrR3I5cy2T9ur3/wDT/wAw+yDZ/wAVdrYjwYHG3tE7G604laFy7opKkncKBuMnYg94qVK/QeiPI/ROJ0fQrVab1pQi36z3uKb5Ts0cDQnTjJrNpcppH/8AT/zD7INn/FXaxTULwLtS8Gx+bk0K6Wq+RLe0p+Q1GUtEhLSU7qWELTsoJAJICt9hyB7B6D1G+YauaRTcSvcNvU7D31v26S0lpN6irLhU0oBITx8999tu+suN8j9CUqTv6js7PWf4vMmpgMPGPD4kO+BJrLfcrj3HTXJpcie/ao/j8GZIfLjvi/GlCmlFRJISVo4fMFEcgE1tVXnL4HuTWXFdY27jkF9gWmC5bJTLkidIbYa3PCUp41kAElI2578q37sGoGB5XMXbsXzawXiU20XlsQLkzIcS2CAVlKFEhIKkjfs3I89bHkZpLatGQhXmnOLcVd5tLdz8ti2Ara9FKTz3F/pSlewN8UpSgFKUoBSlKAVjc+HLXqNY7gjLEx4rNkurLliK9lTnFvwCiWE8XMMBtxvfhO3jg5jfZWSVh90exJOr2MsTYspWULxu+Ltr6SehRAEq1iYhY3241OKglPI8kL5jmDDJRmFKUqSBSlKA82dXv9KS7f7yx/1269Jq82dXv9KS7f7yx/1269Jq8J5G/wAVjv8A9Pxkc3Ae3U6e8UpSvdnSFdE6fCtkN24XGU1GjMJK3XXVhKEJHeSeyu+od11vD7l7xnE0WZ68MSVvTHLe1uPGXUDhYStXc2FqJV8A7u2rQjrOxmw9Hz9RQL47r9puJSIkKfOnuOb8AjQHVcW3aRuASOR5jzGqaR4QmGRnC29Z8jSR2cVv4dx5+agdqr8AwNeLJcyTInGpOS3BsIWW0hLMNruYZSOSUJ5dnbtWZbnhQFAndW6U781Hzmkp04uyVzc81h08otrp39GRF8nwncDiu9E7Zsi323BMVpO4+JToP9FdX0U2n3vPkP4ux89UskqTxJC+J1R2UrzHuSK63I0V5KUusodbaPLiQFFSj3Df7VPOQ93tISw1vYfX+nURWnwpdPVKCTacgSCdiTHZ2Hw8naqE+E3pupQSWrwkE7EmKnYfDyXUjP2i1ObeNWuE64RvuthCg2n7Y/8AmqdzGMZdaCpOO21bSDuhC4jZJPnO47anXp8O0nVwr/0Pr/QwpPhI6YKUEmbPSCdiTDVsPh5VVNeELpQ4opXkTrQ233XBf2+Lkg1khwvEXeNlWK2UlY9k3gNFKE+b2tU5wHT4bLGDWDo08kDyazus/e9lRr0+DHm8K8rS613eN5a2tedJnlFKMuQCBv14chI+6WxVU1rPpc8krRmUIAHbrhaT9wpBqsGneB82zhGPdIrrKItjGyB97XEae6fDhDeDWFQ3PADbmSVHvJJT2U1qfOV81hnu1utd3jedPrxaY/Xnbvvj8lcHdZ9L2UhS8ygkE7dQLUfuBJqqOnmBcXQIwiwFSua1+TGNk/F1aqW8Qw5kNqZxO0JQ1sGuGC0CSOzbq91RrQ5yPNYf/d2d3jeY7J1/0ojHhGTl1QOxDUN893bvwbf01b7x4RGIW9hUiDaL5PQk7FxEMtNg7E7FS9ttviqRI0KJEJbhRI8de2y1NNhIQknfYbf37671KQkJWR1BybQO1R89NeC5O0hRoJ+y38f08byx4Fntk1EshvdkS+2ht0sPMvpCXG3AAdjsSCCCCCD39xBAySoatsa5Yr4QirZaWGWLVkFvMqTHY2Q0hSEEcfAOXHxoA323PSKPeTUy1M0k7rlMOJpRpTWpuauhSlKqa5kWGfuWf/LP7FqshrHsM/cs/wDln9i1WQ1xcR9bI6lH6tCoa1jmWiC0+9e8bdvkdWTY6yiK2nctyHJ8FDEn4mHVNvnzBk1MtRRqT6reml+orxXyh5cs/TeMbcHiHjETx7bf6fxTxjh/hcNZcH7b6DHifZXSXSlKV1TnirLlWHY3mtvTbMltiJjKFcbe6lIW2rzpUkgj7ux796vVKlNrNExk4PWi7MwYaI6Vhptn1HxuFsbA9K7xH41cW5+2TVE74Pek7m3BjbjW3bwTpB3+6s1I1Kt5yXEzLFV1um+tkX/Q4aZBzpG4lwbIVxJ4Ziur5tu+ucbwf8Shuh+HfsmYcAIC27lwqA+MJqTaU85PiW2yv77I19Y23/ZEzr+d0/N19TofBQd06jZ2DsRyu4HIjY/+H5qkmlPOS4kbXW94jdvQ+2oXxKz/ADdwd6VXcbH49kA1x9YXF+X/AOI8p5dn/wBzPo1JVKeclxJ2uv7xGjng9acyHQ7MZucogk7PT3Fbk9p37f6a7WvB70nb348bcd37OOdIG33FipGpTzk+JG11/ffWYG3oXpS0gITiDJA+qkPKP3SveqpOjmmCEhIwy37AbDcKJ+6TzrMqVGvLiVeJrPfN9bMO9Z3TH6zLd96flrog6K6c22azNiWNaQw+JLcdcp1xgOgbBXRqUUk/GKzilNeXEbRW3az62KUpVTCKUpQClKUApSlAKUpQClKUApSlAKUpQClKUApSlAKUpQClKUArzl8LjSv1uNUpFyt0bo7Nk/HcYnCNktvE/wDaGh8S1BQA5BLqB3V6NVFPhL6V+utpbcLbBjdJebX/APcbXwjdS3kA8TQ8/SIKkgdnEUE+1rzXlXon0to+UYL14etH4b18V22NTG0PP0mlvWaPM2vQHwLdK/UXpyczucbguuWcEhHEOs1BTv0I+Dj3U5uO0Kb35prT7QjTJ7VrUy1YopC/J4V45c3EkjghtkFfMcwVEpbB7lOJNeorLLMZluPHaQ000kIbbQkJShIGwAA5AAd1eO8gNE+cqy0lUWUfVj0ve/gsvi+BoaMoXbqvk3HOlKV9WO0KUpQClKUApSlAKsE2ZkSM9s8CNY2HbC9aLk9NuStuljS0PQhGYTz34XUOSlHkecdPMdhv9Y3Phy16jWO4IyxMeKzZLqy5YivZU5xb8AolhPFzDAbcb34Tt44OY32VDJRklKUqSBSlKA82dXv9KS7f7yx/1269Jq83vCOjrxXwl73NdKeBNxiXFKldYcKm2nDuBz5HcbdvLv7a9G4UyLcYbFwgvofjSmkvMuoO6XEKAKVA94IINeE8j/UxuPpveqn4yObgMqlVc/ed1KxrU28XHHtN8rv9nkeLz7bY50yK7wJX0bzbC1oVwqBSdlAHYgg94rWzSvw7bdL6G06t2bxFzknytbm1LZPwusc1p+EoKtyeSEivS43TeC0diIYfFS1XJXTe74vk+OXObdTEU6UlCbtc24qLcinrb8IDG4aAFnyJIVwke14i5z3/AP8AX/RUgY9kuP5ba2r3jF6h3SA97SRFeS4jfvSSOxQ35pPMd4FRdlKynwl8VRx8KHLI4lfLtSEyzt/QK69KUakdaDumt50sFaUpP/a/kSmlO/FJf3UCdk7fTfAPgrGtSNScY0ox9OR5S7KW7LktwIMKDHVImTpbm/RRYzKebjquFWwHIBKlKISkkZYCVKS6pPMnZpO3YPOa168IO13L14MCyW9YdlmQ4ZCtF7gOOYw3Icm266y/F225REYh9A6BMhtLzWxb6RXWSFc9eXqq6Mrk5uz8c3jl5kTRiN+vGQ2dNyvWH3LFnlqUBBuL8Z19DXLZazHccbClbnkFnbar4SGUB1adiBs2jzfH/wCtaW45jV3ja+5/csEwK6WTILNpOibh8TJLou4yFXN+RObalPl110NuOKbS3wlxSujSOIpKlITV4np5aMmkYS1hmlmdwM4t11tszK84yW2yIUhcZpaV3Bl6XIIVMS+gOMhpnpGgXQocKECqKo+A1U9+7xl47zb9yRGjNKn3KU0xGCkguPKCEqUohKRufOogAd5I89cjMQuWiOXWxIcSVtMlQ4ggdq9vtj7talYzp1rJcc9xzwecus01/S7TS4qyGJfn1laL/EaWlVmtzij7ZyM4VdKDvxCIyo7cYJiPD9K89vE9L2qGO6qz9UpuR+ULpIt2G29hplbcoqaRHyCSgqbihCU7dA+CGyUBsblJh1GtyLat3d/Dx8+o9CjcrWIhkouMbxJJWHZHTJ4CpKilQKt9uSgQefIg+aqdzKsYjtSJLmR2oJivNxHFKmNhLLy0IWhCyT1VFDjakpPMpWk/TCtZ9DfBfwS4u6hyNYcBeyJbGeX5FliZIwt+FFt70gvtGDHd9iSlZfUpTyE7qVuOLqgDsxbwY8JuN91ln5npbHnbXjxXGGLjFL0NmEiywmm1QmHN2kq4kqa6VCeL2EJ4uoAJU5b7C1/G/wAfobSlSdujQek57K27Vr83xV2blCujSeJ1XtyO74BXn7iujOoczQzVHUzIbVqGzn8aFBViVuSuew5GmtWWApUqNFSRxvOSeJtauFR3YKeWyhVz8ILwfs/03tOIu6FW3LZ+aXDGbra8symF0sy6SW3HLe4+67IWobvlKJZZQXE9ZSkt7HannGlexVq+Xjx44G8cy8Wi226bcJ92iRoNtStc+U6+lDbCUDiVxqJ2QEjmSSNh20ReLa9dFWhi4xF3NtoOmGl5JdZZPYtSAdwD59tq8/VaNyJOB52nTPBtT3HHNP7paGkS8Kg4zFmPOoBCVRmmmpc+QpSSEFaVpRxLIXus8WwF58HLCMbyvTaNh2GToCbjKuMPK79bX5LV0dYctb6wZVxbUJO6n2meupwdfhAO6gKKcpcgaUd/jx+hMGluoMDU7FZGRwbc9CZi3m62hxlxYWpxyFNeile425L6Hj27uLbntucsBUpReUQVHbhHbw/F/wClQB4JWkMLTm0ZY95Kv8Ke7l2RRWxdbnNfC7eLm8qO4G33FIJW3wKLwTxOb7lSiomp/CuLdKTwhHMqPd8Pxn+irxbaVxbeR1fHUMa6Yg2FqCnrfOQrzKPApW2/ftw/0VKNRBmUko16wRpsFBTEkHmPpVIdT93YGpfrZkrRj0GPGf6HzfixSlKqaZkWGfuWf/LP7FqshrHsM/cs/wDln9i1WQ1xcR9bI6lH6tCoa1jh2ic0+ze8kdscdOTY68iU2rYuSG58FbEb4n3UtsHzh41MtQ1rHMtEFp969427fI6smx1lEVtO5bkOT4KGJPxMOqbfPmDJrLg/bfQY8R7K6TIqUpXVOeKUpQClKUApSlAKUpQClKUApSlAKUpQClKUApSlAKUpQClKUApSlAKUpQClKUApSlAKUpQClKUBbsjyC2YtZJmQXh4txITfSOEDcnmAEgd5JIA+Eionj66ZjkN5ds+IaaqkrQoJ43ZoIb5/+IUjhbP8Eq3B+5V98IVlUnTtUNLwaEi4RWionkAV9p+Acj9qstx7HbdjVuYsdliNx2I6AkJSBy7NyojtUe0ntNXvGEbtXbOjh6dGNHzlRXefZYwiZk3hBp6YQcFx13g5pIl8Q23/AITqd9h8VY/Oy7wmm0q3wu3tcRG3QtocI357D2VW/wDTU2Ho0oOxJbQet/DV5q+JLjjm3Y6R1j/q0+YfDVVWt/pReNSCz83G3Pfv8dJBAzbwhChTcyy3BhzYHeLY0PhPPzlwD+jvr56tNbW2wuUnKUlStkhrEWXNxt8Du/n7qnlRb26NAJbSdth2rV5vlr6pSkb7qHSKG6j3Npq3nl7qLefg91OPV/z45yA/V7rFzO+YbJ7f/wAEt8v0tclai6zNIQhm25M+o79Z3DuAnze1dIP3KnjqJb6VxJDaeaU96j5zXzidKu7plfcbT8tPPL3UT56m/wDtrqXd1mqWn1oz3Tu/5PkuLYjefHshkKlSEyMZUhtHNSuiSelHRo41qOye7h5HhFZu1qf4RbagV6eNuhQ2CV2t8D4+SxU7pU2pHLky2e36tVcxxKUVHk4ofg0/LWDDxo4WHmqMEo3bsud3fazHGdGktVUlbx45txCcbUzwhFpLrumMNTYB5CM82Qfh4nT/AFVcouoOvK0BbulEVQc9oA/0Z+HcKWT/AFVLPE2lviCfY0nZI71mvpKk8RUsBwjdR7kJrN51e6iHVpv/ALa7e/xuIxRmuu7jZcGlEAJHbxXRpJH2iuqtGWa3LYa//LG2NvLO5C7sg8ufcDy7u+s+CiopCUHgH+LQfpj9Ufgrt4VJJSle7ihutf1I+Co87f8A0rt7yJSprfBdvf43EfKy/WG3sm43TTm3vxmSC8zCuHHIIJ26g2IJG++3mHdWQ4TqRjGepkIsz7rUqIdn4cpAbfb7NyU7nkCdiRuAeXmq/p4V8OyfY08kD6s+eol1Px6JimX4/qdZAI8zyozEuaGyEiQ271Ty7OLh4gfPuCeyrRanlaxEadOveGraXJb5PxvyJjpSlUOeKw+6PYknV7GWJsWUrKF43fF219JPQogCVaxMQsb7canFQSnkeSF8xzBzCrBNmZEjPbPAjWNh2wvWi5PTbkrbpY0tD0IRmE89+F1DkpR5HnHTzHYYZKL/AEpSpIFKUoCAPCf8GuTrGIeTYnKiRcit7JjrRJJQ3MYBKkpKgDwrSSeEkbHiIJHIjU+1p8J3SiO5bLVBzqxwkqO7SIr5i8RI3UjqlvckjdSe3lzr0vpXlNKeSdDH4l4yhUlSqPe48vy7HmaVbBRqz85FuL5jzNvWqXhIXCzzoF9vuVuW2TGdZmIeirDamFJIcCjwck8JO/wVFNerurMKZctK8yt1uiPSpUrH7iywwy2VuOuKjOBKEpHNSiSAAOZJrUHSvwG8uyHobrqbcfU7AVsrxGOUuznE+Ynm2zuDvz4z2gpFeI015KaQWJp0KE5Vm1ve6OfFtpdZzsRgquuoxbl+BBGneVaiYtkbDumdyuse7yVBtti3pU6qSRuQhTIBDo7TwqSofBW4mK3bVW4aqYLd9XsZttoujkN5lIjO7rda4HdlONgqDauvvtxHmT1U801N2nuk+n+l0AwsKxuNBUtIS9KI6SS/39d1W6lDfnw78I7gKxjUFtCdZ9Png3xLUmYk8+0BHL+s17fyX8nMRoVN1q7d0/VXsbufNvnVvidvQ+Flhqj1pckslu3MkwKWrrLB655DvI83wD4a+BCVcSlqAbHtj3K27viFfSgkqKnP4xQ7h9SK6itclaW208LY9r8A8/yV6Y6MVfdkvl4/Xgfd/HXNtiltHb/fz19ed3RwMgBI5D5a5KU2lsss7cI5f+asX1Gze2aX6fZBqHet3I9htz9wLSfbPKQglDafOpSuFCR3qUPgqHkWVt9sluRkyQptJJVsrvP1I+U193De6lclkdUfUJ+WtHfBI1OumnGoUbTG82/Or8xqZCZyVq4zLNIhxWchO5vQZ8dS0pyMONh0KaCwDxkA8XKa7v4V1ltt9tcljCrlLwy65NHxFnKlS47MeRc3XSyPF2VqDshhtxJQt5ICRwqKONKCaoqkWrizeb8ePHKTo3uBurkrbdO/YhPnNdgCW09KUnl/i0q/WNarY14crecXqJNwzTSfecUn3xuzRH47VxVcpe74aMwNphGGhhPt9ly0q6MbnhVs2auJ4TWstxxK86ms6V2FrEsXvl2iXGfNvC2npcOHcHY/HCjtocJWltAKlPKbBcSsJTw8KqKpFbibOT8dXjvNniSFjlu6RuN/pR9Ua6tkrO25LYO/P6c95PwVDdw1yzPIrjc4OiOj03OINnlvwp97l3li0W+RKYJS7HiOOJcckLQtKmyoNpZC0kF0bEjM1arY7A1WZ0iu0eXbr3cbV5Ws7slCUxbm2hSkvoYWCd3GAEKW2QFcLiVAEbkWUkx7Kun48eL7s3QFAkdjihuf4CflripRQpLbSeZ9on/qNYJo5qd67eJSM2iWoRbPKvE6LZXulK1XKEw8plEsjYcKXFNrUkc90FB357VnA4itSEkLdc9se4D5KlO6yKqOd348eM7nwcfJhlW+3NSj3/D8VciptKEhKSsb9RPetX1R+CuR6NCSkc0A9dX1avNXwFaFHceyLO2+3tQewD4f6qbi19bx4/TpIez5S2Nf8IUl3dwsAKPb2qdBH3DU21B2eI//AD+whppClFLAKlAbhR43Sfh5bVONbMvZj0Fcdup9H4sUpSqGgZFhn7ln/wAs/sWqyGsewz9yz/5Z/YtVkNcXEfWyOpR+rQqKNSfVb00v1FeK+UPLln6bxjbg8Q8YiePbb/T+KeMcP8LhqV6hrWOHaJzT7N7yR2xx05NjryJTati5IbnwVsRvifdS2wfOHjWXB+2+gx4n2V0mRUpSuqc8UpSgFKUoBSlKAUpSgFKUoBSlKAUpSgFKUoBSlKAUpSgFKUoBSlKAUpSgFKUoBSlKAUpSgFKUoCJvCXlmHp/FcSvZSrtH4Rz2UQhxWx27urv9qpMDrbjYRHd3StIcW6fMf/U1EnhUOqGEWtgAcK7qlZ8+4ZdA/WNZJqdqAjSzSuXnibA9eG7Y3ESiA0+llcpx55tlIC1bgDicB3PmNTVypp9J04xWzwb4v8DNQVKKCgfA0nzD6o12OrRFQGG1dZXNSu//AOTURQ9d8hsOd45p9qZpg5YLrmLjzNqXb73HuiSpppTiulbSEPNthKSOkDakA7BSk8QqWEJS2EvOnjWo9Uec+f4q10+BVWlm93zf6fqcxxM8JIHSqGyE9yE+c0ZRxJ6R0no0niO/as+f4vMK4AoUpT0h1KGtwFLUrYKPcB8FWmNmFvm3KbaJYRbpUR19LMeRLjlySwylouSUJbcUpLQ6ZsHjCVJ4k8SRxJJnnYd76q38r4eP13l5U4t1wbo3V9KnuHwn+/8AVRDfSFTSV7jfd1z6o+YVTwrhbJ8AXG23SLKiuoK1TWXkrZ4B28KwdtuXn7q7w6y6htuKUuNEbpKTuHPt+bv3qeki/JDxz93WznuXFI6NIAH+LT3D+Ef/AErkC2lKhxHo0+3Wfpj5q4srZWFhp5Lm24dcSQQCPpfg+LurpMplxAdbUhTKCQhKSDuoef4qXtmyqjruy3ePHazt6QnZ1YCVH/FpPYhP1RrrXudk7KIJ34fpln4f78qwLW/VRWj2ASMzbxyTkV0clxLfa7LGc6N+4zJLyWmmEHhVsolRV2HZKSayPTzNrHqHgti1Ex1anYORQGZ0MLGy0IcSFcCh3KSSQodxBFVum7GTKnmjIUpU0AkEKfc7fMkfIK4qKdg2CVI36x73Feavji+j3RxFS1kBah2/+UV2IR0XDuAXVDZKe5Iq/MYvZ9Z8vjqXJ1g8YIbTt0qvbEdiE1FeuMlSZGEwmv8AEnIo61K37VpIA/WPOpPU42XjBafSF8PG6oqHFtUUa+l1CcOmMKShDN8aDY262/IhX5tZKPtoz4WP7xeOTxZcMyZKUpQ5YrG58OWvUax3BGWJjxWbJdWXLEV7KnOLfgFEsJ4uYYDbje/CdvHBzG+yskrD7o9iSdXsZYmxZSsoXjd8XbX0k9CiAJVrExCxvtxqcVBKeR5IXzHMGGSjMKUpUkClKUApSlAKUpQCo1zULkayYBHSpJSwzc3lA7dTdnbi+6Bt8IqSqjDKZSLdrhjL92WWoM20yIkNY268rj3Ug/AUlAHwqA76vDl6GbWEX7x24P5MkNezgSlCSWwdkp+rPnPwUUpLCSwk8SyN1q7P/iuaipGykp9mWNkp+pFdfRJXxcSx0Y5uL+qPmHwVrsyxae/d46/xfMfENpKQ4rdSewJA9sfN/f5asOdYLYNRrbDs+SeMuQoV1g3ZTLLvAiQ9EfS+y25yPE0HW0KUnluUj4RV+U447woQCOP2u3cn+/fX0p3HCF7NIGylDv8A4IqMnkWabzkzDNQ9L8f1OcsM28y7lBl41dU3S3TLc8GZCXOjW040FEHZtxp1aFp7we0EAjXnWTwa9PdNtNsPjxZV5yG5WrKMQsFkev04STbo3leGnoYrSUoaaUptJC1oQFrSDxqI3rb1KVBSSEAKI2SnuQnz/HWAN6CaQsZezn6sOZkXiHKVNjyZUp+SGZKgQXGW3FqbaV1jsUJG2/Laqyhdbirnd5ePHjJGH4z4KuK4oi32qFqRqS7ilrfDtqxRy/8AR25hIVxJa3abRIcZSdtmnXlp2GxBHKsnVoXiCdK8g0eRLuTdmyN26PTX0uoMhpU+S7IdS0oo4Rs48rhBSdgADxdpkcBwq3V/jlj7Taa+J6NQJ22YQdk+dR76nUSJUvHjw3nuIaa8GOxW43GFjOqGo2N47c5kmavH7PeW48VL8h0uvFl3oTKZSpxS1FLb6UgqOwFYL4XOlmKRPB8sunWLx57WRqv9uteHTvKUhybDucqRwrd8ZcWp5QDK5K3OJR3QlW5HIjaBSlJUClO7yx1U9yE1arnjVjvcy23C7WxiY9Y5SpkF51HEpmSppbRW3v2K4HXE79uy1eeolBWaQi75t+PHW+ZFNheJWfBsSsmGY9HLdusdvYtsJs9oaZbCE7/aTzPeSe8mr+hst+xIO6zzcX5hRKFt+1ALqxt8CE/JXFbqQlSEklCPbq+qPm+3V0lFEOTm7R3ePC4s+EBSkrSNkJ9oO4AfTfJX1RKOW/Co7kn6hPn+M0BUk7lO7izuhH/qfgr45w8HE4eJAPb/AKxXm+Kg3tLk8eOfouRXkkJ2Tr9hTvRFDCbfIWnYjfqpePP7ak/dqYKhu05KnLPCAQ3bVCREsVqdYdebIKOkUQVbEdwKko+NJqZK2JXSinwIx11KKfIvxbFKUqhomRYZ+5Z/8s/sWqyGsewz9yz/AOWf2LVZDXFxH1sjqUfq0KhrWSZaIESdMveNu32O1f7GUQ2k8SxI8bhdA8kd5ad6N4Dv6PuqZai/UNGROQssbxB1hq/Kiui1rfA6JMsxE9CV7gjhC+HfkeW9ZcH7b6DHifZXSVtK6IC5bkGO5cGktSlNIL6Enqpc2HEBzPIHfvNd9dU54pSlAKUpQClKUApSlAKUpQClKUApSlAKUpQClKUApSlAKUpQClKUApSlAKUpQClKUApSlAKUpQEKeFT/ANzrT/tMf8JddfhdY3fL94MmZ2OwWq5XW5qgxjEg21tapTympLLmzSUbq49kEjh5jblV38ISEudbMWY4AUO5DGZO52G60rAHn7jUmEBx1RWrk37ZXYEnzCpq501HpOlF3w9NcL/NGkVq0rszbdxneC5pdq5jGa3RoMHMcmnzrfDZ2V1VSWritbkpKSSeiTGUFdhKB1hcLk7qVjuiur+jKdMdRcqzq/zMoebuMS2KbtzqZzjxjSGJTjgaCUtKaPQIUXEqSUBBOxO5SuN1aEpABJ3Qn6lP1Rrk+74q2I7O5WrmT3//ADWn5tWvctrO6Ud7+Ro7qxpLqXd72oLxzHdU8lyVmNNtdty3Ep8xmyRy020uOuQZbUOE2haXFlSUmQsqX1Fkb1cMe8H+75r4WWRL1SwGbNxNTl2lqcU2+i1THlwcdbSlY3CX2lLjv8LbnElSmNyCW+W6KGlR0BDY4n1jbfuSK7VLbiI6JHNZ5k9/x1Pmle7KOVvVhnw7+g8/tUtMs2gZwvDhiOUWvRy05ddpiLXjGHou7Dzy4VvXGC7cW1IXG6RctSVpacQl0K3AUAU5ZbdGMjY0bkyok/LrFj8XJZF6uFhyjHzwXiK7HQyhlFqsi23GGEu7OJjAAuucSnEbEGt02Wi2SsgF5zsB+lHw18WoDiZQrkP8Ys9pJ7vjoqSvdka1/Vj1+PFzSe26Q6jp0cly7zj+IafYzAyN66O4zZcUuDLeRwlR0MNqnW+DMdf6TjCFpYQ6riCEB1IIIEy+Cbh2WYjiF69VOm2I4UxcLwuVa4FhsxtZdjdEhAkyovjD4adXwDZHSFQSlPGArcCcW0IKukIHCkexp7gB2qPwVzbQlxXjC1ENgb8/pj5zUxppNMs5KKdvHMQXq3p5nOrOsGKW6Ff7ziWPYREdyTyzEgx3zJur/SRY7LQktuNFbTBlrUooUUl5kjY7Gtecs0vmaIYxmeluSztRbriiszxa7WebHlSXFO2ydckCXBjJjBIRL8Y8Y4ksJStaX2yACRW/S3dlB5Y3J5NIP9dYPqxgVyz/ABu1w7dMix5Fvyew31TkkqCFNQbnHlOpHCCeJSGVJSOwqI3IHMROmne28hS/1S8c3eap51pSi1af6oayY1pvP0lx5jAblbGICnuiul5fUpDnj0pltag0WkskNlai+ovLK+AJCTkdl0LVnGS2q9aM4DkOj7dmgXFg5jeUuIvl2efhusMoVGdcLzjLa3kyFLllKytlCUJG5WNi9bsKuOp2kOZYFa5EZi4ZNYptqhLklQaaceZUhK1lIJ4QVAkgE7d1ZkOkQ30Sl8SwkdM4O8+YVHm1fmJTb37/AB452ahaCabZjYdZ7dNg6d4XMtFmjzYd+zNzGrjAu0yYEBoNsTJstx+dxuAlxxTQaCUnhWtRG00+EW0RjNkkpKy+zfI/EpHYgFDm3xcwNqlRHGtSQ2nZzbl5m0/LUbeEEjbB4aGEFSG7xFK1/D1h/f7VbGGjqzVjNQdq0V48fPoRLFKUq5xxVglzMiTntqgR7GwuwrtE96ZclbdKzLS9EEdhHPfhWhUlStx2tN7HtFX+sWskeXOzq/ZIxmbFys/iUO0MWqOviTb5rDslcpbhCyC64HoySCAUhgD6Y7wyUZTSlKkgUpSgFKUoBSlKAVZ8pxKwZna1WjIreiUwTxIJ5LbXsQFIUOaTzq8UqU7ZomMnF60XZkdDSW7Q3FpsuqWUxYygAll19MjowOxKVKG4SByA/rr4vSCe8lLT2q2aFtKgeFE8IP3QmpGpU67Nja63HsRG3rG2lxS1Ss6zWSHB1g7dtwTvvudkDeupfg+4c6UGReskeCDuEuXHcfF7X+qpOpU+clxG2V/eZGbng86evILbpu60q7Qqesg/dro+ht0x3/ctx/Gz8lSnSnnJ8RtmIX+t9ZFh8G3THui3Af8A/Wfkr79Dbpj7luH42fkqUqU85PiNsxHvvrIqR4N+AMlQjzb6ylRJ4W5oAH5tfB4OWJNul2Nk+VRyRts1PQNv0e/9NStSnnJ8SdtxHvsir1gLcy50kLUDL2N07E+PpJP2wkcuyvvrHXBnZEHVnMGGweLh8dUet5+RHwVKlKeckNtr+98iMW9H8jaTwp1hys78iVPcRPxknevszRaXeOBGQamZNNYb2AZQ8lpJTvzBAGx35c6k2lNeRG2Vt9+xdxYsVwfFcJiqi4zZmYYc26Vwbqdc27OJaiVEczsN9hudgKvtKVVtvNmCUpTetJ3YpSlQVMiwz9yz/wCWf2LVZDWPYZ+5Z/8ALP7Fqshri4j62R1KP1aFYLd/8vXP+Ob/AOC3WdVgt3/y9c/45v8A4LdZsF9Y+juMWK9j4mAw52LacZBEw+Xe5yXc0uVxuFtTOdSplMklLz0RlZAIKit55DRKjsl/hISgJTmtdE2IJjCmkvKYd4VdDIbShTjCykp6RHGlSeIBR23BHcQQSKxSHl7OGNYviep+V25WSX916BCktRXI7Fyfa3UAN90NPLaAX0RXzUHA3xBJ26e40d5mVKUqSBSlKAUpSgFKUoBSlKAUpSgFKUoBSlKAUpSgFKUoBSlKAUpSgFKUoBSlKAUpSgFKUoBSlKAjfXFSmLRjNwDoaRByeBIccI9okcY4vtEjtrPF8JSngSS2k9RP+sV5/irDdY9OZWomPMx7bO8XuFudMiMFe0dVw7cBPaknlsru83msOn2udjvC0Y/lCXLTfYqUxVeNrSGnXUkIV1+WyyrclJA27ATVpRc4K3IdKjFzoJwzcb3XTu/55CU9vF0FRILy+ZNdTaC2C6ocTqz1N+Z+OrW9luItLX45lVoQGOs5xzWgSdt+wnkAKpDqRp/HV072bWJTjp6oRPaWEgefZR2rFqN7kQoTSeV2/FugyPiLCTuQXSOIntCR/f7tcWG+E9O6k8SuSEntPwmsRe1d0xaUovZnAUltW6igqWVq+DhB3HxV0Oa56WttmQvLWCvsAEd5XCD8ARufh2qVTk+QnzVVqyi89+T6vHzM3cKkEoQodIsbrWexIroAS4pCAFdGnmPOsn5f6qwZWvGkvtBlZKNuJZ8Rk7rPm/xdfRrjpx0CXY14kvqd36zVuklKPOeaBv8Aa81HSm3uZkjRqxXsu/R4/TpM+4eldU2k9Uf4xQ/VFfVqQpIVw+xIOyUj6c/JWBDXPTkJDSZtwDY7T5Of3V+bXF3XfTAJQJOQuRlr7UOW+SChG/8AF7HfbuqfNTtuMaoVW16r6vH6dJnzaC+4XHRyAO57tvMP7/118U6l3cqT7Ek8KR9WfgrAl686THhZRlhS0kbkiDJ3V8H+LqoRrVpcpSCnLYoWTwoBadCWwe87pqPNz4Mt5irvcHzZPLx2dJmyULCzz9lUN1q7mx5hXEJU4pJaTshO/Dv3+dRrFRqxprI3YbzO2hKRxLKnuDjPm3O1VzWfYI/wtMZnYnFupCikXFnc94TtxcgOdRqSXIVUKizafV4/T4svw5+xtkhKualntPnPxVH2tyG3cPhRinZpV2hJ4N9t0lwdvwmskumeYharc5c5OS27xZkbrcQ+lziO+wASjcq2PcATUQZbqJC1am2rBMNgTJCpFyaflynWuFKWUK5qHaQke2JIHIAbb8qvSjJzTtkjPh6UtZVGrJeLmw9KVYM2zW04HZkXi6xrjL6eS1DjRLdDXKlSX3FbIbbbQCSe0knZKUpUpRCUkg3Y4285Zpk68RsK7uxZZ13krfjw4sKG0pS3pD7qWmgpQBDTfGtPG6rqoTxKPIVWWHHrNjFvNqsUFMSKqTJmKQlSlcT8h9b77hKiSVLddcWok8yo11QbLLjX+53yXfZkpExLLUWEo8MeG0hPMJQOSlqWVqU4rnsUJGwTzu1RzkilKVJApSlAKUpQClKUApSlAKUpQClKUApSlAKUpQClKUApSlAKUpQClKUApSlAZFhn7ln/AMs/sWqyGsewz9yz/wCWf2LVZDXFxH1sjqUfq0KwW7/5euf8c3/wW6zqrJOxWLNmvzjcJjK31JUpLZb4dwkJ5cSCexI76thqkaU25cCteDqRsjF64uNNPJCHm0rSFJUAobjiSQQfjBAI+EVknqMi++9w/Q/N09RkX33uH6H5ut7bKRq7NUI0j4xf8fTkU+xZTcbtLuylSIUG+SErhQHyVn2NTbQeS0eJALZWpIDSeAIKlqV0PZJqFaMYtU26ab+V76+4G7lBx27MOsRhz3cbem+KlwbBPV4UndW3YOIyl6jIvvvcP0PzdPUZF997h+h+bqNrpcjZOzzMAeyK7t5axjaMDvrtvdYLy7+h6CIDK9lexKQZAlFfIDdLBT1h1u3ajh5hkMmJfZL+lWUxHLQpQhx3pFrLl4A4tjFKJikpB4Rt4wpk9dO+3W2kv1GRffe4fofm6eoyL773D9D83Ta6fFkbPPgRhMzbJY2O2y9s6QZbLmT3ejkWdmTaRLt6d1eyPKXNSwpPIH2J1xXWHLt2uD2RXdvLWMbRgd9dt7rBeXf0PQRAZXsr2JSDIEor5AbpYKesOt27Z/6jIvvvcP0PzdPUZF997h+h+bptdPixs8+BGkPMMhkxL7Jf0qymI5aFKEOO9ItZcvAHFsYpRMUlIPCNvGFMnrp32623XMzbJY2O2y9s6QZbLmT3ejkWdmTaRLt6d1eyPKXNSwpPIH2J1xXWHLt2k/1GRffe4fofm6eoyL773D9D83Ta6fFk7PPgYA9kV3by1jG0YHfXbe6wXl39D0EQGV7K9iUgyBKK+QG6WCnrDrdu1HDzDIZMS+yX9KspiOWhShDjvSLWXLwBxbGKUTFJSDwjbxhTJ66d9uttJfqMi++9w/Q/N09RkX33uH6H5um10+LI2efAjCZm2Sxsdtl7Z0gy2XMnu9HIs7Mm0iXb07q9keUualhSeQPsTriusOXbtcHsiu7eWsY2jA767b3WC8u/oegiAyvZXsSkGQJRXyA3SwU9Ydbt2z/1GRffe4fofm6eoyL773D9D83Ta6fFjZ58CNIeYZDJiX2S/pVlMRy0KUIcd6Ray5eAOLYxSiYpKQeEbeMKZPXTvt1tuuZm2Sxsdtl7Z0gy2XMnu9HIs7Mm0iXb07q9keUualhSeQPsTriusOXbtJ/qMi++9w/Q/N09RkX33uH6H5um10+LJ2efAwB7Iru3lrGNowO+u291gvLv6HoIgMr2V7EpBkCUV8gN0sFPWHW7dqOHmGQyYl9kv6VZTEctClCHHekWsuXgDi2MUomKSkHhG3jCmT1077dbaS/UZF997h+h+bp6jIvvvcP0PzdNrp8WRs8+BGEzNsljY7bL2zpBlsuZPd6ORZ2ZNpEu3p3V7I8pc1LCk8gfYnXFdYcu3a4PZFd28tYxtGB3123usF5d/Q9BEBleyvYlIMgSivkBulgp6w63btn/AKjIvvvcP0PzdPUZF997h+h+bptdPixs8+BGkPMMhkxL7Jf0qymI5aFKEOO9ItZcvAHFsYpRMUlIPCNvGFMnrp32623XMzbJY2O2y9s6QZbLmT3ejkWdmTaRLt6d1eyPKXNSwpPIH2J1xXWHLt2k/wBRkX33uH6H5unqMi++9w/Q/N02unxZOzz4GAPZFd28tYxtGB3123usF5d/Q9BEBleyvYlIMgSivkBulgp6w63btRw8wyGTEvsl/SrKYjloUoQ470i1ly8AcWxilExSUg8I28YUyeunfbrbSX6jIvvvcP0PzdPUZF997h+h+bptdPiyNnnwIwmZtksbHbZe2dIMtlzJ7vRyLOzJtIl29O6vZHlLmpYUnkD7E64rrDl27XB7Iru3lrGNowO+u291gvLv6HoIgMr2V7EpBkCUV8gN0sFPWHW7ds/9RkX33uH6H5unqMi++9w/Q/N02unxY2efAjSHmGQyYl9kv6VZTEctClCHHekWsuXgDi2MUomKSkHhG3jCmT1077dbbrmZtksbHbZe2dIMtlzJ7vRyLOzJtIl29O6vZHlLmpYUnkD7E64rrDl27WjV/WXCdJ9RcMwCdfX3nb/MKLq50rO9sjKTwtOLHB1eJ1aDuexDbh25pNTN6jIvvvcP0PzdYKWlMNWnOnTldwyfNfMxwh5yUoxtdbzAHsiu7eWsY2jA767b3WC8u/oegiAyvZXsSkGQJRXyA3SwU9Ydbt2o4eYZDJiX2S/pVlMRy0KUIcd6Ray5eAOLYxSiYpKQeEbeMKZPXTvt1tpL9RkX33uH6H5unqMi++9w/Q/N1n2unxZk2efAjCZm2Sxsdtl7Z0gy2XMnu9HIs7Mm0iXb07q9keUualhSeQPsTriusOXbtcHsiu7eWsY2jA767b3WC8u/oegiAyvZXsSkGQJRXyA3SwU9Ydbt2z/1GRffe4fofm6eoyL773D9D83Ta6fFjZ58CNIeYZDJiX2S/pVlMRy0KUIcd6Ray5eAOLYxSiYpKQeEbeMKZPXTvt1tuuZm2Sxsdtl7Z0gy2XMnu9HIs7Mm0iXb07q9keUualhSeQPsTriusOXbtJ/qMi++9w/Q/N09RkX33uH6H5um10+LJ2efAwB7Iru3lrGNowO+u291gvLv6HoIgMr2V7EpBkCUV8gN0sFPWHW7dqOHmGQyYl9kv6VZTEctClCHHekWsuXgDi2MUomKSkHhG3jCmT1077dbaS/UZF997h+h+bp6jIvvvcP0PzdNrp8WRs8+BGEzNsljY7bL2zpBlsuZPd6ORZ2ZNpEu3p3V7I8pc1LCk8gfYnXFdYcu3ayZPhmLZNn0eDetHbpNadY6Z3JWpMRmClYB2bdQmUmU4vqpG/QKT1kji232mr1GRffe4fofm6eoyL773D9D83UrGQWabLwpVqbvB2fMzX5jBMOuEa+y5Pg832G7ZypMOOuXbwu8gcWxi9FOKE77DbxhTJ66d9tjw2y46ZYW1jdsvMbweswemznujkWmPeIImQE9YcbynLiI6k8gfYnXFdZPLt22U9RkX33uH6H5unqMi++9w/Q/N1O3x95mRPFLdJ9bNd3NHcJjZa1jkPTHKkQX45dXkbF1jJhMq5nolIVK8ZKjwgdVhSesOt2kU1t03tSol/kjTbUW3uWpSkxI673b+kvITxbGMW5ikpB2G3jCmT1xvt1ttkfUZF997h+h+bp6jIvvvcP0PzdTt8feZOtiuWXaa2y8Eixcctl6Y0y1OlTJz3Rv2dm/W0S7endXsjylzksFPIH2J1xXWHLt2ucnS/GDl0fHXdPcxlwXI3SLyI3pgwWlAKPRLSZYlcZIHtWCjdY6wG+0/wDqMi++9w/Q/N09RkX33uH6H5uo2+PvMa2K97tNc4OnGLyYl+kS9F82ZNpK0xYkm9Qyq9AcWxjdHPKUg7DbxhTB66dwOttxe07wuBj9tvsbwc8qmTZ7vRSLOi6wTLt6dz7I8XLiI5T1R/inXFdYcu3bY71GRffe4fofm6eoyL773D9D83Tb4+8xrYr3n1sghzTLAmMvj483onc3re4z06r+mXG8ntLAUeiWhUsSSrqgdVhSOsOttvt1wcPxN+NfJbvg7XeI7ZlqEOO+7bFLvPDxbGNwTVISDwjbxlTPt07gdbae/UZF997h+h+bp6jIvvvcP0PzdNuj7zK/9S98n1sgeZYsdjY7bL2z4NN0lzJ7vRyLOymzCXb07q9keUualhSeQPsTriusOXbtWS8HwxWWx8b9Y6Q5b3GC8q/siAiA0vY+xLR4yJRX1QNwwpPWHW9ttNnqMi++9w/Q/N09RkX33uH6H5um3Q95kauI97tZAcPDcSkxL7Jf8He8RHLQpQhx3nrYXLwBxbGKUTVJSDwjbxhTJ66d9uttdLMh7FbLa7lh+hc6FKuzpanwXJdval29HGdlvuJfcbcR9Ns064QCNk77gTR6jIvvvcP0PzdPUZF997h+h+bqHjYPJtiUK8laTuulmBoGZqytZcXZW8ZRG3QAl1c52QduRO4bbQnYnfrlXEBsjh3WxTFIeIwX4cW5Xa4OS5KpkmVc57kp511QSkndZ2QnZCQG2wlCduSRuazz1GRffe4fofm6eoyL773D9D83UbXSMWz1DHaVkXqMi++9w/Q/N09RkX33uH6H5up2ykNmmY7Soj8LvUvJ9Accx+8Yc5GmPXWa7GeTc2Q4lKUt8QKQ3wEHfzk1kngwZPedatKmM5yqUmLPdmyIxbt7aUM8LagAdlhat+fPrVoR07g5Yx4FN66V92VsuX4msmnXeHXtJXM4pWReoyL773D9D83T1GRffe4fofm639spGzs0zHaVkXqMi++9w/Q/N09RkX33uH6H5um2Uhs0zHaVkXqMi++9w/Q/N09RkX33uH6H5um2Uhs0zHaVkXqMi++9w/Q/N09RkX33uH6H5um2Uhs0zHaVkXqMi++9w/Q/N09RkX33uH6H5um2Uhs0zHaVkXqMi++9w/Q/N09RkX33uH6H5um2Uhs0zHaVkXqMi++9w/Q/N09RkX33uH6H5um2Uhs0zHaVkXqMi++9w/Q/N09RkX33uH6H5um2Uhs0zHaVkXqMi++9w/Q/N09RkX33uH6H5um2Uhs0zHaVkXqMi++9w/Q/N09RkX33uH6H5um2Uhs0zHaVkXqMi++9w/Q/N09RkX33uH6H5um2Uhs0zHaVkXqMi++9w/Q/N09RkX33uH6H5um2Uhs0zHaVkXqMi++9w/Q/N09RkX33uH6H5um2Uhs0xhn7ln/yz+xarIaoLRaGbMy6yy+890zvSqU6U778KU/SgDbZI7qr65tWSnNyRu04uMUmKUpWMuKUpQClKUApSlAKUpQClKUApSlAKUpQClKUApSlAKUpQClKUApSlAKtuSZDasTsFwyW+Sm48C2R1yX3FrSgBKRvtuohO57BuRzIq5Vpt/hC9ZvIuOwtIbFP4Zl42l3XondlNxknqNq4VgjjPMpUkhSRyrQ0njo6Ows8RLkWXO+Q1sXiFhaMqr5PmaWas6i3XVbUG85zdnXCu4yFKYbUpWzLAOzbaQpSuEBO3VCiASdq9KfA71i9dzR+D5SldLfsc4bXcuJW63OFPsTx7zxoA3PepK68p6nPwO9YvWj1gg+UpXRWHI+G13LiVshviV7E8e4cCyNz3JUuvmegNLSwmkPOVXlUdpfHc/g+y55TRuMdDE603lLf3nqxSlK+tntBSlKAUpSgFKUoBSlKAUpSgFKUoBSlKAUpSgFKUoBSlKAUpSgFKUoBSlKA02/wln/cfDf9rSP+DWc+AD/o7w/9rTf1hWDf4Sz/ALj4b/taR/waznwAf9HeH/tab+sK8hR/+y1P6PwicSn/ADWX9PcbIUpSvXnbFKUoBSlKAUpSgFKUoBSlKAUpSgFKUoBSlKAUpSgFKUoBSlKAUpSgFKUoBSlKAUpSgFKUoBSlKAUpSgFKUoBSlKAUpSgFKUoBSlKAUpSgFKUoBSlKAUpSgPLXw7f9JPIP5JA/5ZuvTuw/5Dt38kZ/UFeYnh2/6SeQfySB/wAs3Xp3Yf8AIdu/kjP6gryHk/8AzLHf1fjI4mjf4vEdP4sr6UpXrztilKUApSlAKUpQClKUApSlAKUpQClKUApSlAKUpQClKUApSlAKUpQClKUBpt/hLP8AuPhv+1pH/BrOfAB/0d4f+1pv6wrBv8JZ/wBx8N/2tI/4NZz4AP8Ao7w/9rTf1hXkKP8A9lqf0fhE4lP+ay/p7jZClKV687YpSlAKUpQClKUApSlAKUpQClKUApSlAKUpQClKUApSlAKUpQClKUApSlAKUpQClKUApSlAKUpQClKUApSlAKUpQClKUApSlAKUpQClKh7X7X6ZonMx2FCw1m/LvzU10l26GGGBHLA7mXeIq8YHm24e/flrYzGUcBRliMRLVhHe83vduS73sx1q0KEHUqOyRMNK1J+jnv8A9h23/lQv9ip9HPf/ALDtv/Khf7FXC+mOhPt/8ZflNL0tg/f7H3G21K1J+jnv/wBh23/lQv8AYqfRz3/7Dtv/ACoX+xU+mOhPt/8AGX5R6Wwfv9j7jbalak/Rz3/7Dtv/ACoX+xU+jnv/ANh23/lQv9ip9MdCfb/4y/KPS2D9/sfca1+Hb/pJ5B/JIH/LN16kNtttNpaaQlCEAJSlI2AA7AB3V5Ta7v3/AFs1KuGofky32bx5qO14n48uRwdE0lG/H0KN9+Hf2o23762l+jnv/wBh23/lQv8AYq87ofyj0XhcZi6taraM5Jxylmry4LLet5zMDjaFGvWnOVlJ5ZPn5jbalak/Rz3/AOw7b/yoX+xU+jnv/wBh23/lQv8AYq9F9MdCfb/4y/KdP0tg/f7H3G21K1J+jnv/ANh23/lQv9ip9HPf/sO2/wDKhf7FT6Y6E+3/AMZflHpbB+/2PuNtqVqT9HPf/sO2/wDKhf7FT6Oe/wD2Hbf+VC/2Kn0x0J9v/jL8o9LYP3+x9xttSoH0Q8Ju4avZw9hk7AI9k6O0v3NElq8ql8XRPMNlBQY7e2/Tg77n2u23Pep4rtYHH4fSVFYjCy1ovls1u6bG5Rr08RHXpu6FKUrcMopSlAKUpQClKUApSlAKUpQClKh7X7X6ZonMx2FCw1m/LvzU10l26GGGBHLA7mXeIq8YHm24e/flrYzGUcBRliMRLVhHe83vduS73sx1q0KEHUqOyRMNK1J+jnv/ANh23/lQv9ip9HPf/sO2/wDKhf7FXC+mOhPt/wDGX5TS9LYP3+x9xttStSfo57/9h23/AJUL/YqfRz3/AOw7b/yoX+xU+mOhPt/8ZflHpbB+/wBj7jbalak/Rz3/AOw7b/yoX+xU+jnv/wBh23/lQv8AYqfTHQn2/wDjL8o9LYP3+x9xbP8ACWf9x8N/2tI/4NZz4AP+jvD/ANrTf1hWuvhLav3/AMIix2azeo234/5IluSuk8sLl9LxI4eHbxdvh27d9zV90A8Ia/6Gads4F639vvfRS35Xjfl1cbfpCDw8Hiq+zbt4udecpeUWjI6cnjHV/duNr2lvy5LX5OByoY2gtISruXqtWvZ83Nc39pWpP0c9/wDsO2/8qF/sVPo57/8AYdt/5UL/AGKvR/THQn2/+MvynV9LYP3+x9xttStSfo57/wDYdt/5UL/YqfRz3/7Dtv8AyoX+xU+mOhPt/wDGX5R6Wwfv9j7jbalak/Rz3/7Dtv8AyoX+xU+jnv8A9h23/lQv9ip9MdCfb/4y/KPS2D9/sfcbbUqB9EPCbuGr2cPYZOwCPZOjtL9zRJavKpfF0TzDZQUGO3tv04O+59rttz3qeK7WBx+H0lRWIwstaL5bNbumxuUa9PER16buhSlK3DKKUpQClKUApSlAKUpQClKUApSlAKUpQClKUApSlAKsma5KvDsUumTtY/d765bo6nm7ZaIxkTJa+xLTSBtupRIG5ISO1RABIvdKA1W8DHwr9WfCAnZXZ9WdDbrhz9ovE6HCnsRnVwR0DpQ5BfcV7WUyeqpWyUr2OwQRwnamoB8Dz/IWqv8A/l7Mv/5FdStqm/lMbTHL5ODR1v5I1YbguztI9s5OEdZYSPhLnAKAxG6+EXjDU67RcPw/Mc5Zx+WYN4m4zbEyY0J9J2da6RbiPGHG/wDxG4/SrQeqU8XVrK7vqPY7LqVjel02NMFzym2XO6QH0oSY/DBXFS82o8XEFkS0KSAkghC9yCADDPgx62eD1jHguYRLY1Kxiy26yWGKxdkXG6ssPw7glsGWiSlxQUl8v9KpQI3UpRI34gTieoGscTK9YtGdVMUxPIfJ8OJnDdrFzgmEu9tItLUhLrDSz0oZcUxwoLiEKVw8QSUFKlAbe0rQGbl8y5eDHE8IO+eFdkMjV/I7I3d8asmP39LMAXeQjjh2ZizNEolAOKbYWHkOuHZaipOx2zTTrwirbing1akXrXHXO2QcyYv2XRVRX7q2ifa3m5chmNDjsg9LuA2hbSEgnhWkjltQG5VRxonqRd9S4uaTbrHiMosGa3nG4YjpUOKPCe6EKXuTusqSskjYdwA2rUTAfCgv+puOWlvUnwmLfo/jmKYdjUi8zkOQU3/JrpOtTMt11kzG3Utxx0nCOiaU444HACANqmb/AAeN1F70CuN2XdZ9zfl5xk78ibcI4YlSXF3N5ZdebCEcDigoKUngRsSRwp22AGzlKUoBSlKAUpSgFKUoBSlKAVqT4c/+X9Pv5He/17fW21a3eFBhruoOq+lGINSRHFwZvgceI36NpBgrcUB3kIQrYefavO+VdGeI0RVo01eUtVLpc4pGhpOLnhZRjvdvmjUWlSq9kXg9ruJsKNObw3awvoBfkXlwzeHs6fxcp6Lc9vDt2fcqtuXg6SLPGXdL1nVotdsYuc2A/Knex7JYWA2ptAJU6twcag2kcgjmedfFVoatVTeGlGoo+1qt+r06yjlzq6ybvkeV2Wcs6bUrb7cnXbuIdpU52DR+xY1a8jyi/wBil5vFiN29VjjwVPxkT25aeMPLCR0qOFJT1e48QO/I1UR9OMTyTGi3ftPHdO7xcLnCt9kdcmyXFTVvPJQsGNIUVlCEq4isbA7jY8tjnj5PYppXaUmm7O+5Nr2lFwV2na8s8uKvZYGo1m1fhn87W6MyBKVKsnQORYrmbXm+ouJ46+XFobYkTC4+pIJ4HFIQkhCFgbgqUDseYB5Vwx/we8tvdnt92kXGFbvLRHktl1iS8uQlRHC4roWl9C2oHcLXt8IA51rLQmPctTzbvyq6urW355b1a9r8hTZK17aufjqItpUoN+Dvnfk/yrPnWG2xG5cmFIfnXFLLbD7LvR8ClEcytQVw8PECBz23APcz4NufCWi1XW4Y/arrI6Yw7bMuA8ZmJaCipTaG0q6pCFbFRSDtRaE0i7fuZZ25OO7r5OLyWY2Sv7jIppUq3nRrIrnczdVu43YLMYEB5c995USA2t2MhaWk8ZWtbpG5UE8W5JPLiAq2W3Ra95BlPqaxTIrFe2m4QnyblEkLMSK3uRs4SjiC9x7QJJIUDt27VnojGRnqKDbbsuL6Fvtz7uch4WqnaxHtKznPNJL7g1oi5G5MYn2iZJVEbkoYfjqDyU78Kmn0IXsQFbKAKSEnn3VZsOn4VAmvrzewXC6xVtcLSYcwR1Nr3HWO6Txctxty+3WvPBVKNdUK9oPi93M7q90+KuUdKUJ6k8vHMY/Spu1FxjQfTq/os0myZfPkqhMyy0m5MIaSXE8QQVdHxbgbVhNp0kvk21Qr5e75YcZhXQcVvXepvQqlJ3240IQlS+Ds66khOxB32O9bVfRFejVdCLUpRvfVv6tuLaSWbtv3mSeFnCWos2t9uTpM08Db/PhI/wB1Lh/zkCt36018F/GbxhvhIXTGb9HSzOg4vPQ6lKgpJBlW9SVAjtBSUqB8xFblV9g8iISpaJjCas1KSa4NM9NodOOGs992KUpXrjqClKUApSlAKUpQClKUApSlAK1J8Of/AC/p9/I73+vb622rUnw5/wDL+n38jvf69vrzPlj/ACSv/wCP/tE52lv4Ofw+aNaqUpXwI8aKVm+m2L2S4xr9mWVsOyLHi0Vt9+K04W1TJDq+BhgqHNCVK34lDmADt27i3ZJnKsktotq8Sxq2huSH2nrbbkx3UJ4VDoisHdaDuD1ypW6Rz7a3HhVCgq1SVnK7irXbSdr8yumlzp9Jl83aClJ79xjNKl7L9L7jk17xtGKW2FFbk4ba7vcpC1IjRIo6LgcedWdkpHU3PeeZ2POrfB8H7K710D2NZDjV7hOuPMuzYM5SmYzjbanOB3iQlQKkpPCQkg8uYB3ranoXGeccKcHLOyty9HHfnw5TI8JV1rRVyMaqbbbLjeJiLfaoL8uS4FKSyygrWQlJUo7DuCUkk9wBNXOzYfeL9Yb1kNuDS2LF4t4y3xHpVdO50aOBIHW62wPMdo7alXS/SvLcMvc7JclagQHbdj9ym+IOTmTNShURxKXFMBRWlO6wCSBsTzqmB0XXxlWC1HqO12luV2m+HI+oijh51ZLJ2fLzeLkHUqqtbtvYuUV66xHJUJt5CpDDbvRrdaChxJCtjwkjcb7cqmWZjeg3reRNRnrBl8RiZdF2xuGxcmFq4kt8ZXxLb9r3efeseDwEsbGcozjHVV3e6y47muXpIpUXVTaaVuJCFKzyJgbWe3G5XfCIabBjFuS2JE6+3BIZjqI2HE6EjdSldiUpUd1DzirVmOn90w6Lbbm7c7XdbZd0uGHPtj5dZcU2QFoPElKkqTuNwUjt79jtWpgK8KbrKN4LlW5q9rq9na+V7WvlvKujNLWtlx8chjFKUrSMRNngbf58JH+6lw/5yBW79aQeBt/nwkf7qXD/AJyBW79fcvIX+TQ/ql8z12hv4X4sUpSvYnVFKUoBSlKAUpSgFKUoBSlKAUpSgFKUoBSlKAUpSgFKVHOcaYZhld+Xd7LrLkeNxlNIbEGC00ppJA5q3UN9z30Bm1nx6wY63Lax+x2+2InzHrhKTDjIZD8p5XE6+4EAcTi1EqUs7qUeZJNXCoZ9YzUf98lmf4Bj5KesZqP++SzP8Ax8lAZq/ozo/Jyw59J0ow53JysOG9LsUVU/iB3CvGCjpN/h4qySVZLNOuUG8zrRCkT7X0viMp2Ohb0XpE8LnRLI4kcSRsrhI3HI1E3rGaj/AL5LM/wDHyU9YzUf98lmf4Bj5KAzmy6RaUY3kkjMsd0xxO13+WSX7rCssZiY6SNiVPIQFq3HLma7TpZpirLHM9OnGLnJnQA5ejZ4/j69hsN5HB0h5cvbdlYD6xmo/wC+SzP8Ax8lPWM1H/fJZn+AY+SgM8RpTpc3Ms9wRptiyZWPR0RLO+LPHDluYR7RqOrg3ZQnuSjYDuq+Wmx2SwtyGbHZ4NubmSnp0hESOhkPSXVFbrywkDicWolSlHmokkkmon9YzUf98lmf4Bj5KesZqP8Avksz/AMfJQEzUqGfWM1H/fJZn+AY+SnrGaj/AL5LM/wDHyUBM1Khn1jNR/3yWZ/gGPkp6xmo/wC+SzP8Ax8lATNSoZ9YzUf98lmf4Bj5KesZqP8Avksz/AMfJQEzUqGfWM1H/fJZn+AY+SnrGaj/AL5LM/wDHyUBM1Khn1jNR/3yWZ/gGPkp6xmo/wC+SzP8Ax8lATNWs3hYZfcsC1K0ty60IbXKtzF8WlDg3StKjBStJ+ApUob9o3rM/WM1H/fJZn+AY+StffCiwXI8Lv8Ah3qg1JvWWeOQ7t0PlFDafFuBcLi4OAfTcQ33+oFec8ras6Oh61Wm7SWq0+DU42OfpSThhZSjvVvmi3s5H4P8W4+qVrCMoelpdMhFlemsG3Be+4QV8PSlsHuI57bHccqtWe6mjO8VtFumx3U3WLdLncJjgSAyrxpxKwEcyeRChsRyG3M92A0r4jU0rXnTlSSjGMt6UUr5p3y50rcizsldnlJYmbi45JPfZeOBNl+16iL0ygYpicm/Wu8x4lrjOymVhhJEdlSHAFoc4iCSkgbcx27bVFlpya4RcstuVXOXJnSYU1iYtx50uOL6NYV7ZR3J5d5qzUqMVpTE4ycJ1Jeza3DLm4kVMRUqtOT3GT6m5Fb8uz6+5LaVSjDuMxb7PjIAcCTtyIBOwHYBv2AVLUzXrDcgi2qbd7zqPZplvgNRHbZYLg3GgOrbHtgriC0hXfyJA2APLcwJDhTLjKbhW+I9KkPHhbZZbK1rPmCRzNV0zFcnt11jWK447c4lymFAjw5ERxt50rVwo4UKAUd1chsOZ5Vnw2lMZQnVrU1dVH62WV73Xz3fMvTxFWDlOK9rf0mY6gamWvLcOsWM2iBOtyINxuM+Yw6+X0KU+6FNEOrUVurSkucSlBO5UduR5ZDI1rsMzwhmdVpUa7Lskf2NqOUIMhDfipa2CePhHXUpW3F9MT21DjzL0d5ceQ0tp1pRQtC0kKSoHYgg9hBrhVfTOLVRVG1dOD3ctNNRy3WzzXEjaqutrc6f9u4nOLryxIutviC/XOzY9Cs8JuQwm1RJrz81htLalMh7iS0VJ3AWe5I3Tz5V0bwl7ZcbxkCLxb7zZ7ddrfEgR59lcaRc2fF1uKDilbJQVL6VXFw8ISNgkd9a/VfLTiVwu+MX7K2H2ERMf8VEhCyeNapDhQgIAG3LhUTuR2d9blHyg0nOWrTlfe2t+Si75N5JRvutx32MsMbiG7RfF9ndfcZRqZnWMZLbIVosMrMboqM8X1XHJbqX3QCkgtNspUW0JPIlXNXIDs7Y7pSuNisVPGVXVqWvzK3j45mrUqOrLWkZnq/mdt1A1BuOU2ZmWzBkojNsNykpS4gNsNtkEJUoDrJURsTyP2qye65ro/l8Sw3DMIOXi52azxrUuHAMZMR4MJITs4o8aEq7SAnludvOYlpWytKVvO1as0pecd2mrq977uZvoL7RPWlJ2etmzYrwb8tlZz4Tl4yqXFbjLnYvO4GGzulptEm3obQCe3ZCUjfv235VuDXn14O2KXrMNWDbLDm9zxaQ1j059Uy3pQpxxAkw0lo8XLhJUFfGkVs/6xmo/wC+SzP8Ax8lfZPIqrOtopVajvJyk2+dvM9RoiTnh9aW9tkzUqGfWM1H/fJZn+AY+SnrGaj/AL5LM/wDHyV606hM1Khn1jNR/wB8lmf4Bj5KesZqP++SzP8AAMfJQEzUqGfWM1H/AHyWZ/gGPkp6xmo/75LM/wAAx8lATNSoZ9YzUf8AfJZn+AY+SnrGaj/vksz/AADHyUBM1Khn1jNR/wB8lmf4Bj5KesZqP++SzP8AAMfJQEzUqGfWM1H/AHyWZ/gGPkp6xmo/75LM/wAAx8lATNWpPhz/AOX9Pv5He/17fUoesZqP++SzP8Ax8la++FFguR4Xf8O9UGpN6yzxyHduh8oobT4twLhcXBwD6biG+/1ArzPlj/JK/wD4/wDtE52lv4Ofw+aIcpSlfAjxpnGm2c2PG4d+xXL7TJn47kzDLU0Q3AiUw4ysrZdaKuqSlRPVVyPLfkCDXnI9HcWbXLw/FrxfrmtKktO5MGPFYpP04jtEh5WxPJxXCDsdj2VHFK6FPSVanSjTtF6t9VuKbSbvk3zttcG21YzxryjFRyy3Zbia1ay4Td8fOH5Bbr61bZmM2i0S5MFLIfbkwXXXN0IUrhU2rpAOZSer2ebpx/VvAMKQ3iuK2W/qxyet9V6mSnWk3F/pIy2EhlKPY2w2HFKG5JJPaNqhqlbXp7F60Z5a0ck7K9r3t0Nt35Xdq9sjJtlW6eV1zcnAnTCtW9H9MWJ7GI4xk1yXOXEkLkXZxgErYkIcS2EN9VKdgpQXuohQTy27OuFqro9YZ+QXC02DLrnOya3zosy5XaSyXmy+g9RDaDwqSVcPEpR4gByB32qD6VdeUGLjGMIqKUfZWqsr3vbpu89/BolY2okkkrLdluFZtes2tM/SjHMEiR5aJtqny5ktxaEhlfSHqcBCiokDt3SPt1hNc2GH5TzcaMyt551QQ222kqUtROwAA5knzVyaNepRU4w/1rVfRdP5pGtCcoXS5ciQcSzPCFaeyNOs6YvzUXyyL0xKtAZWsudD0RbWh0pHDsNwQd9z92251mFhu1rtGI4da5kOw2RT7rK5zqVypTzxSVuu8ACE8kJSEp32APM78sOUkpJSoEEHYg91fK2J6RrTo+Ydtyje2bSd0r8L/qXdeThqfDnsKUpWgYSbPA2/z4SP91Lh/wA5Ard+vPrwdsUvWYasG2WHN7ni0hrHpz6plvShTjiBJhpLR4uXCSoK+NIrZ/1jNR/3yWZ/gGPkr7l5C/yaH9Uvmeu0N/C/FkzUqGfWM1H/AHyWZ/gGPkp6xmo/75LM/wAAx8lexOqTNSoZ9YzUf98lmf4Bj5KesZqP++SzP8Ax8lATNSoZ9YzUf98lmf4Bj5KesZqP++SzP8Ax8lATNSoZ9YzUf98lmf4Bj5KesZqP++SzP8Ax8lATNSoZ9YzUf98lmf4Bj5KesZqP++SzP8Ax8lATNSoZ9YzUf98lmf4Bj5KesZqP++SzP8Ax8lATNSoZ9YzUf98lmf4Bj5KesZqP++SzP8Ax8lATNSoZ9YzUf98lmf4Bj5KesZqP++SzP8Ax8lATNSoZ9YzUf98lmf4Bj5KesZqP++SzP8Ax8lATNSsfwfG7tilhRaL1l1wySSl1bhnTkpS6oE8k7J5bDurIKAUpVjza55TZcTul2wnF4+R3yJHU9CtL9xEFM1wc+i6ctuBtRG/CSnbi2BKQSoARz4NGb5TnNp1Ck5Xdl3Byzak5PY4KlNoR0MGLOU2wyOADcIQANzuo95NS5MmRLdDfuE+S1HjRm1PPPOqCUNtpG6lKJ5AAAkk+atLv8Hbqpq3nb+pMLJNBJuH2J3N79e5NzuV1UHW58uWXV29uMY6S6WSSlbvGkAgdXc8I201JxE6gadZTgYnrgnJLLOtHjSN+JjxhhbXSDbY7p49+R7qAhLHvCn1P1CtJzzSjwWslyTA3FKVAu8i+wrdNukdJ2MiLBfIUptWxKC4tsrHCQOfLO7B4UGiN7x+1ZFLzaNYWbpZpt8LN8SYLkOPDkoizEyek2Qy4zJcSytClb8YUBxAE1GWmOr2q2kulWPaW5h4L2oVyyvE7UxYWV48zDkWi6eKtpZakNSy+lLDTiUJXs8lCkcRHCdqwvT3wZ7/L8IDT/JtbtObZeFIxvLMluB8VEu12m/3G+NS246FqBQpxpmQ6hKjzUWluDnzAG1Wmmq+m+seOryzS7M7XktobkuQnJdveDiG30AFTau9KgFJVsQN0qSRyIJjrMvCEzROsFy0T0c0cVmt6x62xLnf586/N2i22xMrpPF2lO9E84txYaUrhS0dk89zsdrNadMM7vOsOsjdnzbLNPbbc7rYp0a4WeBCPlFCbQ1HdDa5kZ5vqqZQkqbTxAoAJ7BWGad+D1mVz8I7W26X/AFI1VtFrWnFoEG5xpLUEZAhi0IS6+p5EZIcWlwrSpUctgKUoEA8gBIWIeFP0WpFx0i1ywmPp1k0Vi2yYS0XtFzttxROkLjRkNSQ20pLq3m1IDbjaFHYkbjnWdO+EJoUzm8fTU6wYevK5UnxJuyt3hhyZ4x/qi0lRUlf8FQBqA/DB8GnGoHgpZjYtMcQvdwvcy7WW7zJEZ6Vcr5c1sXCOHHFSXFOSHnEMF4p3UeEDZIAqd0aOYhgWm8nF9GsGxuwzrXbX0490cFtCI07oVpZdUvhKirjIKlndR3USTudwK2VrrorBzpGmMzVrEGMuWsNJsjl6jpmlw7FLfQlfFxkEEI24iOYG1X1nOsJkLYbZzCyLXKlv29hKZ7RLspl1TLzKRxdZxDqFoUkc0qSQQCNq80NMdFLg9pNbdFsr018KW8ZJNmty8lsrjUKz48/cQ8HXHXbqpr2VgupKw6h111W/LnsBnE3wV4rugHhMajXbSC53DUzJsvymXji3LS49c4zCbityD5OBR0iG1OFT4W0B0nHxbkBOwG7OU6wYBZpF1xeFqLhaMwiW6XNYs0+9tNPewtKcUt1pBU8lpISVLUlCilIUduVc71rNpfhmKWfLNQdSsRx6DeIrUiNLnXdmNGk8aAvdhbxSXEkHcbDcgjlWqOsXgzRdMdKdH8W0n0ylXC7WyXcWr1Pt1sU/MkOyccuLL0mW6hJUS7IdQCpZ24lISNuqKw6FopqlplYMVyuzyJt51FzXCbHGYx+bpsi9XC0SYdsjsOxfKUmQ3Et8RLp3Wl0JPE4ojpFcqA3pvuruleMYXF1HyLUfGrbis5tt2JepN0ZbhSUuJ4my08VcDnEOaeEni7t6umJZniGfWNjJsGyi05BaJO4ZnWyY3KYWR2gLbJTuO8b7itBdTtMNa7XqxpXl+t8HPZNoxnBRDjvaO48zMbt+RLkLMhPixZdUwhTHQoDyGwCWwAUAqFbJeB/hS8XsWX3xWFag2Q5XfPKzkvPblGfvV0cLKGy87HjgIipAbSlKCeM7EqAATuBsDSlKAUpSgFak+HP/AJf0+/kd7/Xt9bbVqT4c/wDl/T7+R3v9e315nyx/klf/AMf/AGic7S38HP4fNGtVKUr4EeNFKUoCUmn5en+jFsvdgK490zWdLZkXJk8LrEOMUp8WSsc0dItRUrYgqCADuKsenr2U33OMbnLN0ujFkuMJa3D0jyYbPjKTzPPo0cRPmG5PnrhiWqd8xSyP4w7abNfbK+94yLfeIhfZaf226VvZSVIVty5HbmeXOu276wZVczCjRI1rs9qgym5rdptUQRoa3kKCgtxKTxOHdI9so7bctq7zxWFkqVTzkkoKK1EuVb3e9rOXrXzedrcpu+cpvVes8ksuf9XmZjmuB4hZ7xkmdahXG5oh3PJbrEtNstQbEiT0UhYW6pxzdLbaVbJ9qSSR3dtNkekuExtNJ+p1gvl18UejwXLXDmhsPh1yS4y8h4pTsoANKUhSeHfnuOXOz+vnf5XjKL/imLX1l64Sbkwzc4C3UxHX18bqWtnAQgq58Kirs5711xNcssbuFxk3S12C7w7jHjxVWudbwqCw0wVFhDTSCngDfGvhAP0xJ3POtyeK0TOUrrKSdvVd1Jp+s3fNX3RXJZ71nldTDNvLfzZp8evkK/FNFPVjhtnyiFeU29px+f5ZlTSPF4caOGyHUgAKUdlkbbndRHYNzV4dtOG2nQ7M5WFXy6XRmVdbZDkvTISYyVKaU4sLbAWo8J6QclbEbDlzq1teEjnLUNFq8i4wq1Nl1AtvktKYpYcSApgtpIHR8SQv6ri33URyq05Jrfl2T41Ow+VAskOyy1sLahQYIjtQ+iUVbMhJ5cRPW4uI8httRYnRGHpPzF9dwlG7i/acNW69ayTzvk3d8iHnMLCPqb7NbuW1uOS6yPqUpXlTmilKUBNngbf58JH+6lw/5yBW79aQeBt/nwkf7qXD/nIFbv19y8hf5ND+qXzPXaG/hfixSlK9idUUpSgFKUoBSlKAUpSgFKUoBWpPhz/5f0+/kd7/AF7fW21ak+HP/l/T7+R3v9e315nyx/klf/x/9onO0t/Bz+HzRrVUn6H2+2tLynM5tpi3aTitlcuEGDJRxtqf4gkOrR9MlsbqI+EEbEA1GFXnEsvyDB7yi+41PMWUlCmlbpC0OtqGykLQoFK0nzEdoB7QDXw/R1enhsTCrVV0vjbLJ2eTs87ctjydCcadRSlu8fIlXAtTMv1ZyljAtQVRb9aLsh5C0uQWUOQdmlKEhlaEpKCjbfvG24251W3PDdEsYyPGcaudlvVyud/g2xLrTUssRoipCUpW/wAZ4lrc4iV8A2RzA+LBbjrXkUm0zLRZsdxfHU3Fkxpr9mtKIz0hkjrNqXuSEnvCdv66sl31Bvt6yO0ZRMbiCbZWYbEcIbUEKEYDgKxxbknh57EfBtXdlpbDqio1X56omvWnG/q8qV227c+Wbssrm28TT1bS9aV97XJwz8Zk+TrHkmnOAWXHMJzzGsVdcnXZN0nT5TcaTN6GWpppSSUqWQEJ2PAPMKpbc5iGtb8TTzJMmTfbzbLPPlKyhEYsJbe3b6NsAhKnm0DjKisJ4thttuTUK5/qZfdRVQjeYkFgQHJbjQioWncyH1PL34lK32UrYdnIc9+2qHBM0uWAZG1klrjx5DzTLzBZkBRbcQ42pBCgkg/Tb9vaBWeensNtMaMY3w9oRabbWqkr2jeyd03e128002XeMp+cUEvUyTvfdlyeGZixadHL3K9RWF2/KLje7k8zCt1zmyGmY/TqcSkuFpKeJLW26uZUrbkdu0ZpkeiWkNgj3K0Sc9hMTLXDccXOcv0cvOS0J5s+IJQVBJIOw6TjHZzqBrNd7jj92h3y0STHmwH0SGHQAeFaTuDseRG47DyPYakK46+5DL8clW3D8Ps11n8fT3a32nhmqK/bqDi1K4VK3O5AB3JO4POtTBaQ0fKlN4ulFT5LRy1c8lZrO/K2na3rbzHSr0HF+cir9HJ3+LmXuaEaa+qSyYSMxvSL7k1tbmwWxGbWxDJj8f8A2hZIKuNaHOEIAIGwPco8sY0w0xXfJUTF8myiTeMXvFpiSpzbjcZh/p5zcd0sBALiOHiVsrj7eY3HMx23rFkzeoNu1I8QtarlbIyIzDJac8XKUMFkEp4+LfhO/JQ5/ByqhwPUy/aeqnKs8SBIM92I84Zba17KjvpeRtwqT2qSN99+Xm7azR0jomNZNUUlrSzs7qOqtXK+9zu3wsluyLKvhlL2crvjutl2kwo8HG1RHlzJ1tyjJ3JsuQWW7NIjNMx20PqQEPvvnrOkDcpSBsQQT31brHoFjsC33XKM5kO2qILm/Cs9rut2j25x1CFkcT8gpWnfbls2k7lJI6pFR1aNVZ1nuV2yRnG7M/kNznOzmrlJaU74itxRUosNKUW0rC9ilagojbbnVZZtb8mg2lVlv9ksGVxvG3JrXl+GqUtl5wkuFCgtJ6yiSQd9yTWWOO0G2m6VnnblV+Ry9W7vm7etFO3PayrYS6vH8V8cr/NFs1UxfE8TyRq3YdkjN5hOwmpDi2pSJKY76uILZ6ZASlzbYHiCU8lAEbg1h1X7Ms1vOcXJu43dMRlMdkRosWHHSxHjMgkhttCewbqPbufOasNeYxs6NTETnQVoN5K1uy7+fVuOfVcZTbhuJs8Db/PhI/3UuH/OQK3frSDwNv8APhI/3UuH/OQK3fr7R5C/yaH9Uvmeq0N/C/FilKV7E6opSlAKUpQClKUApSlAKUpQClKUApSlAKUpQClKUApSlAfOzsr7SlAKUpQClKUApSlAKUpQClKUApSlAKUpQClKUArUnw5/8v6ffyO9/r2+ttqsWT4Hg+beLerPDLFf/EuPxbypbmZXQ8fDx8HSJPDxcKd9u3hG/YK5Wm9HS0tgKmDjLVcrZ9DT/A1cZQeJoSpJ2vb53PNGleiPrEaH/Yawb8nYfzdPWI0P+w1g35Ow/m6+d/s3xH26/tfecP0FU99HndSvRH1iND/sNYN+TsP5unrEaH/Yawb8nYfzdP2b4j7df2vvHoKp76PO6leiPrEaH/Yawb8nYfzdPWI0P+w1g35Ow/m6fs3xH26/tfePQVT30ed1KtXhO2bHLR4T+QWPHLDBtdpjzbey3BixW2GEf9mY6ThbQAkBSuInlz4iTzJr0m9YjQ/7DWDfk7D+brl6P8jKukK1alGsl5t23PPNrjzGphtHTxM5wUktV2+fced1K9EfWI0P+w1g35Ow/m6esRof9hrBvydh/N11P2b4j7df2vvNv0FU99HndSvRH1iND/sNYN+TsP5unrEaH/Yawb8nYfzdP2b4j7df2vvHoKp76PO6leiPrEaH/Yawb8nYfzdPWI0P+w1g35Ow/m6fs3xH26/tfePQVT30ateBt/nwkf7qXD/nIFbv1jeN6aac4bOcumIYBjdjmOtFhci22piM6pokKKCptIJSSlJ2323SD3Vkle+8n9FS0LgVhJy1mm3dZbztYHDPCUvNydxSlK7ZuClKUApSlAKUpQClKUApSlAK1J8Of/L+n38jvf69vrbarFk+B4Pm3i3qzwyxX/xLj8W8qW5mV0PHw8fB0iTw8XCnfbt4Rv2CuVpvR0tLYCpg4y1XK2fQ0/wNXGUHiaEqSdr2+dzzRpXoj6xGh/2GsG/J2H83T1iND/sNYN+TsP5uvnf7N8R9uv7X3nD9BVPfR53Ur0R9YjQ/7DWDfk7D+bp6xGh/2GsG/J2H83T9m+I+3X9r7x6Cqe+jzupXoj6xGh/2GsG/J2H83T1iND/sNYN+TsP5un7N8R9uv7X3j0FU99HndSpi/wAINp5gGF4dicrDsGx+xPSbm+285bLYxFU4kNbhKi2kEjfnsazLwIdLdMss0Ii3jKtOcYvM9VzmNmVcLRHkPFKVDZJWtBVsO4b1yoeRlWekJaP86rpXvZ25OfnNOOjpyxLw2srpXua10r0R9YjQ/wCw1g35Ow/m6esRof8AYawb8nYfzddX9m+I+3X9r7zc9BVPfR53Ur0R9YjQ/wCw1g35Ow/m6esRof8AYawb8nYfzdP2b4j7df2vvHoKp76PO6leiPrEaH/Yawb8nYfzdPWI0P8AsNYN+TsP5un7N8R9uv7X3j0FU99GrXgbf58JH+6lw/5yBW79Y3jemmnOGznLpiGAY3Y5jrRYXIttqYjOqaJCigqbSCUkpSdt9t0g91ZJXvvJ/RUtC4FYSctZpt3WW87WBwzwlLzcncUpSu2bgpSlAKUpQClKUApSlAKUpQClKUApSlAKUpQClKUApSlAKUpQClKUApSlAKUpQClKUApSlAKUpQClKUApSlAKUpQClKUApSlAKUpQHlP4Uv8ApX5P/taF/wABivVivKfwpf8ASvyf/a0L/gMV6sV5Dya/i8b/AF/jI4mifrq/9X4sUpSvXnbFKUoBSlKAUpSgFKUoBSlKAUpSgFKUoBSlKAUpSgFKUoBSlKAUpSgFKUoDTb/CWf8AcfDf9rSP+DWc+AD/AKO8P/a039YVg3+Es/7j4b/taR/waznwAf8AR3h/7Wm/rCvIUf8A7LU/o/CJxKf81l/T3GyFKUr152xSlKAUpSgFKUoBSlKAUpSgFKUoBSlKAUpSgFKUoBSlKAUpSgFKUoBSlKAUpSgFKUoBSlKAUpSgFKUoBSlKAUpSgFKUoBSlKAUpSgFKUoBSlKAUpSgFKUoDyn8KX/Svyf8A2tC/4DFerFeU/hS/6V+T/wC1oX/AYr1YryHk1/F43+v8ZHE0T9dX/q/FilKV687YpSlAKUpQClKUApSlAKUpQClKUApSlAKUpQClKUApSlAKUpQClKUArCdX9V7Novhjmd5FZLzcrbHkNMSPJbLTjjAcJSlxYccQAjj4Ubgk8S08u0jNqtOWYxZ81xm6YjkEbp7deIjsOSgcjwLSQSk9yhvuD2ggEdlYq6qSpSVF2lbLp5ClRScGoOz5Dzr8LvwosA1+xzH7Ph1nyCG9aprsl5VzjsNpUlTfCAkturJO/nArJPBg8MbTLRXSpjBsqsWTyp7U2RJLlvix1s8LigQN1voVvy59WtXtR8EvGmWdXvA78n/tlmlqjqWE8IeR2tupB5hK0FCxvz2UKyfwdNJH9adWbNhqm3DbUr8du7iCR0cFogucxzSVkpbSe5TiT2V8no6T0jLSbqxS89L1N3Qt3wPGQxeJeL117by3fA9X9P8AM4moeGWnN7fablbYl6jiXGj3FtCJAZUTwLUlC1pAWnZadlHqqTvseQyGuthhiKw3FistsssoDbbbaQlKEgbBIA5AActq7K+twUlFKbu+VntYppJS3ilKVYkUpSgFKUoBSlKAUpSgFKUoBSlKAUpSgFKUoBSlKAUpSgFKUoBSlKAUpVpkSJfjb6ES1oQhQSlKUp+pSe8HvJoC7UqzdPN93u/eI9GnTzfd7v3iPRoC80qzdPN93u/eI9GnTzfd7v3iPRoC80qzdPN93u/eI9GnTzfd7v3iPRoC80qzdPN93u/eI9GnTzfd7v3iPRoC80qzdPN93u/eI9GnTzfd7v3iPRoC80qzdPN93u/eI9GnTzfd7v3iPRoC80qzdPN93u/eI9GnTzfd7v3iPRoC80qzdPN93u/eI9GnTzfd7v3iPRoC80qzdPN93u/eI9GnTzfd7v3iPRoC80qzdPN93u/eI9GnTzfd7v3iPRoC80qzdPN93u/eI9GnTzfd7v3iPRoC80qzdPN93u/eI9GnTzfd7v3iPRoC80qzdPN93u/eI9GnTzfd7v3iPRoDzM8Ittt3wyLw06hK0Lv9tSpKhuCC3H3BHfXqZUJ5F4M+jWV5m7qDf8WdlX9+Q1Kcl+UJCN3WwkIVwIWEcghPLh25c6lPp5vu937xHo1w9EaMq4CtiKlRpqpK6tfdd78lx5zn4LCTw06kptes7q3xLzSrN0833e794j0adPN93u/eI9Gu4dAvNKs3Tzfd7v3iPRp0833e794j0aAvNKs3Tzfd7v3iPRp0833e794j0aAvNKs3Tzfd7v3iPRp0833e794j0aAvNKs3Tzfd7v3iPRp0833e794j0aAvNKs3Tzfd7v3iPRp0833e794j0aAvNKs3Tzfd7v3iPRp0833e794j0aAvNKs3Tzfd7v3iPRp0833e794j0aAvNKs3Tzfd7v3iPRp0833e794j0aAvNKs3Tzfd7v3iPRp0833e794j0aAvNKs3Tzfd7v3iPRp0833e794j0aAvNKs3Tzfd7v3iPRp0833e794j0aAvNKs3Tzfd7v3iPRp0833e794j0aAvNKs3Tzfd7v3iPRp0833e794j0aA1B/wiujvjlrtmtVmi+y2/gtd64E9rClf9nePd1VqLZJ3J6RodiaznwCtHfUFpac8u8XgvGZ8EpHGnrNW9O/QJHm491O7jtStvfmmpzySxwcvsFwxfJAZ1rukdcWXHWEgONrGxG6QFJPmUkgg7EEEA1XMB6Kw3FiySyyygNttttNpShIGwSAE7AActq4kNC0oaTlpFcq3f7tzfV82c+OAhHFvFc3bx6vxL7SrN0833e794j0adPN93u/eI9Gu2dAvNKs3Tzfd7v3iPRp0833e794j0aAvNKs3Tzfd7v3iPRp0833e794j0aAvNKs3Tzfd7v3iPRp0833e794j0aAvNKs3Tzfd7v3iPRp0833e794j0aAvNKs3Tzfd7v3iPRp0833e794j0aAvNKs3Tzfd7v3iPRp0833e794j0aAvNKs3Tzfd7v3iPRp0833e794j0aAvNKs3Tzfd7v3iPRp0833e794j0aAvNKs3Tzfd7v3iPRp0833e794j0aAvNKs3Tzfd7v3iPRp0833e794j0aAvNKs3Tzfd7v3iPRp0833e794j0aAvNKs3Tzfd7v3iPRp0833e794j0aAvNKorY88628H3S4UO8IJAB24UnuA85qtoBVmf/AHbK/jE/qJq81Zn/AN2yv4xP6iaA40pSgFW7IsiseJWObkmSXNi32y3tF6TJeVshtA/pJJ2AA3JJAAJIFU2Y5jjeAY3Ny3Lbo1b7Xb2+keecP2glIHNSlHYBI5kkAV5n+En4TuQ68XVuBDaftOKQVhcS2lYK3XNtumfI5KXzIA7Eg7DclSiBvjpB4Tulutd3n2HE5c6NcYW60RriyhlcpodrrIC1cSR3g7KG+5SKlmvFG1XW5WO5RbzZpz8KdCdS/HkMLKHGnEndKkqHMEGvRfwXvC9turSW8Lz1yLbMtbQlMdwEIZuoAAJQOxL2+5LY5HfdPIEJA2XpXjXcdStQ7vPkXO45xfX5UpxTrrhuDo4lE7nkFbD4hyHdXrnp3cZt30/xm7XKQp+XNs0KRIdUAC44thClKO3LmSTQGQ0pSgFKUoBSlKAUpSgFKUoBSlKAUpSgFKUoBSlKAUpSgFKUoBSlKAUpSgFKUoBSlKAUpSgFKUoBSlKAUpSgFKUoBSlKAUpSgFKUoBSlKAUpSgFKUoBSlKAUpSgFKUoBSlKAUpSgFKUoBSlKAUpSgFKUoBSlKAUpSgFKUoCstHtJP8d/0JqvqgtHtJP8d/0JqvoBVmf/AHbK/jE/qJq81Zn/AN2yv4xP6iaA41YM6zrGNN8Ym5fl9zRBtsFHEtauanFH2raE9qlqPIJFM6zrGNN8Ym5fl9zRBtsFHEtauanFH2raE9qlqPIJFeXnhBeEFk+vGTmdOK4NigrULXawvdLKTy6Re3JTqh2nu7By7QO3whPCLyvXm/pcmBVvx6A4o221oV1Ub7jpXT9O6Qdt+xI3CQNyVRJSlAK5sPvxX25MZ5bLzKw4242opUhQO4UCOYIPPeuFKAV7H6U/5rsO/wBgW/8A5dFeOFehPgeeFPbcytdu0nzZ1iFf7fHRFtcjkhq4MtpCUt+ZLyUgDb6YDcc9xQG19KUoBSlKAUpSgFKUoBSlKAUpSgFKUoBSlKAUpSgFKUoBSlKAUpSgFKUoBSlKAUpSgFKUoBSlKAUpSgFKUoBSlKAUpSgFKUoBSlKAUpSgFKUoBSlKAUpSgFKUoBSlKAUpSgFKUoBSlKAUpSgFKUoBSlKAUpSgFKUoBSlKArLR7ST/AB3/AEJqvqgtHtJP8d/0JqvoBVmf/dsr+MT+omrzVmf/AHbK/jE/qJoDFNSdM8Q1ZxhzEc2t65dvW6h9IbeU0tt1O/CtKknkRuR3jYnlXlTrhiNnwPVrJ8Px9DqLdapyo8dLrnGsICQeau/tr1/rya8KP/SCzn/aqv1U0Bw0d0MyPVN1Nwh2+VKtjUgsvJiLa6YlKeJQAcUkAcPf8fmrbfGtPoOK2Nq3WnQqYYjTPjRcf8SecUgnh6RSlOEncjb7XwVHvgWwM3nYZekYtkFrtkYyHxMXLt6nylvo0bkEOJ235J22+m232NbLxLTq10Dztxy20PLKIT3Qs2rogHdwGWOspe52IURyA35jma3YuMIqOXbfsMDTbbz7DARjUkuFkaDu9Il1LBT0MDcOKG4Tt0nbtz+DY79lQ5qp4PHq9kvT8P04u9kvaSpb6WugcYe27eJCXvY9vqkjbzg1tdHtOoipaW42XQAoTZDaXREBSoqRu+9ue5O/CFfD3bmsMx+y6xOT5LdjzywMrTHcKnFWtaAtobbgbu9/Ll8lTrx5dXrkRqvkv2HmreLVMsV1l2a4ISmVCeWw8lKgoBaTsdiO3nW8PgRaD6bX3CbTq5d7S/JyKDdXzGdVKWGmlNHZCg2CASN9+e/MCtNtSUvp1AyJMlxDjouUjjWhBQlR4zuQkk7D4NzXoX4Bf+j7D/2rN/WFac0oyaRni7pM2JpSlVJFKUoBSlKAUpSgFKUoBSlKAUpSgFKUoBSlKAUpSgFKUoBSlKAUpSgFKUoBSlKAUpSgFKUoBSlKAUpSgFKUoBSlKAUpSgFKUoBSlKAUpSgFKUoBSlKAUpSgFKUoBSlKAUpSgFKUoBSlKAUpSgFKUoBSlKAUpSgFKUoCstHtJP8AHf8AQmq+qC0e0k/x3/Qmq+gFWZ/92yv4xP6iavNWZ/8Adsr+MT+omgONeTXhR/6QWc/7VV+qmvWWvPPXrwU9fM01iyvKsZwPxy13Kep+K/5UhN9IgpA34VvBQ7D2gUB2+CKxgT2GXZWaZk/Z0NynVBhq9ORDI9jRwp4ErAPW2O+3YDz7K2JtNu0vUh8WfUqVJf4oyFuG+uSUh8glx7dRUQlKd08iN+fwCoq8HLB8n0dt9yxzULSa4XG9rW4/EjxkxJoQFtAJUopdOw2CjsOfLfl21McG+2RLb6GdIbzDjGPHbC1WpjiMUKJcd3Qo81K3G+4A3PPkNugtaytfcuVcDWdru9jt8Q03VJSPVfOTHL73/wDXHiTFSnmnsPWcVuQPN29vLALZbtFJEl1Nz1KnRWQ0tTRTkTyyV/SpOy/6dvuVJbmQW0Tw8dKbr0njy3VtKtKObnAQwzt3DbrEdp3Ow5CsNt16tbEyU5cNE7lOU404koVCjJLazz4+S+W3OpvPn60PV5upnnzqH4v6u7/4o+XmfKL/AEbhdLvEnjOx4ySVfGSa9DvAL/0fYf8AtWb+sK1OyLwUNfcwv9yyjG9Oi5a7nLdkxFG6QGyW1LO3VLwKfiIrdPwSNPcw0x0djYrnFo8m3RufKfUx4w09shagUniaUpPP460avty6WZ4eyiZ6UpVCxhufajIwyRb7Tb7BMvt4unGqPBiqSnhaRtxuOLPJCBxdpG3b2bEjCbN4UGMTJz9pvGNXaJMYJBTD4J7ZI7gto8ztueQ25HnyqxZpZYObeEYqz5nCmNWu32NBgtNOKQm5bKSspJ7SnidcSQnn7EPhqV7PZ4ePNLRZLPBguuAIS1HZS22yAANuQG6gNtyewDn5q3/N0adNKSu2r77eOo2tWnGKurtmKO+EliLba1oxTMHCjtSm1Df+lYH9NdH0TWMch6hM463Z/wDa2+f6WpGaKQylfEpUNtRI3HXlOk77/CN+z5K+uqfD226TPeSdzvuiK3/f7prHej7nb+hX937vaRufCbxcAk4Jm+yeRPktvl+lr79E1jG4HqEzjc8x/wDa2+f6WpKIjssN7tKLCVewtfTvr+qP9f8ASe6vqVynXFsocHjCv8e6OaWE/UJ+H/581Naj7nb+hF6fu9pHp8Ie0hJWdNNQQlPafIydh+krtZ8ICzuKKHNPc9YV2pDlk5q8+3Cs9nL7tZwZLJDceOwVsj/ENd7699+I/wAEHnue08649I65IXEZf2eIKpUrsCAO1Kd+wDs+0fh2fuvc7R6nu9php1+x8JUs4Vm3Cg7KPkRWwPw9auXr9WMKCfUNnG5BIHkNe+333wis0WphllkhCiwnYRmB7Z5fbxH4O/8ApPcK+9K8CtCnQHyN5L/0rKe5Cfh/+aj917vb+hHqe72mADwh7KAVv6d56w0jfjdcsw4Ubechw0+iOxAKCTjGXcR5geSTv+tWdB7jU2AwotIPDFj97qh2rV8A85+GqktuJdMZp4KmPDiee2/xaPgHd5gPjNS3R5Y9v6E/u/d7SOz4R+HgFRxjLgB2nySeX51djPhFYa450a8eytk7cW67Qo7/AHpJrOVSY6+IBP8A2KCrh27S873D4eZ3+E865JfkOPKjBxIlOJ4n3AOUdv6kfD/6nen7r3H1/oP3fu9v6GAyvCW02gONIuDd8iJdKglb9tWhO4I37eZ237gf6t8+xjL8ZzO3i6Yveotxj8uItK6zZPYFoOykH4FAGqK62myZFbFQr1aWp9qTs2xFebCw+vbYL2PeOex7RzNRojELHgmtGJwcBQu2uXZmau+RGHFKYUwhsKb3Sonh652G3ft2d8+bo1ItRTTV3xWWZOpTkrK6ZOFKUrTNcUpSgFKUoBSlKAUpSgFYJnOuOmOm97bx3ML/ACIdwdiompZatcuV7Cta0JUVMtLSN1NLGxO/V7Oys7rTHwuP89TP+61v/wCbnVwfKTSlXQ2Ali6KTkmlne2b5mjS0hiZ4Wj5yFr35ScvortCfrtuH5O3P9np9FdoT9dtw/J25/s9aV0r51+0XSX2cOqX5jhenMTwj1PvN1PortCfrtuH5O3P9np9FdoT9dtw/J25/s9aV0p+0XSX2cOqX5h6cxPCPU+83U+iu0J+u24fk7c/2en0V2hP123D8nbn+z1pXSn7RdJfZw6pfmHpzE8I9T7zdT6K7Qn67bh+Ttz/AGen0V2hP123D8nbn+z1pXSn7RdJfZw6pfmHpzE8I9T7zdT6K7Qn67bh+Ttz/Z6fRXaE/XbcPyduf7PWldKftF0l9nDql+YenMTwj1PvN1PortCfrtuH5O3P9np9FdoT9dtw/J25/s9aV0p+0XSX2cOqX5h6cxPCPU+83U+iu0J+u24fk7c/2en0V2hP123D8nbn+z1pXSn7RdJfZw6pfmHpzE8I9T7z0AwDVvANUHLg1hF6enLtSWVS0u2+TFLYd4+jOz7aOIHonPa77cPPblWYVqv4FX+X89/kdl/Xn1tRX0vQOkKmldHU8ZVSUpXvbdk2uW/A7+BryxNCNWe933dLQpSldg2xSlKAUpSgFKUoBSlKAUpSgFRLN8JHEYDyJD+PZCqzyJK4kS7NxEmNLWgkKLW6gpadwRuAezs82S6y5KrFdNr3cGApUp+OYUVKU8SlPPHo07A9pHFxbfwe/srD9JtIHMdh2zKc7fcuF4t8ZLFuiKXxMwE7cktp7OMnmVec7jznbo06apupV6EvHwM9OENRzmc7l4UmAWwrD9iygls7KHk9KNgexXXcTsDy+HmKx2X4Y2LoH/YcOujx2H+Nebb57/Bxd1TMwl6dcHnUrCEJQEPvJV9soSe4dg3+Anvr4pmFOWJjtvaXEjexxmy2Cp1YPIjcdm+/9J89XjLDrfC/x/QsnSW+PaQz9F1E+sb/APemPRqsb8KVLscyU4XDCBtyVk0NK+e30pPF3+bz+Y1KDuPWF991C7LbQpXsk2QY6Op/ASdu34ft9tcHcTwsN+UpeHWfhOyGGzAaK17jYE7p7T3DuH9FnPDfZ9rJ1qPudpGCfCrjJVu/hjSUAEkt5BEWrkO4bjeuSfC1x1KFvv4pMS03tx9HPjLXz7OFHECrn27dnbUhJwzDHFPtu4rY0JSeKW8IDWyO4No6vb5z8ffXf6kcJbbE1/C7MlJ6kWP5Pa4l78gT1e0/0Cmthvc7Sb0fd7SO2vDA05KAXrBkiV94SwwoD7fTD+qrgz4V2lLvFxqvDO223HDB3+LhUay1eE4ehoxl4tYg86SqU8ILWzSfMnq9w2H2670YZhyymUnCrLwkcMVjxBoFf8NXV7NvP2D4TUPZfdfWQ/M+6+sxhjwn9HngkuX2WxxHYhyA8eHn2nhSfj5b1V/RJaLfXn/+3S/mqv72O4zGZVCTZrWAjYynkxGwGx9QgcPI9wHdVTHttsZQ0puyREKIIhxEspAQn6tWw/8Aj4zVGsPvUX1ruKtUuD6/0MYPhIaLhIX6tBsSR/k+Vvy27ui3766z4SekC3eii5FJlHbf2G2yTt9ooB/+azjyZDbbMMxo5Lnskp3o0gJAB+5yJA8w3Px/DJAQ0+lgcBIbgsdnEfqz5ht9wH4arahyRfWu4r+74Pr/AEMJV4RembZ6R2TdkRk7dJKVanw01udhxHh37duwHtFZ7YMiseU21F3x65sT4a1KQl5lW6eJJ2I+OqS4RLfNt0q2XcMyo7o/7eXmwtCwf/DCTuD3cu74zUHZtZ7pozl+PZbgKnLdZb5NbiT7OlavFwTwpSpSN9uJSeLntukp7ettVo0adb1YXT5L5p9iLRpwqZRyZsbSlK0zXKy0e0k/x3/Qmq+qC0e0k/x3/Qmq+gFWZ/8Adsr+MT+omrzVmf8A3bK/jE/qJoDjSlKAxa54jdXr/Mv1pv0eGubEEVaHYSnikAEFSVB1Gx2PeDXW7i2VOrUfVLakJV0AKEWhYHAz7RH7o34d9ie/cDnyrLaVfzkvCRXVRiqscy9S0u+qm2BxDz0gLFoXv0rg2K/3R2pHJPcNh5qoLbgmUWl1x+BmEJpbrSmVHySo7pPaOb/wD7lZzSnnHzdSGqi245ZvU/Y4dm8Z6fxVvgLvBw8R3JJ23O3b2bmrlSlVbcndkpWyFKUqCSHtSJC7frpp5IZ9vLjzoiusBsCjlwk9h3V8PxVITTbb4VKkKAiI9jARvs5seSE+dO/21Gon12cbb1c0wLzymm1zVNqUkkHZTrSSOXn32+3WX6gaw6c6VLtTmc3lUCRdy63ZICIj8h18NJSXFJbZQtXIKBJ25JPx1u1MqVN834s2Z5Qi+b8TNn3lxwFlCDLWkhhruaT5z8A7z9qqWI2w1HclyVFbRPEpZHWkr+L6nfsHf8VYtgep+nWqSblJxDMYV3TaygXNtsqbkNKUN0IcYWA40k7HYKSOIg7b7Gsud8YU62stp8Zc3EZk+1YT3rV8P/wKwcljFzHWsTHZOwIE14ch2piteka4vuMJZNuiAllCuB0p9s+53oB857z3ClxuEKyRJIcmJjtsNKkT5rqgAygDcqUo8gduzuFU1pm2+TDgXe0PsS2rlHQ9b1sOpda8WWkKDoWOqoKBB4hyO/LlUriSVAKmHlNJIVNdHC4pJ2Syjt4EnuAG25/9dq5JU0loFKf+zg8htsZKh3/Agf3376ZLSZCi2he7JVs64Dsp9XaUg9ye0k/bqpeKkOIkICVuqADDfYnl9OfMhI7Pu9/KWD4VSG3HX3VpMx1PafaxWvOfMfg/99+rqFlLI6To0r9p/wCI6s8+f8I/mj4SNvqEpjgl58qO/SKURuVKPYsjv/gp+3XfHQ3bGvH5qD0y+qwzvupO/d8KjvzNL2B2JQ5C3cKUOXGSnhQhPtW0jsA8yR3+eut7eO2ILDvEpR45kgnsA5q+Tb7VYvlOpuE4Bk2OYrlWTQ4OU53IchWSM8SOncQkKU2k7FI23SOsRxKKQNyQDeyEra8QjK6RKXN3F9vTrH9Y32+P7e9QlcLM7GSl51tUQKATumM0fh7XFfCee33a+xmm3mlxkvERGuvJf57uq332B7dv/nvG/wBiMq41RkrClvbqed36qUjtA+DlsfORt2Dkcc41JbioWlppQ6NIHNSj2KO/ao9o37B1j3CrctkSdqpUp6QWWEpS+oEJB9rGR3793Fttv5uQ+OI7jc2x4TuL24SHm4zVmdQ2Sojp3FB9ZUf/ADFI7e3hFS/GjtLQtalpTFR/jXN9w6R2gE/Sg77n6Y71B+TyXz4V2JyfFltJcgANBSeamyiQni2P2/i289ZsOk3Jf7X8jJSs21zM2JpVLdLra7Hb37terlFt8GKjpH5Mp5LTTSfOpaiAkfCTWrWrnh94ZjfTWjSq2eqW4J3T5QkhbMBtXnA5OPbEEEDgSeRCzXDxukcLo+GviJpc3K+hbzm4jFUcKtarK3zNr6VGPg1ZxkepGiuP5rlktEm63Nc5T7jbSWk7ImPNoSEpAACUISnznbckncmTqz4etHE0Y1obpJNdDVzLSqKrBVI7mr9YpSlZi4pSlAKUpQCtUPCBwq85/wCEXCxyydCh1zFITrr76ihmO0iVPK3HFbHhSB3+cgdpFbX1rdqrlFgxzwiLhByeQ7FtuR6eNWJ6Y23xmIH5czZ7hHNQBTzA57H7Vea8q6dGro/Uru0XKN87cvHkvuvybzn6TjGVFKe66IxTpHht7fcs2Cau26935IV0MB62vQ0SlJBJQy8slClHbZIOwV59udY5adJNSL67CatGIzpRnxEzmFNhPB0ClKSlSlb8KN1NrACiCduzbaswxTCMQwLIIOc5JqnjM+DZn0XCNEs0lb8yW80oLab6MoHRgqA3Kuz4PbDq1e1FnXvGsMslqyYrg+Qm3LhCiyNm0yy6vjS6lJ9sAlOyVdgO47efyirg8GqDr4mGpJf6ISvdXik/Wc2t7zzva9uPnJUqWo51FZrkT37uN7eMi1WHSiF6mZ+WagZYcViRLku0NsKtzkqS7LQnicR0YUnhCezcntBB25b1MrRlu7YuzlWm2Trydpc1cB2Iu3KhyUOpZU8QlKlqDmzaCrqq37Ngee0q62an4na7WwjH4mHZQuVepUpxqUEzAzu01s4EtrG3ESRurcHY+Y1H+lWq92nauYlKye5w4Nnt8h5piKw03EhRA8042SEICUJ5r5qPPzmtuvgdE4bFRwErSvqx1le6bavJvW1LJPcovn4mWdHDU6iovPcr58vLvt2GBQdNdQLlaHcghYbd3La0wqUqWYq0tFoAkrSogBQ2BPV3rqiae53cLIckg4feJFrSCrxtuE4pspG+6gQOaRsd1DkNuZq8ZDqFkl7zeVMyfKbjLgrmrYkoiS1BpUQr2cbaSFcIQUbgAciK2JyHPYScobyux5bpLFslvjpRbpj63pVzjMFsApbjIWkhQ3I4AE8jz571q4HRWj8brtVJJRaWerd3v61tyStmm3m16yMVHDUat/Wat0dfR4uapt4plDqEuNY5c1pVGTMBTEcI6BW/C7yHtDwq2V2HY13W7Dslmwm74cZvS7MFp6acxAcW0lHFsSF7BG/dzUBvy3FTlO1clQb3pJjGP5q0zZIrFtfuzzMpDKVKU/wuNyeFWyAltO5bUdhxnfsBrqg6q+qDUnUQ3nLI7NiTYbpAs7CpYREUlCkJYSyknhK1pRxDh5nc7UWiNHqSj55t3S3K13HWve+5bnxe4nZaCdtbm5OF+O7kIdlYFkkrKbrjuN4xfJrlulONFjxQuSGkBRCemDXElKthz2O2++x2qkYwfMpN/dxWPi11cvDPN2CmIsvNjkeJSdt0p2Uk7nlsQd+dbK3PUHHcnyS/45FZgpsNruLkyVeWMsNrjSw+Ad3Q0krkKBSUJ4CRsAOXImmxzN8AftmaRNO7rYGp1yujKeLNLg8hMy3ojoRycUoLXs4HClClbhKue3JI25eT+BlUtGvleXM3a+UU1nmraybXNyGR4Ki5ZT5X2X3fK5rRfMev2MTza8is8y2y0ji6GUyppRTuQFAKHNJIOxHI7VfsDwiz5mt2LNzq12KYXW2YseY06TIKuXJSEkDnsOfPnWS65ZAm5jHrKL/is02eO814rjUVxEGIFqSQEvLUelKtuewATt3kmsKwByIzneNvXCQ1Hiou8NT7rqwhDbYeRxKUo8gANySeQFcKdChhdIeYtrwulm+KXLF8jfHkzSzRpyhCnX1N68cDLcr0Yi4Yq5x73qhiYnW5tR8RYdfckOOBPEG+HowEk8huTsN+e1YXa8Qyy+Q3bjZcXu1wisb9K/FhOuto2G54lJSQOXnq66pXWNe9UMnujclEqK9eJPRvMOBSXWQ6QlSFDcEFIBB7KmvJLgh/UO35pbtZ8ctmE2VcR6326DdD0zUVtKN2UQmxxcatlAhQ7DseQ4a31gcJjK1RUlqwhLVyebTb9ZuTslFLO3Fbt5m8zSqzlq5JO2/pzzfIUHgVf5fz3+R2X9efW1Fa2eCrdo9/1I1VvsOMYzFyct0tpkgDo0OP3FQTy5cgQOXmrZOvrXkjFR0NRjF3S1s+PryPSaLSWEilz/NilKV6Q6ApSlAKUpQClKUApSlAKVpUPDnyPT/VbLcOz+xIvdhtuQ3CHGkwkpZmxmG5K0oTw8m3glKQADwK7ysmtotN9YdONWreZ+CZRFuCkIC34hPRyo/d7IyrZaRvy4tuEkcia5mD0xg8dJ06U/WWVnk8vn8LmpQx1DENxg81yPeYX4WUtUXS5lKXShT92jtjYcyQhxfb3e033+Cs7tk2flEW2TAosolQ25J7ylC0A8R7AFHc7Dt281YD4Wcdp/TeAp9wobavcda9hzKS08k/rb9/ZVysueYthOh9oyvKry3aLTDs8JV0ub/EtLPElDY34QVFSlKSAADtxCvRWSw0ZLizq7qMXzsz1SmlKTBhuJbgxRu+5v2nzb9/9/t/VqWVBqJs24pvZpHYI7XetX8I/wB+/ePcV1/0czK6R8XxfK4657oUqBa5sd6DJnqSN1LbbkIQpxKR1jwg+c7AVnsRtU1x1S1kxt+OS8eXTqA5JH8AVr8/jx44mLnKhkRvFy6scMCN1kkjm8vvWfON+zzn7VUbkqRPf6Th4HB7Xfsjtn6Y/wAM/wBHKucqeJC21qQA1ufFmlDbcD/xFDzeYfb7qpMduFlvQuIhXaLLbtkxcW4qZfSstykhKlNObElKwFpJSeYChy3JqbWzYWWbLjFQw62l9xvo4TKvYGzzLq/qz5z5qp5DzinF3FxXPh2Rt/4aT3p+E9321HltX24yFLeVxhKG207AHsbSeR3HnI7vhCfqq60NmY0HJPG1Da9sO9Z7gPOT3/aA7qLiwlys+xo6ZA8ceQfFUkBtsdr6h2Ab92+/x8ye+quS++zu0HE+OvJ3WsDdMdvzD+/M/ao9KkMBKuiSJLqSGGfpWGx2qV3D/wBtvPVAyHEHpF8TgUriUTuFOr+HzAb/AGgfOeT2s2N+ZzjtoTwrUypaEE+Lsq5l1fe4r+of0fDcmG3YSQ49s9Olq2+AfB8CR/furHcyzXEdI8Ouup2pV7atVntbaXJUp1ClBlKlhCAEoBVxFS0pASD7YDzmq+Ld2L5DYlWu4sy2biy3JEuKsONmOtIUgNKHJXECCCO0Hfs7Ib1nYh5ne+8yndoLK4qFnplb85Dp+l+Ict+7YbVzDjsdxb75QJS09Xl1YzXcfj+DvNU6THYS284gHhPDGZ4uR27VH+CDzJ7zz7hXNptHC/InKK20q3c5bFxzs4QP6Nu7s89TYk5NpaWlEt1hRZSraJHJ6zq/q1ecnz/3MQeFTfHrNjVkipcBlSroiU+UK4TwspJSgeYcSgfjSD31NKQ40tC1pSqe+nZtvtSwj5B3+c8qgLwpERpDGOxUbqaQLm4uSsAhx1LCVbc+07gAH7nYN9jB2lXjcy4fOqrmyDTqHmkPNK3Q4kKSdu0HsrlVtxpanMctS1qKlKhMEknck9GOdXKtBqzsazyZWWj2kn+O/wChNV9UFo9pJ/jv+hNV9QQKsz/7tlfxif1E1easz/7tlfxif1E0BxpSlAKUpQClKUApSlAKUpQEFeEKSnUTSZYaU7wXlaihI3KgH4hI/oqPvCmXm7mtGjEfC89s2I3y4qyOKbvdoQlxYSPEUOqQEFaAV8DLg3KgOffUn6yJemau6WwmGQpxuVMfSSrYAgNHc/8Al4N/h7Ky/MdNtNtQ4DEHULCsfym2Wx9T6W7za2ZqTJPIqQl1KgD2A7dvZ2Vu1Pqaa5n82bE/q4LxvNJJmoOd6HS8yyDE87xrXTP7nYLm9cb9aoi25WPswYUmREVIYQ49DaYQ71UxgWVuKcKuFxW9TtqB4Q8jFZGj+N4RneL5Vm2ZXFLNztsaZHV5Qj+SZbnSJKSega8bTG2WNhz25jcVPdmxnHMUtSbbj+M2y1x3Elti3QojbDCAocxwIASOXtjt3bdwrHLFpVpViiFsY9p1itrZZmic+uBZo8cGWN9i2ltA2WOJXWHW6x58zWslcxbzV3EdatXYWouKWjVK4alwMkyGHMmKxuJZLAmzNOoiuFxS+B965CO06U8MlR4FqSjbYLKRjPg63rXXX3TTKstvvhBZHamLexa3UN2qNHE2RM9TtukLC33kOJRHLqyvoWm0cS1uqUog7J3Rt+I4Zjdwu93suJWqBNyGQp66vRoqEOzXjyIdWkcTh22CiSe5I5VW2TE8SxOLJt9kxu1Wlh9KfGm4MNtlvYNIaQjhQACrom20DlyQhKRyCRVrPeybGidu8JfXXVU3W6WTJrJiFgxOx2ji6bJrXZ3JVxk29mW49JTNhyleLBT44QlLaFBKiVKPJGc51rFr3FxqJlGS3W527E0Ynb7tJyzA41mfZukxTRVLKX7w8huPFQoIDaeiUt7i3SrsSNj5+iWkF4nW64XHSPDZc+0sNQbYt6xxXHbfGaADTDKyglsJTt7UjhHIdorI7tgOGZRPtN6yfHrTdHMceXJgyZcRDviz5SElTPED0ewHDuOfaN+3du5QanZjrLrVGxO25rdkak4xgEbFoF3RkUa0483ebjJcbV4w5PFwfTFgrTwt8LLbSirpDwKGwTWzmkl/m5TpriWX3RN8kXC52iM6yi+w2oc9W7Y3ekss+xtOK9soIHCOLYbDYC7X3EcSzO52bIsqxa3XR+xvrfsYmRkOrYeUkAvN8QPArYe2GxA3586us+SuIFtodCprwBccA3DSN+QH9QHaSd6hJ3sFe5o1rjh2q/hC6oaiXDTfHLDNaxONGxfHsguV3VHXAvMOS1PlvRGUsOlxzxluJHBKm0jxVxJJClVecd141KzOFp1cLnrPimnVtvuI3W95RNFtabEGTFmR464bapziksPNLecS4pzjG7agEbncbc2qwQLCnxe021iG5JecfLTDSUBC3VlbjhAGxcWpSlKV51EnfvhzI9HsOl+Ejh1zXppaZlih4xk0p+Uu0NLhsXd+42x0PcRTsh9YEo9J/jF+y8ySqrPmJfMRTb9V9c5Fsx22t6yW+BjGQ5tPg2/Nr/jkeM/cLBHtS5PjC4w6JpO77DzbK+FCVoCXCgpICu+1an+Ejd0ZL60eR3DVPC03O2wmMuFjgeORm3BIVcDBbbVFj3FCOGGgO+1CnnOboaVvMOueAMagZvo9b5+HN5FZoGWy5V0YlQEyY7DZslwS29ISsFIAeUxwk+0UW9usU1KV1sGP3fHpOBzLXFfx5UVUO4suNjoXGCnhUzw9mxHLYdg5VFmQQp4LeqM3Pk5vb7xkmoF6jYpcYsV1/KLfZWm1SS2VLjxXbSSw6EbJK0ElTZUkE77gW7X2TqFbdZsVvOC2uFccmVBAhQ5bxbZJC3tmyd07khR3BWkdYbkd89Wy026w22FbLHZYdshRkBi1WqIwhllhA7D0aQEpA7dgNqjPPof/AOemm62Vh5RcfDjvZxrQeJR3PaADt9qs1KDmpQUmrxlmrXWXJdNGSnG6cb2unn8DRDW3ONasoyd2BrLLvDE6KvjbtktoxmI4O4CmmQAjYjkHACVAAlSu2o4r2OzfTzCNSbQbHnOMwbxD5lCZCOu0T2qbcGy21bcuJBB+GtPNXP8AB9XOH0140bvfj7XNfka5uJQ8P4LT/JCuZ2AcCNgOa1Gvk2l/JbHU5uvSk6q/y/X4dR4vG6IxEW6kHr/P9fGRAuF6neERj2NQ7Pgt7ymPY4/SeKtwoylsp4nFKXwkIO/XKyefbvV79ejwtfrkzb8TX6Fb0+Chjt9xPQPGMdya0yrZc4S7giRFktltxsmdIUNwe4pIUD2EEEbgg1LddbB+TeIq4enPapxvFO2eWW7fybjcoaKqzpRl52Sullw5t55d+vR4Wv1yZt+Jr9Cnr0eFr9cmbfia/Qr1EpWx9GMR98n2/mMvoip9vLx8Ty79ejwtfrkzb8TX6FPXo8LX65M2/E1+hXqJSn0YxH3yfb+YeiKn28vHxPLv16PC1+uTNvxNfoU9ejwtfrkzb8TX6FeolKfRjEffJ9v5h6Iqfby8fE8u/Xo8LX65M2/E1+hXXbMn1Eyu9TrjqZOukq6NxYzDS7i0UOCOFvFIAIHV4lL+2TXqRWmPhcf56mf91rf/AM3OrzvlToSrgdGyrTxEpq6yd7b+lmlj9Hzw9HXlVcs9z/5IdpSpD03xPFXMcvuoueMzJVnsamYzFviudEqfLdJ4Wy52oQkDdRHPYgjfbY/NsLhp4up5uDSybbe5JK7b6EunhmcinTdWWqiPKVK8O16a6oQbpCxHEJWJ322QnLhHQLk5NizGm9i4hfSDjQsJ3KSOR2O/dVdc/ByVbL/NxRzUSyKve7vku2pQtUiYENlz2RKOJMfiQCU8Sjvy89by0JiqsfOYe1SDy1k7K7vl62q75brXeVr3Rm2SpJa0M1xXyztmQ1Sp0m4Nj+MWPGLfbdF7rmd2vFni3aXNL8wNtqeBPQpRHIHVA7SfNvvVRk+gtvylx9WnEZi13i1wIb14x9yeJCYjzzi0lIkKVsChKONaVHcDs5nas78ncW0/NtSkreqta+69leKi2lvUW3wuW2Grb1c3wz7rP4MgOlSLJ0d4ksW/Hs+xvI77ImohtWu0vrdUsqBPGlxSUpKUgEqV7UDtV57lefBzy62QpkmLd7bPctam03BtpqS2hnjXwgodcaS26BvurgUSPMa1VobHSTcad0uDT57ZPelm1vSzaMey1nmokUUqV5ngz6lxpsi0seRpV0ZJcRbWrm1407HDnRiSltRGzRJB3UQefMA8qrrDoLkEO5R1+WMOvCZT8u0ONtyHZSYkpMJ57ZYSEDjCWlbEKISrbcHarx0FpBzUJUpK7tmue3jhyllg67dnFohqlSND0TuiI0V7KsyxbFn5rSXmIV2nlEkoUN0LW2hKujSf4ZBHmpieh+TZNjjWVyJsa126W4pmEp1iRIdlLBKd0tx21qCAobFZA28xrFHRONnJQVN3avyZJWzeeW9b7byiw1Vu2r4/D4kc0q9ZliV4wXJp2J39DSZ1vWlLnRL40KCkhaVJPmKVJPMA8+YB5VZa0KlOdGbp1FaSdmuDW9GKUXFuMt6LK/mmrWIX+T61tyvcTxuHH8e8msqc4uFb3R8eyTttxObfGa7vXo8LX65M2/E1+hWzngVf5fz3+R2X9efW1FfV/J3QVbG6MpV44mUE75K9laTXFcLncwWjp16EaiquN75LpfOeXfr0eFr9cmbfia/Qp69Hha/XJm34mv0K9RKV2voxiPvk+38xteiKn28vHxPLv16PC1+uTNvxNfoU9ejwtfrkzb8TX6FeolKfRjEffJ9v5h6Iqfby8fE8u/Xo8LX65M2/E1+hT16PC1+uTNvxNfoV6iUp9GMR98n2/mHoip9vLx8Ty79ejwtfrkzb8TX6FPXo8LX65M2/E1+hXqJSn0YxH3yfb+YeiKn28vHxPLv16PC1+uTNvxNfoU9ejwtfrkzb8TX6FeolKfRjEffJ9v5h6Iqfby8fE8XL5Nu9yvVwuN/dfcukqU6/NW+nZxUhSyXCsdyionf4a4Wu63Sx3Bi7WW5SrfOir6RiTFeU060rzpWkgpPwg1tFN8DvVTVjWPNb5LYRjOOysmubrdwuCCXH2lSnCFsMAhSwQQQpRQhQO4Ua2m0j8FnSXSDobha7L5WvjWyvK1zCXnkL87SduBnY77FICtjsVKry+C8mcdjKrk/Uin7T3vPelv8Akuc5FDROIrzbeSvvfca1PZl4SmT6ONeu1jbYsInRzDu09HilweVwr4QWgPZEcPMLUhG/bxL3rPfCGuMqH4Btyl25xiIi32e1SlvvI4kKWiXHWQUggqSOHdXMbgEbipX8Kn/NLI/l0b9Y1d7FjFtyLTix4Zk1mhXaG/YokaRAnRkvR1M9EgHpW1gpUVbdhHL4+dfW8FhpYXR8KM6jm03nLfu8b79J7bD0nRwsacpOWbzZqLqBJ1CxHJ7bqJqBr5g+r2XWHidxnT232tyE8JZSps+JNRH3VLeKHFI6Z5hxLe5O6Ruqs7n+E5ebN4NGqub5xneOY7lFjueUwsetbr0bxhh+K883b4i2tyHlkttq32PSBwK5pIJ2Lw7TLTLTiG9D0+wPHcahISRLdtNrYhl/nuUexJTvz7fuVQI0v05v2Wy8wl6b4yq7XCP4u/NXaI5kPMcPDs87wcTieHdISokHs7BVknvFjVfVPXHW62JuOa5srPsLx1h2IiyOYXbbBLNwafZaU04XLm+XHn1urUlMVhpK0hKPb770i6g626meFRfdK8b1Tu2J2WAbwsNm3tOSI0RMHHXEIabXu0h9Lsl8pccS7wB54BJKkkbbz8JwIZFb8kbxGzm6WSH4lCuKoban4zBO5aaXtuhBP0qduIgA8hXKHiOPovrt8iY7a419lFapdwREbTIS24Gw5xugBRUoMMg8+Yab39qnhm18ybXzNLci1o1qteZRPBoxXMH5bkLIbu1Nyq/XWBBuD1tixoTyWm5D0ZcdUjinbKIYcWG0AhO5UsZhY9WvCUuGBtNY/dbRlqo2VSrXJueMSrffrlZbeiIlbQc3TDhvyy8SlS+jCWW1JUtC1bmtk8j0t0ozOI9DyjTfGrzaXZwmrjTrRHkidP6NDfTqC0HiXwNto4zz4UJG+wAFTdNPsHl4m9gkzErGuwvNBh+zphNiClkKCgwGQODh4tiRtzPLvpZ3IzNVsU1s1uyfB5C9OTqHkiBlci1ZBkd3tVgfuEBpuMDwW9uG+3Bkth9PAXStQaKnOJKggBMw+CLqA/qHiuR3a65Dm94asd8dgJnZVDtLRU4htHSNx3bUTGfaQ5x9ZJJDilpJJSAJUl4Dht/xReJZBjlsk4yWUsv21+OgxHG0kENFvbgKAUp3AHCdgnbYc65pMSNDjRLZbo8SFHSG7fCaaDbSEJGwWUjYJQkdg7KizbshvyRrx4U0vL9Rc+wDSLDsVtmSORZPq2vtruVw8TiIgRVdHCRIWGniQ5MWlzgDaioRFJ25mofwLN9f9HNML9ojPybD8fyHAMqx7Gra+uK5MDFmuUlAZkLU6tAfZS06tlJCW1AxFJUoKJNbxQ7TAiTZF8ERhu4zG22pE4tJD7jSCsthSttzsXHChBOyeNR5bmod8IvS+3agWC2S2cBjXqZMyjEo0xoWxMlb1nj3uO68l/dJLkdKFyFqSrq7KcURtvU2sTYiC86vaw2lvUXKNPdao2otmxXCp06ZeJFmhIgWi+Nra8WjRn4yEofKkCQpxo9IWglHEsKUBV9f1J1utedWiz6Y6wW/WbIYUC4u3/Go1pgxLTAUiE6qL/2pnrxX3Zfi6EsvPOLLa1rPCElVS74SeJszPBf1DwTBcZ3D+LXKHaLTa4gCpD6mFhCWmmwN+sQAkDmojburP8XxjGsNtjGPYjjdssbJTxeKW6I3FYjAjmAhsBCTttvsOXL4N4zZG81k0j1d1FuWuVlwPUXItS036+WmVNu1skWGwx7LBbbaSVKUIzz06MgLIQ2t5whxSgkb89s88KcqctONTEtpagoVOZZB5EksjYn4yOX/AL1LFgwjCsPbnJxTHbdaI8uYq43Ew4iGl3CU4SorcKQCtSieW++wI+DaLfCxbDmGWiS+AZSbmlKkjsYSplwhHwb8O/2virbwWVePjkM+GyqInnF/+7Vp/kLH/DTVzqntzBi2+LGLYQWWUNlI22TskDblyqornyd22arzZWWj2kn+O/6E1X1QWj2kn+O/6E1X1BAqzP8A7tlfxif1E1easz/7tlfxif1E0BxpSlAKUpQClKUApSlAKUpQEV5rHVO11wZtp4srhW65SVLPYEqQG+Xw7E+buPwVIjfRpCZHCBFbAEZtI3KifptvP5vtmoY1iyZnEtbcHut0T0VsciuxZLyl8KOBxfCons5I3Qo/BUxOOSQoO9GDLdBTGZPY0nvUr4fP9ytyrF6lN8lvxZsTT1Y9H4nVJefadIK0plOp3dcB3TGa8w+H+s/aqnJSlAcYT0aGwOhR9MAr6c/w1bcvMNz3V2dC22wtbzhdYbXxrV9NJe8w/gg8tvOK+NIkuLTGfAXLfBddG3VSg8uE+bfkD8A2rHuRQ7IxKl9ItLYWEhaD2pab+r/r28/M/F8dkFtLbrbBLi1f9laV7ck9rqh5/N5v6u4hplCnVL3jIJUtXfId8w+Adm32uwUQ0+h0PqQlVwkjv5pYR/f7pqt1vIOTLAQpcJCiXFDikPA+0B58IPnPn7e/zVwecbfaSA0RBbIQ22ntkKHYB/B/r281dhcYDCkBw+LNE9M53vr7wPPue3b4q+lxxtSXFMgy3ElLDG/JpPnPm+E/aFR48eMiDpfddheyLKFznknhH0jCB2/EB5+810MAxY/SkFcl9XE0FjdSj2dIR/UO77ZI5htLYdlyF9K0lXEpZ7ZDg7EgfUg9g84rmwxIW6sqcCZsjZTh7fF2+4D4f/f7dskixwS0WELW8+Uq9rIdCuY359Gg+c95/uOBC0oRIdQlOyQUNhPJKQeSiPMPpR3q5/F2qVHDXjbo/wCwxf3Og/8Air+qO/bzJ2+7XWHZPSlSW+OVJPE02rsSOzjV5gOwD/1NM2DkC60tcWH1ZLo4nVqO4jpPPmfqjzJPn+1X0pjRY7bjiVGK0QGGtus+59UR38+z7vmr42w00ytT7u8ZKt3nNutJc37P/Lvy2767XnlNLE6W2DIKT4uwTyaT3qV5vhP2qePHjIg6wy404t591IlOJ433d+UdvuSn4T2D4jUd5KkTdeNPkeKdHHhwbjIbT0e/VLZQCR9Lz2O/xd9ZrcLraLTbX8iv05uHbYZU68t3q9K4POO08+xI+Lz1GGlGQXfVPWG85xKjPMWiwwjAt7a0cBSp1STud9iSUpWoju4k/bz0otRlU5En25fiZYJpSlyJPuJ5pSlaJrClKUApSlAKUpQClKUArTHwuP8APUz/ALrW/wD5udW51aY+Fx/nqZ/3Wt//ADc6vH+XX8mn0x+ZytM/wr6UQ7Wb4FntqsNlvOGZbZnrnj196JbyYzwakxn2zuh5pRBTvzIKSNjy57Ag4RSvieHxFTC1POU9+a4ppqzTTyaayPKQnKnLWiSkxn+m2EwZjOmdivzk+6ITGk3G9PMlbMXjSpxpptocO6wnhKlcwOztr7H1UsDevytVFQp4tS5zkjoeBHjAQpoo9rxcO/Pfbi+3UWUre9MYn1FGyUJRkkkkk43t83e+/wCBm2qpla1k018CR9RtXbrk67ZDxu+X6Ba4dmiW96GqUpppx1tHC4ro0LKSD5zzIHMVQacZ1BxKzZlZ7j410eRWNyCwY4BIkcQ4OPcjZGxWCeZ2PYd6welYpaTxMsRtUpXln0Zqzy6CrxFRz843mZjpHncfTbPbdlsu3qmsRQ6262ggOBDjakFSCeXEOLfn28xuN9xnd31awLxZTUe8al5IqRIaWtu/3cJjMJS4lfGllpezqxtySohG+x25bGE6Vkw2l8ThKGz07at281fNpJ9aS33tyWJp4mpThqLcTBG1sgRdUc21DZF0Qq+WqZDtRCEdKy8tLaWC4OPYJSGxvwlRGw2Brjo3q7i2nloah3y23OS+zel3NPiyGygoMF6PtupYIVxPb9m22/PflUQ0rJT05jKVaNdNaycpLLlk7t9aRaOLqxmpp5pt9e8nXE/CKmWCxput/vMy/wB9DSozNvXbIrUcJSnhQuTJ4S891SCEpKTujZR57nuY13xW943Y4GSXjPsfmWaP4qtnFZLMaLKAPVWQVJKVbd2xA7qgSlZoeUmkIxVNyvFK1nd33O7bd73S5bcxZY+sla90XzNb9BybJpt6t0GVEjyFJ4USprkt9WyQCtx1w8SlKI3PcN9hyFWOlK4tWpKtN1Jb27vk38yyNWUnJuT5TYjwKv8AL+e/yOy/rz62orVfwKv8v57/ACOy/rz62or7z5HfySh/5f8AtI9hon+Dh8fmxSlK9MdEUpSgFKUoBSlKAUpSgFKUoCIvCkaW9pU6y0niW5cIqUjfbclRAqQrNbW7RCbtDD6nFMtIRJknkeqnYAeY7fcHPzViHhAW67zMFZnWqMuUiz3ONdJsZG3G9GaJK0pPcQeFW47kn4qumMZvjOeWTyni83xiGhQQ4yQUvKkKHFwOJ7R8J7DsdiQN63LN4eNt13+BsZukrbrv8C5ynVXCU3AjtERdtm0DkF/wj8Hb/X2kb1Ew+Lo8RhKSn6aQ6eQSkDbb4u7b4gPg5NtPRmzEjlKrhI6zqx2MpJ/oA7AKMtxmowWG1usoWAgdqpLncT8Hm+7WK65ClymS242tpTTPG+7+5kL+lAHN1Y7j2bDuGwrkoMkKiMOnxZolyZI73FeYeck/389QUyEKLKFjxyTuuQ8DyYR5h5vg+2aNpYYabebSoxmiExmkjm859UfP8Hxb0v48eOUXOC1LYcZWpoJkLSpMZruYRtzUe7fzn/3rrgQUu9KlD27O4Lju/tuW55+fny8wJPaeXIRZD8hyPxgyXhvKcA3DTZ7G012kMrYDaElMBs8KUj20lfm+In7vxUvkDolvIkoQUtHxNJCI7CeRkLHwdyRXWhLyHnHHHULcKQXHD7RI9EdgH0x+AV3PpkF3xccJlut9dQ5IjNeYf33/AKKp5DSPFkJYQpbJVwtDbrSXduRI+oG1St1iUdaukuMlIQhSmUL2bbUebhI3KlHzHtJ7hsB2iq+W+0w2toOANpUEyHBsC4vbk2nzcu3zCuTbLkVoRW3EiSpAVIeA5NI79vhPPb7tdTbTKQ3NdaWWUnaIwR1nFH6Y/CTz/p7qhtMi9z66Cw42+prjmSCAy1t/iwPptu7Ydg/964utthCw26g8W5dcUeS9jz//AEA/fHl56+7KZfW28suTX08ThSr/ABafqEnu+E9w5+avnCyywl4gKS6sJaSE/wCMUPanbt4E9w7+3vFAfAFuudIkLSB/i9+akA/TEd7iu7zDnUT+EfGE/A4lvaiF0G8RQ66gcXCpXSJCUnvPXI37yT56l1EeZwhHScLygStajv0CT2qPnWf6PiqO9REjIsywnTeFuLe7NXc56AeErajALTxHbcBSjsNtifg5EZ8PK1RS4Z9RkpO00+BL1KUrRNYrLR7ST/Hf9Car6oLR7ST/AB3/AEJqvoBVmf8A3bK/jE/qJq81Zn/3bK/jE/qJoDjSlKAUpSgFKUoBSlKAUpSgMH1a0tteqeOi2SnjGnRCp2BKG5DThHMKHek7AHv7x2Vh+OaS6xRo3km96wKYgMN9EyqDGSuQtA2CUrccSCAAOXNR5kb1NFKzwxNSENRbudJmWNacY6q3EUOaK5S4UFWteVgNkFCUlKUpIGw2A5DlVDK0FzF99x5GvGWNhwAKAcWCrYbc+FwA/cqZaVKxVVbn2LuJ8/NcvYiDpPg6ZZJbQh3XXJ19EPYukLqw2duWw6b+raqB7wY8vkDhf1zvDg3B2XFdPMfHJ+E1sBSrrG11ufYu4naai5exGtkjwT8qfIQ5qs66hBPB0kZzkPi6U7dgrr+hUytpY6PM7e+lO3XdTKSpfn3CXOX2j9ytl6Vb0hiOPYi211eJrQrwWb62eJDeISlKJKlPquKDvy+pe599cPoXMi2A8n4RuDvv01z5/B/ja2apT0hX4ja6vE1ti+DPkMR3pk2bBFqHtSZN2SU/CCl8GqceDJnfb5Sxri+q8auG+2/Z7etmqU9IV+I2urxNa2vBm1J6Rp1GpDNvDZ2SiI9KUlscx1Spe/Zy7R/61f7f4PuozKiqVr3fdinoyhCHV7oHYN1P7DY/B/XU60qHjq0uVdS7iHiaj/4RCN58HXIL6m3eU9XrnMNtUS0mZAQ+0nltulsr2CtvpjxHvqTsGwizYBYk2KzdMtKnFSJEh9fG7JfVtxOLPeo7D7QFZBSsNTEVKkdWTy+BjlVnNWbyFKUrCYxSlKAUpSgFKUoBSlKAVFWqHg6YnqtlDWWXjI8itsxuA1buC3OxktqbbcdcSSHWHDxbvL5ggbbcqlWla2KwlDHU/M4iKlHg9xjq0oVo6tRXRr79BbgP1+5t+Gt/7JT6C3Afr9zb8Nb/ANkrYKlcz6NaI+7x6jW9HYX3Ea+/QW4D9fubfhrf+yU+gtwH6/c2/DW/9krYKlPo1oj7vHqHo7C+4jX36C3Afr9zb8Nb/wBkp9BbgP1+5t+Gt/7JWwVKfRrRH3ePUPR2F9xGvv0FuA/X7m34a3/slPoLcB+v3Nvw1v8A2StgqU+jWiPu8eoejsL7iNffoLcB+v3Nvw1v/ZKfQW4D9fubfhrf+yVsFSn0a0R93j1D0dhfcRr79BbgP1+5t+Gt/wCyU+gtwH6/c2/DW/8AZK2CpT6NaI+7x6h6OwvuI19+gtwH6/c2/DW/9kp9BbgP1+5t+Gt/7JWwVKfRrRH3ePUPR2F9xEdaS6HY3o9IvEqxXy93J29IjNvquTjCuBLBdKAgMtNgc3177793ZUi0pXVw2Go4OkqNCKjFbkt3E2qdOFKKhBWSFKUrOXFKUoBSlKAUpSgFKUoBSlKAVGl50Cw+Ve15RjU26YveVrLvjVqkcCSo78W7Z3Gyt+aRsDt8J3kulXhUnTd4OxaM5Q9lkM3LQnOphd8V16yVgPL417oUeLlsQeB1H3OzburHJfg4aol0Lja1z39lKPE85IQofDycVzPPfn92tiaVsRxtaO5rqXcZViai/wCEazq8GfU1pPRs55BfCh11uyZiFKO/YQk7HlXa34O+qIVwuX+wFLYAQvyjcypXLmSOMAfa/orZOlW9IVubqLbVUNbHfBz1OWkpbyeyskndSkTrjufgO6yK62vBv1TQ8256t7cjgUCFJmzuJHwjrDn9utl6U2+tzdQ2qoa5M+DbqipSxI1lloS4OsUOyFFR+EFY7quEPwddSGP/AO/l7j8PtOhD57e3/wAcbdgqfaVDx1Z8q6l3EPE1PCRCbfg+5olJC9e8qUV7Fzru8K1ecgvHf7e9XQ6KZSVpWdbsu4kAhJ6Qcge3bn8FSxSqPF1XvfYu4q69R8vYiKn9ELwpLgj6x5khTx9kUuSlXGPMdgP66+N6LZS3IRKTrZlZcbBSkrKVbA/AeVStSo2qrx7F3Eeenx7ERcrSTOGm1eJ6239DvFxpL0Rl1BV51IO3EPgJqownS3IrNmbubZjmQvstMIwojaInQNsBSgVqA4jzPD29/Ed9+VSTSoeJqNNceZdwdabVvwQpSlYDEVlo9pJ/jv8AoTVfVBaPaSf47/oTVfQCrM/+7ZX8Yn9RNXmrM/8Au2V/GJ/UTQHGlKUApSlAKUpQClKUApSlAKUpQClKUApSlAKUpQClKUApSlAKUpQClKUApSlAKUpQClKUApSlAKUpQClKUApSlAKUpQClKUApSlAKUpQClKUApSlAKUpQClKUApSlAKUpQClKUApSlAKUpQClKUApSlAKUpQClKUApSlAKUpQClKUApSlAKUpQFZaPaSf47/oTVfVBaPaSf47/oTVfQCrM/8Au2V/GJ/UTV5qietjbry3xJeQXCCQnh23AA7wfNQFDSqzyQj3bI/M9GnkhHu2R+Z6NAUdKrPJCPdsj8z0aeSEe7ZH5no0BR0qs8kI92yPzPRp5IR7tkfmejQFHSqzyQj3bI/M9GnkhHu2R+Z6NAUdKrPJCPdsj8z0aeSEe7ZH5no0BR0qs8kI92yPzPRp5IR7tkfmejQFHSqzyQj3bI/M9GnkhHu2R+Z6NAUdKrPJCPdsj8z0aeSEe7ZH5no0BR0qs8kI92yPzPRp5IR7tkfmejQFHSqzyQj3bI/M9GnkhHu2R+Z6NAUdKrPJCPdsj8z0aeSEe7ZH5no0BR0qs8kI92yPzPRp5IR7tkfmejQFHSqzyQj3bI/M9GnkhHu2R+Z6NAUdKrPJCPdsj8z0aeSEe7ZH5no0BR0qs8kI92yPzPRp5IR7tkfmejQFHSqzyQj3bI/M9GnkhHu2R+Z6NAUdKrPJCPdsj8z0aeSEe7ZH5no0BR0qs8kI92yPzPRp5IR7tkfmejQFHSqzyQj3bI/M9GnkhHu2R+Z6NAUdKrPJCPdsj8z0aeSEe7ZH5no0BR0qs8kI92yPzPRp5IR7tkfmejQFHSqzyQj3bI/M9GnkhHu2R+Z6NAUdKrPJCPdsj8z0aeSEe7ZH5no0BR0qs8kI92yPzPRp5IR7tkfmejQFHSqzyQj3bI/M9GnkhHu2R+Z6NAUdKrPJCPdsj8z0aeSEe7ZH5no0BR0qs8kI92yPzPRp5IR7tkfmejQFHSqzyQj3bI/M9GnkhHu2R+Z6NAUdKrPJCPdsj8z0aeSEe7ZH5no0BR0qs8kI92yPzPRp5IR7tkfmejQFHSqzyQj3bI/M9GnkhHu2R+Z6NAUdKrPJCPdsj8z0aeSEe7ZH5no0BR0qs8kI92yPzPRp5IR7tkfmejQFHSqzyQj3bI/M9GnkhHu2R+Z6NAUdKrPJCPdsj8z0aeSEe7ZH5no0BR0qs8kI92yPzPRp5IR7tkfmejQFHSqzyQj3bI/M9GnkhHu2R+Z6NAUdKrPJCPdsj8z0aeSEe7ZH5no0BR0qs8kI92yPzPRp5IR7tkfmejQFHSqzyQj3bI/M9GnkhHu2R+Z6NAUdKrPJCPdsj8z0aeSEe7ZH5no0BR0qs8kI92yPzPRp5IR7tkfmejQC0e0k/wAd/wBCar66IkRERC0pcWvjVxkr2332A7gPMK76AUpSgFKUoBSlKAUpSgFKUoBSlKAUpSgFKUoBSlKAUpSgFKUoBSlKAUpSgFKUoBSlKAUpSgFKUoBSlKAUpSgFKUoBSlKAUpSgFKUoBSlKAUpSgFKUoBSlKAUpSgFKUoBSlKAUpSgFKUoBSlKAUpSgFKUoBSlKAUpSgFKUoBSlKAUpSgFKUoBSlKAUpSgFKUoD/9k=;imageBorder=#6C8EBF;" parent="5GquR9uzr9U2BX6K7XrJ-4" vertex="1">
          <mxGeometry x="0.5199999999999818" width="157.48" height="130.15" as="geometry" />
        </mxCell>
      </root>
    </mxGraphModel>
  </diagram>
</mxfile>
